<svg width="56" height="56" viewBox="0 0 56 56" fill="none" xmlns="http://www.w3.org/2000/svg">
<path d="M36.0455 27.1862C36.06 26.0556 36.3604 24.9469 36.9185 23.9635C37.4767 22.9801 38.2745 22.1538 39.2378 21.5616C38.6259 20.6876 37.8185 19.9684 36.88 19.461C35.9414 18.9536 34.8975 18.672 33.8311 18.6386C31.5563 18.3999 29.351 19.9999 28.1918 19.9999C27.0101 19.9999 25.2253 18.6623 23.3034 18.7019C22.0603 18.7421 20.8488 19.1035 19.7869 19.7512C18.725 20.3988 17.8489 21.3104 17.2441 22.3972C14.6242 26.9332 16.5784 33.5996 19.0881 37.2662C20.3437 39.0616 21.8112 41.0671 23.7314 40.996C25.6104 40.9181 26.3122 39.7978 28.5803 39.7978C30.8274 39.7978 31.4858 40.996 33.4449 40.9508C35.4612 40.9181 36.7315 39.1474 37.9431 37.335C38.8453 36.0557 39.5395 34.6418 40 33.1457C38.8286 32.6502 37.829 31.8209 37.1258 30.7612C36.4225 29.7014 36.0468 28.4581 36.0455 27.1862Z" fill="white"/>
<path d="M32.3453 16.2286C33.4446 14.9089 33.9862 13.2126 33.8551 11.5C32.1755 11.6764 30.6241 12.4791 29.5099 13.7482C28.9651 14.3682 28.5479 15.0895 28.282 15.8708C28.0162 16.6521 27.9069 17.4782 27.9605 18.3018C28.8006 18.3104 29.6317 18.1284 30.3912 17.7692C31.1507 17.4101 31.8189 16.8834 32.3453 16.2286Z" fill="white"/>
</svg>
