<svg width="56" height="56" viewBox="0 0 56 56" fill="none" xmlns="http://www.w3.org/2000/svg">
<g clip-path="url(#clip0_238_1694)">
<path d="M23.4668 41.628C23.4668 42.6741 23.4995 43.7159 23.4554 44.7534C23.4255 45.4636 22.8321 45.7866 22.1176 45.5376C19.765 44.7164 17.653 43.4853 15.8071 41.8045C13.5399 39.7409 11.8819 37.2702 10.8572 34.3796C10.0033 31.9716 9.66313 29.4923 9.85099 26.942C10.1741 22.5727 11.8349 18.7799 14.8607 15.6232C18.2209 12.1178 22.3567 10.2221 27.2155 10.0172C35.4986 9.6685 42.9007 14.9073 45.3586 22.8204C46.1684 25.4262 46.3833 28.0862 45.9891 30.7889C45.2533 35.8285 42.8181 39.8689 38.7819 42.9488C37.2947 44.0831 35.6409 44.9256 33.8733 45.5376C33.0535 45.8208 32.5042 45.4138 32.5056 44.5228C32.5056 42.9587 32.5227 41.396 32.5255 39.8319C32.5255 38.9723 32.4316 38.1241 32.0345 37.3484C31.8538 36.9941 31.609 36.6738 31.3741 36.3067C31.7627 36.2455 32.1669 36.1871 32.5696 36.1188C33.9601 35.8825 35.2808 35.4556 36.4536 34.6486C37.8298 33.7022 38.698 32.3843 39.1349 30.796C39.6216 29.0298 39.7782 27.2337 39.3569 25.4262C39.1164 24.3944 38.6339 23.4765 37.9451 22.6738C37.7786 22.4802 37.7416 22.3222 37.8184 22.076C38.281 20.6016 38.1144 19.1528 37.5793 17.7338C37.5409 17.6313 37.3132 17.5246 37.1936 17.5431C36.613 17.6342 36.001 17.6783 35.4701 17.9046C34.5607 18.2931 33.7096 18.814 32.823 19.2581C32.6522 19.3435 32.4174 19.3975 32.238 19.3534C29.4002 18.6603 26.568 18.6632 23.7301 19.3534C23.5607 19.3947 23.3259 19.3577 23.1793 19.2666C22.1219 18.6077 21.0516 17.9786 19.8291 17.6769C19.4648 17.5872 19.0819 17.5531 18.7062 17.5445C18.5909 17.5417 18.4059 17.684 18.3646 17.8007C17.8437 19.2396 17.7071 20.6984 18.1753 22.1842C18.2109 22.2995 18.1668 22.4887 18.0885 22.5827C16.8759 24.0287 16.3451 25.6952 16.392 27.5724C16.4305 29.0896 16.634 30.5654 17.2773 31.9559C18.0615 33.6552 19.3694 34.7881 21.0858 35.484C22.102 35.8968 23.1651 36.1145 24.2467 36.2597C24.362 36.2753 24.4773 36.301 24.5783 36.3195C24.3407 36.7094 24.0774 37.0709 23.8909 37.468C23.7372 37.7953 23.6831 38.1668 23.5679 38.5141C23.5309 38.6265 23.464 38.7773 23.3715 38.8144C21.971 39.3779 20.5791 39.5131 19.3082 38.5169C18.9168 38.2095 18.5909 37.7925 18.312 37.3755C17.7654 36.5586 17.1407 35.8398 16.1743 35.5467C15.7915 35.4314 15.3616 35.4072 14.9603 35.4385C14.5888 35.467 14.5205 35.7246 14.7753 36.0078C14.9318 36.1814 15.1126 36.3451 15.3104 36.4689C16.1544 37.0026 16.7023 37.7783 17.1065 38.6621C17.4111 39.331 17.6872 40.0113 18.2266 40.5364C19.2356 41.5184 20.4781 41.8444 21.8401 41.796C22.3581 41.7775 22.8748 41.6921 23.4682 41.6295L23.4668 41.628Z" fill="#FCFCFC"/>
</g>
<defs>
<clipPath id="clip0_238_1694">
<rect width="36.38" height="35.6243" fill="white" transform="translate(9.80078 10)"/>
</clipPath>
</defs>
</svg>
