<svg width="18" height="18" viewBox="0 0 18 18" fill="none" xmlns="http://www.w3.org/2000/svg">
<path d="M13.7891 9.09163C13.7944 9.06994 13.7979 9.04752 13.7994 9.02455C13.8 9.01591 13.8002 9.00725 13.8002 8.99859C13.7999 8.89066 13.7548 8.79328 13.6825 8.72409L9.86889 4.91051C9.71999 4.7616 9.47856 4.7616 9.32965 4.91051C9.18074 5.05942 9.18073 5.30085 9.32964 5.44976L12.4982 8.61837L4.88083 8.61842C4.67024 8.61842 4.49952 8.78914 4.49952 8.99973C4.49952 9.21032 4.67023 9.38104 4.88082 9.38103L12.4985 9.38098L9.32961 12.5499C9.18069 12.6988 9.18069 12.9402 9.3296 13.0891C9.47851 13.238 9.71994 13.238 9.86885 13.0891L13.6885 9.26942C13.7395 9.21851 13.773 9.15678 13.7891 9.09163Z" fill="#F0F0F0"/>
</svg>
