<svg width="22" height="14" viewBox="0 0 22 14" fill="none" xmlns="http://www.w3.org/2000/svg">
<g clip-path="url(#clip0_179_769)">
<path d="M0.00424279 -0.000294816C0.0695672 -0.000294816 0.117894 -0.000294816 0.165887 -0.000294816C2.29926 -0.000294816 4.43264 -0.000294816 6.56601 -0.000294816C7.13194 -0.000294816 7.69086 0.0624258 8.23812 0.213774C8.56274 0.303423 8.87437 0.427501 9.16699 0.598278C9.94722 1.05334 10.4435 1.72964 10.6655 2.61693C10.7848 3.09347 10.8078 3.57785 10.7621 4.067C10.7348 4.36049 10.6781 4.64649 10.5788 4.92328C10.4065 5.40254 10.1259 5.80068 9.72058 6.10065C9.56761 6.21382 9.40263 6.31063 9.24298 6.41426C9.21065 6.43505 9.17699 6.4538 9.14433 6.47357C9.151 6.5172 9.18666 6.51481 9.20865 6.52538C9.32264 6.58094 9.44062 6.62764 9.55261 6.68661C10.3005 7.07964 10.7908 7.69423 11.0437 8.51062C11.1577 8.87809 11.2084 9.25611 11.2184 9.64028C11.2307 10.1155 11.1864 10.5848 11.0441 11.0385C10.7134 12.0908 10.0972 12.9096 9.13733 13.4396C8.77105 13.6421 8.3761 13.7631 7.96816 13.8402C7.39323 13.9486 6.81365 13.9994 6.22906 13.999C4.21234 13.9973 2.19561 13.9983 0.178886 13.9983C0.125893 13.9983 0.0732334 13.9963 0.0155746 13.9953C0.00957539 13.9581 0.00290964 13.9298 0.0012432 13.9012C-0.00108982 13.8617 0.000576623 13.8218 0.000576623 13.7819C0.000576623 9.25884 0.000576623 4.7358 0.000576623 0.213092C0.000576623 0.149348 0.00257635 0.0852643 0.00424279 -0.000976562V-0.000294816ZM3.16581 11.5669C3.23314 11.5693 3.2858 11.5727 3.33812 11.5727C4.23233 11.5727 5.12621 11.5727 6.02042 11.5727C6.09341 11.5727 6.1664 11.5727 6.23906 11.5693C6.52569 11.5553 6.81131 11.5318 7.08961 11.4551C7.66886 11.2956 8.06414 10.9336 8.23679 10.3397C8.35077 9.94809 8.3711 9.5462 8.29644 9.14465C8.20946 8.67629 7.95649 8.32894 7.53788 8.11146C7.38524 8.03204 7.22526 7.97648 7.05895 7.93762C6.74466 7.86467 6.42537 7.84047 6.10408 7.84047C5.17587 7.84047 4.248 7.84047 3.31979 7.84047C3.29546 7.84047 3.2708 7.83842 3.24713 7.84149C3.2198 7.8449 3.19314 7.85342 3.16581 7.85956V11.5666V11.5669ZM3.17248 5.51469C3.23047 5.51674 3.2828 5.52015 3.33512 5.52015C4.20534 5.52015 5.07522 5.5198 5.94543 5.52083C6.14507 5.52083 6.34371 5.51674 6.54202 5.49117C6.85297 5.45095 7.15127 5.36948 7.42923 5.21677C7.70986 5.06303 7.89483 4.82988 7.98182 4.51832C8.08147 4.16211 8.08914 3.80112 7.99782 3.44286C7.8885 3.01405 7.61987 2.73521 7.20226 2.61113C6.89764 2.52046 6.58568 2.47104 6.26972 2.45195C6.01276 2.43661 5.75479 2.43115 5.49749 2.42979C4.83658 2.42672 4.17534 2.42877 3.51443 2.42877C3.42678 2.42877 3.33945 2.42774 3.25213 2.42979C3.22514 2.43047 3.19814 2.44036 3.17381 2.44581C3.15748 2.57193 3.14748 5.09133 3.16148 5.43527C3.16248 5.45879 3.16781 5.48231 3.17248 5.51503V5.51469Z" fill="white"/>
<path d="M21.9841 9.28494C21.8112 9.29175 21.6415 9.28732 21.4722 9.28801C21.3022 9.28869 21.1319 9.28801 20.962 9.28801H15.9023C15.7323 9.28801 15.562 9.28801 15.392 9.28801C15.2227 9.28801 15.0534 9.28698 14.8751 9.28903C14.8708 9.32721 14.8635 9.35516 14.8648 9.38277C14.8848 9.76284 14.9521 10.1327 15.1021 10.4828C15.3374 11.0316 15.7407 11.4021 16.2849 11.608C16.8325 11.8149 17.3954 11.8394 17.9627 11.7031C18.454 11.5848 18.8346 11.3022 19.1092 10.87C19.1565 10.7953 19.2015 10.719 19.2452 10.6477C19.3942 10.6263 20.8933 10.6184 21.7438 10.6341C21.7772 10.6348 21.8102 10.6402 21.8505 10.644C21.8505 10.673 21.8535 10.6972 21.8502 10.72C21.7968 11.0636 21.6742 11.3816 21.4942 11.6745C20.9356 12.5839 20.1797 13.2479 19.1789 13.6028C18.7639 13.7497 18.3366 13.8363 17.8994 13.8792C17.5354 13.915 17.1708 13.9225 16.8072 13.8973C15.8933 13.8342 15.0458 13.5568 14.2739 13.0475C14.0162 12.8774 13.7689 12.693 13.5476 12.4748C13.138 12.0709 12.8477 11.5875 12.6478 11.0452C12.5014 10.6484 12.4075 10.238 12.3515 9.81806C12.2898 9.35413 12.2641 8.88816 12.2781 8.42014C12.2955 7.84748 12.3561 7.28026 12.5024 6.72532C12.6581 6.13425 12.8951 5.58135 13.26 5.09288C13.8679 4.2799 14.6591 3.74029 15.622 3.46521C16.1883 3.3033 16.7672 3.25182 17.3538 3.27159C17.8021 3.28659 18.244 3.3459 18.6783 3.46282C19.5125 3.68746 20.2341 4.10196 20.8 4.77825C21.1053 5.14299 21.3566 5.54317 21.5442 5.98392C21.7415 6.44717 21.8688 6.92984 21.9282 7.43127C21.9971 8.01484 22.0028 8.60114 21.9985 9.18813C21.9985 9.21676 21.9901 9.2454 21.9838 9.28426L21.9841 9.28494ZM19.3288 7.54069C19.3322 7.37537 19.3012 7.22402 19.2682 7.07437C19.0962 6.30127 18.6353 5.79542 17.903 5.54624C17.5564 5.4283 17.1985 5.41057 16.8375 5.44364C16.6289 5.46273 16.4252 5.50806 16.2289 5.58544C15.8277 5.74361 15.5304 6.02619 15.3071 6.39604C15.1261 6.69566 15.0178 7.02324 14.9524 7.36718C14.9418 7.42411 14.9354 7.48172 14.9271 7.53933C14.9508 7.54648 14.9644 7.55467 14.9778 7.55467C16.4106 7.55535 17.8434 7.55535 19.2762 7.55467C19.2898 7.55467 19.3032 7.54751 19.3288 7.54035V7.54069Z" fill="white"/>
<path d="M14.3742 1.96957C14.3675 1.94809 14.3595 1.9348 14.3595 1.92117C14.3585 1.49882 14.3582 1.07614 14.3585 0.653799C14.3585 0.63471 14.3655 0.61528 14.3702 0.590737C14.3992 0.585965 14.4268 0.579489 14.4548 0.577443C14.4888 0.575057 14.5228 0.576762 14.5568 0.576762C16.2626 0.576762 17.968 0.576762 19.6738 0.576762C19.7315 0.576762 19.7891 0.578466 19.8531 0.579489C19.8594 0.621075 19.8678 0.65414 19.8688 0.687545C19.8854 1.25339 19.8761 1.85469 19.8501 1.96514C19.7068 1.98593 15.2257 1.99616 14.4578 1.97707C14.4295 1.97639 14.4015 1.97196 14.3742 1.96957Z" fill="white"/>
</g>
<defs>
<clipPath id="clip0_179_769">
<rect width="22" height="14" fill="white"/>
</clipPath>
</defs>
</svg>
