<svg width="42" height="42" viewBox="0 0.01 42 42" fill="none" xmlns="http://www.w3.org/2000/svg">
<path fill-rule="evenodd" clip-rule="evenodd" d="M21.0007 32.25L13.0452 24.3861L14.6362 22.7951L19.8751 28.034L19.8751 9.00002L22.1251 9.00002L22.1251 28.034L27.3641 22.7951L28.9551 24.3861L21.0007 32.25Z" fill="white"/>
<path fill-rule="evenodd" clip-rule="evenodd" d="M21 2.25C10.6447 2.25 2.25 10.6447 2.25 21C2.25 31.3553 10.6447 39.75 21 39.75C31.3553 39.75 39.75 31.3553 39.75 21C39.75 10.6447 31.3553 2.25 21 2.25ZM21 -1.83588e-06C9.40202 -2.84981e-06 2.84981e-06 9.40202 1.83588e-06 21C8.21951e-07 32.598 9.40202 42 21 42C32.598 42 42 32.598 42 21C42 9.40202 32.598 -8.21951e-07 21 -1.83588e-06Z" fill="white"/>
</svg>
