<svg width="23" height="23" viewBox="0 0 23 23" fill="none" xmlns="http://www.w3.org/2000/svg">
<g id="brand-github-filled">
<path id="Vector" d="M5.37208 2.50013C6.09716 2.39654 7.11375 2.63304 8.42733 3.38563L8.67666 3.53321L8.82333 3.62488L9.18725 3.54879C10.5749 3.28066 11.9986 3.25584 13.3947 3.47546L13.8127 3.54879L14.1757 3.62488L14.3233 3.53321C15.5929 2.76321 16.6031 2.46071 17.3685 2.48088L17.5188 2.48821L17.6536 2.50379L17.7232 2.51663L17.7691 2.52671L17.9011 2.56979C18.1172 2.65913 18.291 2.82768 18.3869 3.04096C18.762 3.87669 18.8884 4.8028 18.7508 5.70846L18.7077 5.95321L18.6656 6.13288L18.7783 6.28229C19.3045 7.01104 19.6308 7.86629 19.7225 8.76371L19.7436 9.03413L19.75 9.28346C19.75 12.8172 18.2292 14.6762 15.493 15.4068L15.2684 15.4627L15.1474 15.4893L15.1602 15.6369L15.1676 15.7808L15.1712 16.1154L15.1694 16.3106L15.1667 19.8251C15.1666 20.0496 15.0842 20.2664 14.935 20.4341C14.7858 20.6019 14.5802 20.7091 14.3572 20.7354L14.25 20.7418H8.75C8.52547 20.7418 8.30877 20.6593 8.14099 20.5101C7.97321 20.3609 7.86601 20.1554 7.83975 19.9324L7.83333 19.8251V19.1523C6.16683 19.3906 5.05583 18.7636 4.06583 17.4308L3.57541 16.7286C3.31875 16.3656 3.15833 16.1979 3.0355 16.1383L2.9915 16.1209C2.76454 16.0471 2.57529 15.8878 2.46397 15.6767C2.35265 15.4656 2.32804 15.2194 2.39536 14.9905C2.46268 14.7615 2.61663 14.5679 2.8245 14.4506C3.03236 14.3334 3.27774 14.3019 3.5085 14.3627C4.097 14.535 4.493 14.8834 4.94766 15.4985L5.44083 16.2034C6.1375 17.1925 6.6875 17.5408 7.83241 17.2951L7.83333 16.6736L7.81683 16.5196C7.78976 16.2688 7.78332 16.0162 7.79758 15.7643L7.81316 15.5947L7.83058 15.4847L7.73158 15.4627C5.00358 14.8119 3.4205 13.1041 3.26283 9.83529L3.25366 9.55113L3.25 9.28346C3.25106 8.29032 3.54018 7.31882 4.08233 6.48671L4.22166 6.28321L4.3335 6.13379L4.29225 5.95413C4.12699 5.14889 4.17277 4.3146 4.42516 3.53229L4.51683 3.27379L4.614 3.04188C4.70969 2.82877 4.88314 2.66024 5.09891 2.57071L5.23091 2.52763L5.37208 2.50013Z" fill="white"/>
</g>
</svg>
