<svg width="16" height="16" viewBox="0 0 16 16" fill="none" xmlns="http://www.w3.org/2000/svg">
<path d="M11.2787 1.70703C9.92461 1.70703 8.73904 2.28933 8.00002 3.27359C7.26101 2.28933 6.07543 1.70703 4.72134 1.70703C3.64345 1.70825 2.61006 2.13697 1.84788 2.89915C1.0857 3.66133 0.656977 4.69472 0.655762 5.77261C0.655762 10.3628 7.46166 14.0782 7.7515 14.2316C7.82789 14.2727 7.91328 14.2942 8.00002 14.2942C8.08677 14.2942 8.17216 14.2727 8.24855 14.2316C8.53838 14.0782 15.3443 10.3628 15.3443 5.77261C15.3431 4.69472 14.9143 3.66133 14.1522 2.89915C13.39 2.13697 12.3566 1.70825 11.2787 1.70703ZM8.00002 13.1693C6.80265 12.4716 1.70494 9.29326 1.70494 5.77261C1.70598 4.97293 2.02411 4.2063 2.58957 3.64084C3.15503 3.07538 3.92166 2.75725 4.72134 2.75621C5.99675 2.75621 7.06756 3.43556 7.51478 4.5267C7.5543 4.62292 7.62153 4.70521 7.70794 4.76313C7.79434 4.82104 7.89601 4.85197 8.00002 4.85197C8.10404 4.85197 8.20571 4.82104 8.29211 4.76313C8.37851 4.70521 8.44575 4.62292 8.48527 4.5267C8.93248 3.43359 10.0033 2.75621 11.2787 2.75621C12.0784 2.75725 12.845 3.07538 13.4105 3.64084C13.9759 4.2063 14.2941 4.97293 14.2951 5.77261C14.2951 9.28802 9.19609 12.471 8.00002 13.1693Z" fill="#C3C3C6"/>
</svg>
