<svg width="17" height="16" viewBox="0 0 17 16" fill="none" xmlns="http://www.w3.org/2000/svg">
<path d="M15.9947 5.77261C15.9947 10.3628 9.18877 14.0782 8.89894 14.2316C8.82255 14.2727 8.73716 14.2942 8.65041 14.2942C8.56367 14.2942 8.47828 14.2727 8.40189 14.2316C8.11205 14.0782 1.30615 10.3628 1.30615 5.77261C1.30737 4.69472 1.73609 3.66133 2.49827 2.89915C3.26045 2.13697 4.29384 1.70825 5.37173 1.70703C6.72582 1.70703 7.9114 2.28933 8.65041 3.27359C9.38943 2.28933 10.575 1.70703 11.9291 1.70703C13.007 1.70825 14.0404 2.13697 14.8026 2.89915C15.5647 3.66133 15.9935 4.69472 15.9947 5.77261Z" fill="#C3C3C6"/>
</svg>
