<svg width="24" height="24" viewBox="0 0 24 24" fill="none" xmlns="http://www.w3.org/2000/svg">
<path d="M21.1802 9.21496C21.1802 14.9527 12.6729 19.5969 12.3106 19.7887C12.2151 19.8401 12.1083 19.867 11.9999 19.867C11.8915 19.867 11.7847 19.8401 11.6893 19.7887C11.327 19.5969 2.81958 14.9527 2.81958 9.21496C2.8211 7.86761 3.35701 6.57587 4.30973 5.62315C5.26246 4.67042 6.55419 4.13451 7.90155 4.133C9.59417 4.133 11.0761 4.86086 11.9999 6.09119C12.9237 4.86086 14.4056 4.133 16.0983 4.133C17.4456 4.13451 18.7374 4.67042 19.6901 5.62315C20.6428 6.57587 21.1787 7.86761 21.1802 9.21496Z" fill="white"/>
</svg>
