<svg width="421" height="113" viewBox="0 0 421 113" fill="none" xmlns="http://www.w3.org/2000/svg">
<path d="M101.139 25.7905L82.8462 1.19638C82.5656 0.814175 82.1198 0.598145 81.6575 0.598145H23.576C15.156 0.664615 9.52618 5.79947 9.52618 13.1445V28.0173H100.974C101.717 28.0173 102.146 27.1531 101.7 26.5549L101.139 25.7905Z" fill="white"/>
<path d="M418.491 0.581543H379.148V28.0007H399.24C400.924 28.0007 401.733 27.5686 402.674 26.2392L419.052 2.29316L419.25 2.01066C419.663 1.41242 419.25 0.581543 418.507 0.581543H418.491Z" fill="white"/>
<path d="M307.726 37.4727V13.1279C307.726 13.1279 307.677 8.47491 304.028 4.83565C301.684 2.50918 297.837 0.598145 291.58 0.598145H217.253C216.625 0.598145 216.097 0.980353 215.866 1.52874C215.833 1.61182 215.8 1.71153 215.783 1.81124C215.767 1.91094 215.75 2.01065 215.75 2.11035V28.0173H276.259C276.358 28.0173 276.457 28.0339 276.556 28.0671C276.622 28.0837 276.688 28.117 276.754 28.1668C276.754 28.1668 276.77 28.1668 276.787 28.1834C276.952 28.2998 277.068 28.4659 277.134 28.6653C277.15 28.7152 277.167 28.7817 277.167 28.8481C277.167 28.8814 277.167 28.9146 277.167 28.9479V49.8196C277.167 50.3181 276.754 50.7336 276.259 50.7336H246.079C245.583 50.7336 245.171 50.3181 245.171 49.8196V34.9801C245.171 34.7474 245.121 34.5314 245.039 34.3486C244.807 33.8334 244.279 33.4679 243.668 33.4679H215.75V111.172C215.75 111.272 215.75 111.388 215.783 111.471C215.8 111.571 215.833 111.671 215.866 111.754C216.014 112.103 216.278 112.385 216.625 112.535C216.823 112.618 217.038 112.684 217.253 112.684H243.668C243.899 112.684 244.114 112.634 244.296 112.535C244.626 112.368 244.906 112.103 245.055 111.754C245.088 111.671 245.121 111.571 245.138 111.471C245.154 111.371 245.171 111.272 245.171 111.172V77.6209H292.603C292.719 77.6209 292.834 77.6209 292.95 77.6209C295.839 77.5877 298.778 76.4577 301.271 74.6796C301.469 74.5301 301.667 74.3971 301.865 74.2309C302.063 74.0814 302.245 73.9152 302.443 73.7656C302.724 73.533 303.004 73.2837 303.269 73.0179C306.009 70.3756 307.825 66.8693 307.759 63.3131V37.5059L307.726 37.4727Z" fill="white"/>
<path d="M203.681 13.4935C203.318 9.28922 201.205 5.76628 198.052 3.45643C197.969 3.38996 197.887 3.3401 197.804 3.27363C197.688 3.19054 197.556 3.10746 197.424 3.02437C197.391 3.00775 197.358 2.99113 197.342 2.97451C197.061 2.79172 196.764 2.60893 196.45 2.44275C194.254 1.24628 191.679 0.564957 188.922 0.54834H125.574C121.974 0.54834 118.689 1.71157 116.13 3.70569C115.998 3.8054 115.882 3.9051 115.767 4.00481C115.585 4.15437 115.42 4.30393 115.255 4.45349C115.106 4.58643 114.958 4.73599 114.809 4.88555C112.58 7.11231 111.127 10.0869 110.83 13.5101C110.83 13.5932 110.83 13.6929 110.83 13.776V28.0339H176.061C176.193 28.0339 176.308 28.0672 176.407 28.1004C176.44 28.1004 176.457 28.117 176.49 28.1336C176.523 28.1502 176.572 28.1835 176.605 28.2167C176.82 28.3829 176.969 28.6488 176.969 28.9479V84.6503C176.969 84.8995 176.87 85.1322 176.704 85.2983C176.539 85.4645 176.308 85.5642 176.061 85.5642H138.418C138.27 85.5642 138.121 85.531 137.989 85.4479C137.989 85.4479 137.972 85.4479 137.956 85.4479C137.89 85.4147 137.824 85.3648 137.774 85.315C137.675 85.2153 137.609 85.0989 137.56 84.966C137.527 84.8663 137.51 84.7666 137.51 84.6669V34.9967C137.51 34.7641 137.461 34.548 137.378 34.3652C137.296 34.1991 137.196 34.0495 137.081 33.9332C137.048 33.9 137.015 33.8667 136.982 33.8335C136.718 33.6175 136.387 33.4845 136.024 33.4845H110.797V97.2464C110.797 98.3266 110.88 99.3735 111.078 100.387C111.078 100.437 111.094 100.487 111.111 100.537C111.144 100.736 111.194 100.936 111.243 101.118C111.243 101.185 111.276 101.251 111.293 101.318C111.342 101.501 111.392 101.683 111.441 101.85C111.458 101.933 111.491 101.999 111.507 102.082C111.59 102.365 111.689 102.647 111.804 102.913C111.986 103.378 112.184 103.827 112.415 104.276C112.465 104.375 112.531 104.492 112.58 104.591C112.646 104.708 112.712 104.841 112.778 104.957C112.828 105.04 112.878 105.14 112.927 105.223C113.208 105.688 113.521 106.153 113.852 106.586C113.951 106.718 114.066 106.868 114.182 107.001C117.071 110.557 121.529 112.751 126.317 112.684H188.212C196.533 112.801 203.83 106.104 203.731 97.2464V50.1022V23.7466V13.8092C203.731 13.7261 203.731 13.6264 203.731 13.5433L203.681 13.4935Z" fill="white"/>
<path d="M373.765 0.581543H316.955C316.774 0.581543 316.609 0.614777 316.443 0.681248C316.377 0.697866 316.311 0.7311 316.245 0.764335C315.767 1.03022 315.453 1.52875 315.453 2.11037V26.4885C315.453 27.336 316.13 28.0007 316.955 28.0007H343.437C343.553 28.0007 343.652 28.0173 343.751 28.0671C344.015 28.1668 344.213 28.3829 344.295 28.6487C344.312 28.6986 344.328 28.7651 344.328 28.8315C344.328 28.8648 344.328 28.898 344.328 28.9312V111.155C344.328 111.255 344.328 111.371 344.361 111.454C344.378 111.554 344.411 111.654 344.444 111.737C344.593 112.086 344.857 112.368 345.203 112.518C345.402 112.601 345.616 112.668 345.831 112.668H372.247C373.072 112.668 373.749 111.986 373.749 111.155V0.581543H373.765Z" fill="white"/>
<path d="M101.816 92.0284C101.816 91.7127 101.816 91.3969 101.816 91.0812C101.816 90.5993 101.766 90.134 101.733 89.6853C101.717 89.4527 101.684 89.22 101.651 88.9874C101.651 88.9375 101.651 88.8877 101.634 88.8378C101.601 88.6218 101.568 88.4058 101.535 88.1731C101.535 88.1233 101.519 88.0568 101.502 88.0069C101.469 87.8075 101.436 87.6081 101.387 87.4087C101.387 87.3588 101.37 87.309 101.354 87.2591C101.321 87.0597 101.271 86.8769 101.222 86.6775C101.222 86.6111 101.189 86.528 101.172 86.4615C101.123 86.2787 101.09 86.1125 101.04 85.9297C101.04 85.9297 101.04 85.8965 101.04 85.8799C101.023 85.7968 100.99 85.7137 100.957 85.614C100.924 85.4811 100.875 85.3481 100.825 85.1986C100.792 85.1155 100.776 85.0324 100.743 84.9327C100.677 84.7333 100.611 84.5339 100.545 84.3344C100.512 84.268 100.495 84.1849 100.462 84.1184C100.413 83.9689 100.347 83.8359 100.297 83.6864C100.264 83.6033 100.231 83.5202 100.198 83.4371C100.132 83.2709 100.066 83.1047 99.9834 82.9386C99.9504 82.8721 99.9338 82.8056 99.9008 82.7391C99.8183 82.5564 99.7357 82.3902 99.6532 82.2074C99.6202 82.1409 99.5871 82.0578 99.5541 81.9914C99.4716 81.8418 99.4055 81.6922 99.323 81.5427C99.29 81.4928 99.2735 81.4264 99.2404 81.3765C99.1414 81.1771 99.0258 80.9777 98.9267 80.7949C98.8937 80.745 98.8607 80.6786 98.8277 80.6287C98.7451 80.4792 98.6461 80.3296 98.5635 80.18C98.5305 80.1302 98.4975 80.0637 98.4645 80.0139C98.3489 79.8144 98.2168 79.6316 98.1012 79.4322C98.0847 79.399 98.0517 79.3658 98.0352 79.3159C97.9196 79.1497 97.8206 79.0002 97.705 78.834C97.672 78.7841 97.639 78.7343 97.5894 78.6844C97.4574 78.5016 97.3088 78.3022 97.1767 78.1194C97.0281 77.9366 96.8795 77.7372 96.7474 77.5544C96.6484 77.4381 96.5658 77.3218 96.4668 77.2055C96.2026 76.8897 95.955 76.5574 95.6908 76.2417C95.4597 75.9758 95.2451 75.7099 95.0139 75.444C94.8158 75.2114 94.6177 74.9953 94.4196 74.7627C94.1884 74.5134 93.9738 74.2641 93.7427 74.0149C93.429 73.6659 93.0988 73.3169 92.7686 72.968C92.554 72.7353 92.3228 72.5027 92.1082 72.27C91.6624 71.8047 91.2332 71.3561 90.7874 70.8908C90.5563 70.6581 90.3251 70.4089 90.094 70.1762C89.6317 69.7109 89.186 69.2456 88.7237 68.7637C88.0303 68.0491 87.3534 67.3346 86.66 66.6034C84.4807 64.2936 81.2613 61.0033 77.6786 57.3972C76.688 56.4002 75.6644 55.3699 74.6243 54.323C74.2116 53.9075 73.7988 53.4921 73.3861 53.0766C73.1714 52.8606 72.9568 52.6446 72.7422 52.4452C72.3295 52.0297 71.9002 51.6143 71.4874 51.1989C63.9094 43.6212 56.3315 36.1599 54.1687 34.0162C54.0531 33.8999 53.9375 33.8168 53.8055 33.7337C53.4753 33.5343 53.0955 33.418 52.6993 33.418H13.1583C12.8942 33.418 12.7621 33.7503 12.9437 33.9331L15.7173 36.7747L16.4107 37.4727L31.5007 52.9769L61.6971 83.9688C62.1759 84.4674 61.9448 85.265 61.3504 85.4644C61.2514 85.4977 61.1523 85.5143 61.0533 85.5143H1.50239C1.0071 85.5143 0.561333 85.7636 0.280667 86.1458C0.181608 86.2787 0.115569 86.4283 0.0660392 86.5778C0.0660392 86.6277 0.0330196 86.6775 0.0330196 86.7274C0.0165098 86.8271 0 86.9268 0 87.0265V111.105C0 111.105 0 111.205 0 111.255C0.0330196 111.587 0.181608 111.886 0.379725 112.119C0.412745 112.152 0.445765 112.186 0.478784 112.219C0.627373 112.352 0.80898 112.468 1.0071 112.535C1.15569 112.584 1.32078 112.618 1.48588 112.618H80.8485C86.5114 112.618 92.0422 110.441 95.9385 106.286C100.429 101.517 101.75 96.349 101.783 91.9786L101.816 92.0284Z" fill="white"/>
</svg>
