<svg width="415" height="144" viewBox="0 0 415 144" fill="none" xmlns="http://www.w3.org/2000/svg">
<g clip-path="url(#clip0_37_768)">
<path d="M100.126 54.8507L82.0339 29.6024C81.747 29.2082 81.3167 28.9829 80.8505 28.9829H23.4372C15.1175 29.0392 9.55908 34.3142 9.55908 41.8605V57.1221H99.9823C100.717 57.1221 101.148 56.2399 100.7 55.6204L100.144 54.832L100.126 54.8507Z" fill="white"/>
<path d="M413.959 29.0015H375.05V57.1407H394.917C396.567 57.1407 397.374 56.7089 398.306 55.3386L414.497 30.766L414.694 30.4845C415.107 29.865 414.694 29.0202 413.959 29.0202V29.0015Z" fill="white"/>
<path d="M304.422 66.8458V41.8603C304.422 41.8603 304.386 37.0734 300.764 33.3566C298.434 30.9725 294.65 29.0015 288.446 29.0015H214.931C214.322 29.0015 213.784 29.3957 213.551 29.9588C213.515 30.0527 213.479 30.1466 213.461 30.2592C213.443 30.3718 213.425 30.4657 213.425 30.5783V31.5545V32.7934V53.3487V54.6252V57.1595H273.259C273.367 57.1595 273.456 57.1595 273.546 57.2158C273.618 57.2346 273.672 57.2721 273.743 57.3096C273.743 57.3096 273.761 57.3096 273.779 57.3284C273.941 57.441 274.066 57.61 274.12 57.8165C274.12 57.8728 274.156 57.9291 274.156 58.0042C274.156 58.0417 274.156 58.0605 274.156 58.0981V61.5709V77.1329V79.5169C274.156 80.0425 273.761 80.4555 273.259 80.4555H243.423C242.921 80.4555 242.526 80.0425 242.526 79.5169V77.865V68.1035V64.3116C242.526 64.0863 242.473 63.8611 242.383 63.6546C242.15 63.1102 241.63 62.7535 241.038 62.7535H213.425V138.555V142.028V142.497C213.425 142.61 213.425 142.703 213.461 142.816C213.497 142.929 213.515 143.023 213.551 143.116C213.694 143.473 213.963 143.755 214.304 143.924C214.501 144.018 214.698 144.074 214.931 144.074H241.056C241.271 144.074 241.486 144.018 241.684 143.924C242.024 143.755 242.293 143.473 242.437 143.116C242.473 143.023 242.508 142.929 242.526 142.816C242.544 142.703 242.562 142.61 242.562 142.497V142.028V137.616V108.088H289.468C289.576 108.088 289.701 108.088 289.809 108.088C292.66 108.05 295.583 106.905 298.039 105.066C298.236 104.915 298.434 104.765 298.631 104.615C298.828 104.465 299.007 104.296 299.205 104.127C299.473 103.883 299.76 103.62 300.011 103.357C302.719 100.635 304.512 97.05 304.458 93.4082V66.9209L304.422 66.8458Z" fill="white"/>
<path d="M201.529 42.2359C201.17 37.9183 199.072 34.2953 195.952 31.9301C195.881 31.8737 195.791 31.8174 195.701 31.7423C195.576 31.6485 195.45 31.5734 195.325 31.4795C195.289 31.4608 195.271 31.442 195.235 31.4232C194.948 31.2355 194.661 31.0478 194.357 30.8788C192.187 29.6399 189.641 28.9453 186.915 28.9453H124.266C120.698 28.9453 117.453 30.1467 114.925 32.1741C114.799 32.268 114.674 32.3806 114.566 32.4744C114.387 32.6246 114.225 32.7748 114.064 32.925C113.921 33.0752 113.759 33.2066 113.616 33.3567C111.41 35.6469 109.976 38.7068 109.689 42.1983C109.689 42.2922 109.689 42.3861 109.689 42.4612V57.0845H174.185C174.31 57.0845 174.418 57.1033 174.525 57.1596C174.543 57.1596 174.579 57.1784 174.597 57.1972C174.633 57.2159 174.669 57.2535 174.705 57.2723C174.92 57.4412 175.063 57.704 175.063 58.0231V115.184C175.063 115.447 174.956 115.672 174.794 115.841C174.633 116.01 174.418 116.122 174.167 116.122H136.925C136.764 116.122 136.621 116.085 136.495 116.01C136.495 116.01 136.495 116.01 136.477 116.01C136.405 115.972 136.352 115.916 136.298 115.86C136.208 115.766 136.136 115.634 136.083 115.503C136.047 115.409 136.029 115.297 136.029 115.184V64.1991C136.029 63.9739 135.975 63.7486 135.885 63.5421C135.814 63.3732 135.706 63.223 135.581 63.0916C135.545 63.054 135.509 63.0165 135.473 62.9977C135.222 62.7725 134.881 62.6411 134.523 62.6411H109.563V128.08C109.563 129.188 109.653 130.258 109.85 131.309C109.85 131.365 109.868 131.422 109.886 131.478C109.922 131.684 109.976 131.891 110.012 132.079C110.012 132.154 110.048 132.21 110.066 132.285C110.119 132.473 110.155 132.661 110.209 132.83C110.227 132.905 110.263 132.98 110.281 133.074C110.37 133.355 110.46 133.637 110.568 133.918C110.747 134.388 110.944 134.857 111.159 135.307C111.213 135.42 111.267 135.533 111.321 135.627C111.392 135.758 111.446 135.889 111.518 136.002C111.572 136.096 111.625 136.19 111.679 136.284C111.966 136.772 112.253 137.222 112.594 137.673C112.701 137.823 112.809 137.954 112.916 138.104C115.785 141.765 120.178 143.999 124.912 143.943H186.126C194.357 144.055 201.565 137.185 201.475 128.099V79.7236V52.6919V42.4987C201.475 42.4987 201.475 42.311 201.475 42.2171L201.529 42.2359Z" fill="white"/>
<path d="M369.734 29.0015H313.558C313.379 29.0015 313.217 29.039 313.056 29.0953C312.984 29.1141 312.913 29.1516 312.859 29.1892C312.393 29.452 312.07 29.9776 312.07 30.5595V55.5826C312.07 56.4461 312.733 57.1407 313.558 57.1407H339.737C339.844 57.1407 339.952 57.1595 340.059 57.197C340.31 57.2909 340.508 57.5161 340.597 57.7977C340.597 57.854 340.633 57.9103 340.633 57.9854C340.633 58.023 340.633 58.0417 340.633 58.0793V138.48V141.596V142.459C340.633 142.572 340.633 142.666 340.669 142.779C340.705 142.891 340.723 142.985 340.759 143.079C340.902 143.436 341.171 143.717 341.512 143.886C341.709 143.98 341.906 144.036 342.139 144.036H368.264C369.089 144.036 369.752 143.342 369.752 142.478V29.0015H369.734Z" fill="white"/>
<path d="M100.791 122.822C100.791 122.503 100.791 122.165 100.791 121.846C100.791 121.358 100.755 120.888 100.702 120.419C100.684 120.175 100.648 119.931 100.63 119.706C100.63 119.649 100.63 119.612 100.63 119.556C100.594 119.33 100.576 119.105 100.54 118.88C100.54 118.823 100.522 118.767 100.504 118.711C100.468 118.504 100.433 118.298 100.397 118.11C100.397 118.054 100.379 118.016 100.361 117.96C100.325 117.772 100.271 117.566 100.235 117.378C100.235 117.303 100.2 117.228 100.182 117.153C100.146 116.965 100.092 116.796 100.038 116.608C100.038 116.608 100.038 116.571 100.038 116.552C100.02 116.458 99.9844 116.383 99.9664 116.289C99.9306 116.139 99.8947 116.008 99.8409 115.876C99.823 115.782 99.7871 115.688 99.7513 115.613C99.6796 115.407 99.6258 115.2 99.554 115.013C99.5361 114.938 99.5002 114.863 99.4823 114.787C99.4285 114.637 99.3747 114.487 99.3209 114.337C99.2851 114.243 99.2492 114.168 99.2313 114.093C99.1596 113.924 99.0878 113.755 99.034 113.586C98.9982 113.511 98.9803 113.455 98.9444 113.38C98.8727 113.192 98.783 113.023 98.7113 112.835C98.6754 112.76 98.6396 112.685 98.6037 112.61C98.532 112.46 98.4603 112.291 98.3706 112.141C98.3348 112.084 98.3168 112.028 98.281 111.972C98.1734 111.765 98.0658 111.577 97.9582 111.371C97.9224 111.315 97.8865 111.258 97.8686 111.202C97.7789 111.052 97.6893 110.883 97.5996 110.733C97.5638 110.676 97.5279 110.62 97.51 110.564C97.3845 110.357 97.2769 110.17 97.1514 109.963C97.1334 109.925 97.0976 109.888 97.0796 109.85C96.972 109.681 96.8645 109.513 96.7569 109.362C96.721 109.306 96.6852 109.25 96.6493 109.193C96.5238 109.006 96.3803 108.799 96.2369 108.611C96.0935 108.424 95.95 108.236 95.8066 108.03C95.7169 107.898 95.6273 107.785 95.5376 107.673C95.2866 107.335 95.0176 107.016 94.7666 106.697C94.5514 106.415 94.3183 106.152 94.1032 105.871C93.9059 105.627 93.7087 105.401 93.5115 105.176C93.2963 104.913 93.0632 104.651 92.848 104.407C92.5253 104.05 92.2205 103.693 91.8977 103.337C91.6826 103.092 91.4674 102.848 91.2343 102.623C90.804 102.154 90.3557 101.685 89.9254 101.215C89.6923 100.971 89.4592 100.727 89.244 100.483C88.7958 99.9951 88.3475 99.5258 87.8992 99.0377C87.2179 98.3056 86.5365 97.5735 85.8552 96.8226C83.7035 94.4574 80.5119 91.0784 76.9617 87.3616C75.9755 86.3291 74.9714 85.2779 73.9314 84.2079C73.519 83.7761 73.1066 83.3631 72.6942 82.9314C72.4791 82.7061 72.2639 82.4996 72.0667 82.2743C71.6543 81.8426 71.2419 81.4108 70.8295 80.9978C63.3345 73.2262 55.8396 65.5673 53.7059 63.3709C53.5983 63.2583 53.4728 63.1644 53.3473 63.0706C53.0245 62.8641 52.648 62.7515 52.2535 62.7515H13.1114C12.8424 62.7515 12.7169 63.0894 12.8962 63.2771L15.6396 66.1867L16.3209 66.9001L31.257 82.8L61.1112 114.618C61.5953 115.125 61.3622 115.951 60.7705 116.158C60.6808 116.195 60.5733 116.214 60.4657 116.214H1.60004C1.09799 116.214 0.66766 116.477 0.398703 116.852C0.309051 116.984 0.237329 117.134 0.183538 117.303C0.183538 117.359 0.165608 117.397 0.147677 117.453C0.129747 117.547 0.111816 117.66 0.111816 117.772V140.261V142.476C0.111816 142.476 0.111816 142.589 0.111816 142.626C0.147677 142.964 0.291121 143.283 0.488356 143.509C0.524217 143.546 0.560077 143.584 0.595938 143.621C0.739382 143.771 0.918686 143.865 1.11592 143.94C1.25936 143.997 1.42074 144.015 1.60004 144.015H80.0816C85.6759 144.015 91.1447 141.782 94.9997 137.52C99.4464 132.621 100.755 127.327 100.791 122.841V122.822Z" fill="white"/>
<path d="M2.12003 10.2682C1.56418 10.2682 1.09799 10.0617 0.703521 9.64872C0.309051 9.23574 0.111816 8.74767 0.111816 8.16574V7.22714H2.20968V8.0531H7.76811V6.26976H2.12003C1.56418 6.26976 1.09799 6.06327 0.703521 5.65029C0.309051 5.2373 0.111816 4.74923 0.111816 4.1673V2.19624C0.111816 1.61431 0.309051 1.12624 0.703521 0.713253C1.09799 0.300269 1.56418 0.112549 2.12003 0.112549H7.89363C8.43154 0.112549 8.91566 0.319041 9.31013 0.732025C9.7046 1.14501 9.90184 1.63308 9.90184 2.21501V3.15361H7.76811V2.32764H2.20968V4.11098H7.8757C8.41361 4.11098 8.89773 4.31748 9.2922 4.73046C9.68667 5.14344 9.88391 5.63152 9.88391 6.21345V8.22205C9.88391 8.80398 9.68667 9.29206 9.2922 9.70504C8.89773 10.118 8.41361 10.3245 7.8757 10.3245H2.12003V10.2682Z" fill="white"/>
<path d="M7.88939 10.3809H2.11579C1.54202 10.3809 1.03997 10.1557 0.627565 9.74267C0.215165 9.31091 0 8.7853 0 8.18459V7.13336H2.31303V7.95933H7.6563V6.40125H2.11579C1.54202 6.40125 1.03997 6.17599 0.627565 5.763C0.215165 5.33125 0 4.80563 0 4.20493V2.19632C0 1.59562 0.215165 1.07 0.627565 0.638248C1.03997 0.206492 1.54202 0 2.11579 0H7.88939C8.46317 0 8.96522 0.225264 9.37762 0.638248C9.79002 1.07 10.0052 1.59562 10.0052 2.19632V3.24756H7.67423V2.42159H2.31303V3.97966H7.88939C8.46317 3.97966 8.96522 4.20493 9.37762 4.61791C9.79002 5.04967 10.0052 5.57528 10.0052 6.17599V8.18459C10.0052 8.7853 9.79002 9.31091 9.37762 9.74267C8.96522 10.1744 8.46317 10.3809 7.88939 10.3809ZM0.197235 7.33985V8.18459C0.197235 8.72898 0.39447 9.19828 0.753078 9.59249C1.12962 9.9867 1.57788 10.1744 2.09786 10.1744H7.87146C8.39144 10.1744 8.83971 9.9867 9.21624 9.59249C9.59278 9.19828 9.79002 8.72898 9.79002 8.18459V6.17599C9.79002 5.6316 9.59278 5.1623 9.21624 4.76809C8.83971 4.37388 8.39144 4.18616 7.87146 4.18616H2.11579V2.19632H7.87146V3.02229H9.80795V2.17755C9.80795 1.63316 9.61071 1.16386 9.23418 0.769652C8.85764 0.37544 8.40938 0.18772 7.88939 0.18772H2.11579C1.59581 0.206492 1.12962 0.412984 0.771009 0.788424C0.39447 1.18264 0.197235 1.65194 0.197235 2.19632V4.20493C0.197235 4.74932 0.39447 5.21862 0.753078 5.61283C1.12962 6.00704 1.57788 6.19476 2.09786 6.19476H7.85353V8.18459H2.11579V7.35862H0.197235V7.33985Z" fill="white"/>
<path d="M17.665 10.2682V0.112549H19.7808V4.09221H25.5544V0.112549H27.6702V10.2682H25.5544V6.28854H19.7808V10.2682H17.665Z" fill="white"/>
<path d="M27.7742 10.3809H25.4612V6.40125H19.8848V10.3809H17.5718V0H19.8848V3.97966H25.4612V0H27.7742V10.3809ZM25.6584 10.1744H27.559V0.206492H25.6584V4.18616H19.6696V0.206492H17.769V10.1744H19.6696V6.17599H25.6584V10.1557V10.1744Z" fill="white"/>
<path d="M37.4765 10.2682C36.9206 10.2682 36.4544 10.0617 36.06 9.64869C35.6655 9.23571 35.4683 8.74764 35.4683 8.16571V2.19621C35.4683 1.61428 35.6655 1.12621 36.06 0.713226C36.4544 0.300242 36.9206 0.09375 37.4765 0.09375H43.2501C43.788 0.09375 44.2721 0.300242 44.6666 0.713226C45.061 1.12621 45.2583 1.61428 45.2583 2.19621V8.18448C45.2583 8.76641 45.061 9.25448 44.6666 9.66747C44.2721 10.0805 43.788 10.2869 43.2501 10.2869H37.4765V10.2682ZM38.0144 8.07185H43.1246V2.30885H37.5661V8.07185H38.0144Z" fill="white"/>
<path d="M43.2458 10.3809H37.4722C36.8985 10.3809 36.3964 10.1557 35.984 9.74267C35.5716 9.31091 35.3564 8.7853 35.3564 8.18459V2.19632C35.3564 1.59562 35.5716 1.07 35.984 0.638248C36.3964 0.206492 36.8985 0 37.4722 0H43.2458C43.8196 0 44.3217 0.225264 44.7341 0.638248C45.1465 1.07 45.3616 1.59562 45.3616 2.19632V8.18459C45.3616 8.7853 45.1465 9.31091 44.7341 9.74267C44.3217 10.1744 43.8196 10.3809 43.2458 10.3809ZM37.4722 0.206492C36.9523 0.206492 36.4861 0.394212 36.1275 0.788424C35.7509 1.18264 35.5716 1.65194 35.5716 2.19632V8.18459C35.5716 8.72898 35.7688 9.19828 36.1275 9.59249C36.504 9.9867 36.9523 10.1744 37.4722 10.1744H43.2458C43.7658 10.1744 44.2141 9.9867 44.5906 9.59249C44.9672 9.19828 45.1644 8.72898 45.1644 8.18459V2.19632C45.1644 1.65194 44.9672 1.18264 44.5906 0.788424C44.2141 0.394212 43.7658 0.206492 43.2458 0.206492H37.4722ZM43.2279 8.16582H37.4722V2.19632H43.2279V8.16582ZM37.6695 7.95933H43.0127V2.42159H37.6695V7.9781V7.95933Z" fill="white"/>
<path d="M55.0014 10.2682C54.4455 10.2682 53.9793 10.0617 53.5849 9.64872C53.1904 9.23574 52.9932 8.74767 52.9932 8.16574V0.112549H55.109V8.07188H60.6674V0.112549H62.8011V8.18451C62.8011 8.76644 62.6039 9.25451 62.2094 9.6675C61.8149 10.0805 61.3308 10.287 60.7929 10.287H55.0193L55.0014 10.2682Z" fill="white"/>
<path d="M60.7707 10.3809H54.9971C54.4234 10.3809 53.9213 10.1557 53.5089 9.74267C53.0965 9.31091 52.8813 8.7853 52.8813 8.18459V0H55.1944V7.95933H60.5376V0H62.8686V8.18459C62.8686 8.7853 62.6534 9.31091 62.241 9.74267C61.8286 10.1744 61.3266 10.3809 60.7528 10.3809H60.7707ZM53.0965 0.206492V8.18459C53.0965 8.72898 53.2937 9.19828 53.6524 9.59249C54.0289 9.9867 54.4772 10.1744 54.9971 10.1744H60.7707C61.2907 10.1744 61.739 9.9867 62.1155 9.59249C62.4921 9.19828 62.6893 8.72898 62.6893 8.18459V0.206492H60.7528V8.16582H54.9971V0.206492H53.0965Z" fill="white"/>
<path d="M73.8981 10.2682V2.30887H70.061V0.112549H79.8511V2.30887H76.0139V10.2682H73.8981Z" fill="white"/>
<path d="M76.1173 10.3809H73.7863V2.42159H69.9492V0H79.9544V2.42159H76.1173V10.3809ZM74.0015 10.1744H75.9201V2.19632H79.7572V0.206492H70.1644V2.19632H74.0015V10.1744Z" fill="white"/>
<path d="M99.7489 10.2682C99.1931 10.2682 98.7269 10.0617 98.3324 9.64869C97.938 9.23571 97.7407 8.74764 97.7407 8.16571V2.19621C97.7407 1.61428 97.938 1.12621 98.3324 0.713226C98.7269 0.300242 99.1931 0.09375 99.7489 0.09375H105.523C106.06 0.09375 106.545 0.300242 106.939 0.713226C107.334 1.12621 107.531 1.61428 107.531 2.19621V8.18448C107.531 8.76641 107.334 9.25448 106.939 9.66747C106.545 10.0805 106.06 10.2869 105.523 10.2869H99.7489V10.2682ZM100.287 8.07185H105.397V2.30885H99.8386V8.07185H100.287Z" fill="white"/>
<path d="M105.518 10.3809H99.7447C99.1709 10.3809 98.6689 10.1557 98.2565 9.74267C97.8441 9.31091 97.6289 8.7853 97.6289 8.18459V2.19632C97.6289 1.59562 97.8441 1.07 98.2565 0.638248C98.6689 0.206492 99.1709 0 99.7447 0H105.518C106.092 0 106.594 0.225264 107.007 0.638248C107.419 1.07 107.634 1.59562 107.634 2.19632V8.18459C107.634 8.7853 107.419 9.31091 107.007 9.74267C106.594 10.1744 106.092 10.3809 105.518 10.3809ZM99.7447 0.206492C99.2247 0.206492 98.7585 0.394212 98.3999 0.788424C98.0234 1.18264 97.8441 1.65194 97.8441 2.19632V8.18459C97.8441 8.72898 98.0413 9.19828 98.3999 9.59249C98.7765 9.9867 99.2247 10.1744 99.7447 10.1744H105.518C106.038 10.1744 106.487 9.9867 106.863 9.59249C107.24 9.19828 107.437 8.72898 107.437 8.18459V2.19632C107.437 1.65194 107.24 1.18264 106.863 0.788424C106.487 0.394212 106.038 0.206492 105.518 0.206492H99.7447ZM105.5 8.16582H99.7447V2.19632H105.5V8.16582ZM99.9419 7.95933H105.285V2.42159H99.9419V7.9781V7.95933Z" fill="white"/>
<path d="M117.273 10.2682C116.718 10.2682 116.251 10.0617 115.857 9.64872C115.462 9.23574 115.265 8.74767 115.265 8.16574V0.112549H117.381V8.07188H122.939V0.112549H125.073V8.18451C125.073 8.76644 124.876 9.25451 124.481 9.6675C124.087 10.0805 123.603 10.287 123.065 10.287H117.291L117.273 10.2682Z" fill="white"/>
<path d="M123.043 10.3809H117.269C116.695 10.3809 116.193 10.1557 115.781 9.74267C115.368 9.31091 115.153 8.7853 115.153 8.18459V0H117.466V7.95933H122.81V0H125.141V8.18459C125.141 8.7853 124.925 9.31091 124.513 9.74267C124.101 10.1744 123.599 10.3809 123.025 10.3809H123.043ZM115.368 0.206492V8.18459C115.368 8.72898 115.566 9.19828 115.924 9.59249C116.301 9.9867 116.749 10.1744 117.269 10.1744H123.043C123.563 10.1744 124.011 9.9867 124.387 9.59249C124.764 9.19828 124.961 8.72898 124.961 8.18459V0.206492H123.025V8.16582H117.269V0.206492H115.368Z" fill="white"/>
<path d="M132.799 10.2682V0.112549H140.563C141.119 0.112549 141.585 0.319041 141.998 0.732025C142.392 1.14501 142.589 1.63308 142.589 2.19624V4.82432C142.589 5.38748 142.392 5.87555 141.998 6.28854C141.603 6.70152 141.119 6.90801 140.563 6.90801H140.474L142.589 9.49855V10.2494H140.42L137.712 6.90801H134.915V10.2494H132.799V10.2682ZM135.363 4.71169H140.474V2.30887H134.915V4.73046H135.363V4.71169Z" fill="white"/>
<path d="M142.693 10.3809H140.362L137.654 7.0395H135.001V10.3809H132.688V0H140.559C141.133 0 141.635 0.225264 142.065 0.65702C142.478 1.08878 142.693 1.61439 142.693 2.19632V4.8244C142.693 5.42511 142.478 5.93195 142.065 6.36371C141.671 6.75792 141.222 6.98318 140.684 7.02073L142.693 9.47986V10.3809ZM140.469 10.1744H142.495V9.57372L140.254 6.83301H140.577C141.097 6.83301 141.563 6.62652 141.94 6.25108C142.316 5.85686 142.513 5.38756 142.513 4.86195V2.2151C142.513 1.68948 142.316 1.22018 141.94 0.825968C141.563 0.431756 141.097 0.244036 140.577 0.244036H132.903V10.1744H134.803V6.85178H137.762L140.469 10.1744ZM140.559 4.84318H134.803V2.19632H140.559V4.8244V4.84318ZM135.001 4.63668H140.344V2.42159H135.001V4.61791V4.63668Z" fill="white"/>
<path d="M160.916 10.2682V0.112549H168.68C169.236 0.112549 169.702 0.319041 170.115 0.732025C170.509 1.14501 170.706 1.63308 170.706 2.19624V4.82432C170.706 5.38748 170.509 5.87555 170.115 6.28854C169.72 6.70152 169.236 6.90801 168.68 6.90801H163.014V10.2494H160.898L160.916 10.2682ZM163.48 4.71169H168.591V2.30887H163.032V4.73046H163.48V4.71169Z" fill="white"/>
<path d="M163.127 10.3809H160.814V0H168.686C169.26 0 169.762 0.225264 170.192 0.65702C170.604 1.08878 170.82 1.61439 170.82 2.19632V4.8244C170.82 5.42511 170.604 5.93195 170.192 6.36371C169.78 6.79546 169.278 7.02073 168.686 7.02073H163.127V10.3621V10.3809ZM161.012 10.1744H162.912V6.85178H168.668C169.188 6.85178 169.654 6.64529 170.031 6.25108C170.407 5.85686 170.604 5.38756 170.604 4.86195V2.2151C170.604 1.68948 170.407 1.22018 170.031 0.825968C169.654 0.431756 169.188 0.244036 168.668 0.244036H160.994V10.1744H161.012ZM168.668 4.84318H162.912V2.19632H168.668V4.8244V4.84318ZM163.11 4.63668H168.453V2.42159H163.11V4.61791V4.63668Z" fill="white"/>
<path d="M178.124 10.2682V2.19621C178.124 1.61428 178.321 1.12621 178.716 0.713226C179.11 0.300242 179.576 0.09375 180.132 0.09375H185.888C186.444 0.09375 186.91 0.300242 187.322 0.713226C187.717 1.12621 187.914 1.61428 187.914 2.19621V10.2682H185.78V7.00185H180.222V10.2682H178.106H178.124ZM180.24 4.78675H185.798V2.30885H180.24V4.78675Z" fill="white"/>
<path d="M188.019 10.3809H185.688V7.11459H180.344V10.3809H178.031V2.19632C178.031 1.59562 178.246 1.07 178.659 0.638248C179.071 0.206492 179.573 0 180.147 0H185.903C186.476 0 186.979 0.225264 187.409 0.638248C187.821 1.07 188.036 1.59562 188.036 2.19632V10.3809H188.019ZM185.885 10.1744H187.821V2.19632C187.821 1.65194 187.624 1.18264 187.247 0.788424C186.871 0.394212 186.405 0.206492 185.885 0.206492H180.129C179.609 0.206492 179.143 0.394212 178.784 0.788424C178.408 1.18264 178.228 1.65194 178.228 2.19632V10.1744H180.129V6.9081H185.885V10.1744ZM185.885 4.89949H180.129V2.19632H185.885V4.89949ZM180.326 4.693H185.67V2.42159H180.326V4.693Z" fill="white"/>
<path d="M197.704 10.2682C197.148 10.2682 196.682 10.0617 196.288 9.6487C195.893 9.23571 195.696 8.74764 195.696 8.16571V7.22711H197.812V8.05308H203.37V6.26974H197.722C197.166 6.26974 196.7 6.06325 196.305 5.65026C195.911 5.23728 195.714 4.74921 195.714 4.16727V2.19621C195.714 1.61428 195.911 1.12621 196.305 0.713226C196.7 0.300242 197.166 0.09375 197.722 0.09375H203.496C204.033 0.09375 204.518 0.300242 204.912 0.713226C205.307 1.12621 205.504 1.61428 205.504 2.19621V3.13481H203.37V2.30885H197.812V4.09219H203.478C204.016 4.09219 204.5 4.29868 204.894 4.71166C205.289 5.12465 205.486 5.61272 205.486 6.19465V8.20325C205.486 8.78518 205.289 9.27326 204.894 9.68624C204.5 10.0992 204.016 10.3057 203.478 10.3057H197.704V10.2682Z" fill="white"/>
<path d="M203.473 10.3809H197.7C197.126 10.3809 196.624 10.1557 196.212 9.74267C195.799 9.31091 195.584 8.7853 195.584 8.18459V7.13336H197.897V7.95933H203.24V6.40125H197.7C197.126 6.40125 196.624 6.17599 196.212 5.763C195.799 5.33125 195.584 4.80563 195.584 4.20493V2.19632C195.584 1.59562 195.799 1.07 196.212 0.638248C196.624 0.206492 197.126 0 197.7 0H203.473C204.047 0 204.549 0.225264 204.962 0.638248C205.374 1.07 205.589 1.59562 205.589 2.19632V3.24756H203.258V2.42159H197.915V3.97966H203.491C204.065 3.97966 204.567 4.20493 204.98 4.61791C205.392 5.04967 205.607 5.57528 205.607 6.17599V8.18459C205.607 8.7853 205.392 9.31091 204.98 9.74267C204.567 10.1744 204.065 10.3809 203.491 10.3809H203.473ZM195.799 7.33985V8.18459C195.799 8.72898 195.996 9.19828 196.355 9.59249C196.732 9.9867 197.18 10.1744 197.7 10.1744H203.473C203.993 10.1744 204.442 9.9867 204.818 9.59249C205.195 9.19828 205.392 8.72898 205.392 8.18459V6.17599C205.392 5.6316 205.195 5.1623 204.818 4.76809C204.442 4.37388 203.993 4.18616 203.473 4.18616H197.7V2.19632H203.455V3.02229H205.392V2.17755C205.392 1.63316 205.195 1.16386 204.818 0.769652C204.442 0.37544 203.993 0.18772 203.473 0.18772H197.7C197.18 0.18772 196.714 0.37544 196.355 0.769652C195.978 1.16386 195.799 1.63316 195.799 2.17755V4.18616C195.799 4.73054 195.996 5.19984 196.355 5.59406C196.732 5.98827 197.18 6.17599 197.7 6.17599H203.455V8.16582H197.7V7.33985H195.799Z" fill="white"/>
<path d="M215.238 10.2682C214.682 10.2682 214.216 10.0617 213.821 9.6487C213.427 9.23571 213.229 8.74764 213.229 8.16571V7.22711H215.345V8.05308H220.904V6.26974H215.256C214.7 6.26974 214.234 6.06325 213.839 5.65026C213.445 5.23728 213.247 4.74921 213.247 4.16727V2.19621C213.247 1.61428 213.445 1.12621 213.839 0.713226C214.234 0.300242 214.7 0.09375 215.256 0.09375H221.029C221.567 0.09375 222.051 0.300242 222.446 0.713226C222.84 1.12621 223.037 1.61428 223.037 2.19621V3.13481H220.904V2.30885H215.345V4.09219H221.011C221.549 4.09219 222.033 4.29868 222.428 4.71166C222.822 5.12465 223.02 5.61272 223.02 6.19465V8.20325C223.02 8.78518 222.822 9.27326 222.428 9.68624C222.033 10.0992 221.549 10.3057 221.011 10.3057H215.238V10.2682Z" fill="white"/>
<path d="M220.989 10.3809H215.215C214.641 10.3809 214.139 10.1557 213.727 9.74267C213.314 9.31091 213.099 8.7853 213.099 8.18459V7.13336H215.412V7.95933H220.755V6.40125H215.215C214.641 6.40125 214.139 6.17599 213.727 5.763C213.314 5.33125 213.099 4.80563 213.099 4.20493V2.19632C213.099 1.59562 213.314 1.07 213.727 0.638248C214.139 0.206492 214.641 0 215.215 0H220.989C221.562 0 222.064 0.225264 222.477 0.638248C222.889 1.07 223.104 1.59562 223.104 2.19632V3.24756H220.773V2.42159H215.43V3.97966H221.006C221.58 3.97966 222.082 4.20493 222.495 4.61791C222.907 5.04967 223.122 5.57528 223.122 6.17599V8.18459C223.122 8.7853 222.907 9.31091 222.495 9.74267C222.082 10.1744 221.58 10.3809 221.006 10.3809H220.989ZM213.314 7.33985V8.18459C213.314 8.72898 213.512 9.19828 213.87 9.59249C214.247 9.9867 214.695 10.1744 215.215 10.1744H220.989C221.508 10.1744 221.957 9.9867 222.333 9.59249C222.71 9.19828 222.907 8.72898 222.907 8.18459V6.17599C222.907 5.6316 222.71 5.1623 222.333 4.76809C221.957 4.37388 221.508 4.18616 220.989 4.18616H215.215V2.19632H220.971V3.02229H222.907V2.17755C222.907 1.63316 222.71 1.16386 222.333 0.769652C221.957 0.37544 221.508 0.18772 220.989 0.18772H215.215C214.695 0.18772 214.229 0.37544 213.87 0.769652C213.494 1.16386 213.314 1.63316 213.314 2.17755V4.18616C213.314 4.73054 213.512 5.19984 213.87 5.59406C214.247 5.98827 214.695 6.17599 215.215 6.17599H220.971V8.16582H215.215V7.33985H213.314Z" fill="white"/>
<path d="M230.717 10.2682V0.112549H232.797V10.2682H230.717Z" fill="white"/>
<path d="M232.901 10.3809H230.624V0H232.901V10.3809ZM230.821 10.1744H232.704V0.206492H230.821V10.1744Z" fill="white"/>
<path d="M241.922 10.2682C241.366 10.2682 240.9 10.0617 240.505 9.64869C240.111 9.23571 239.914 8.74764 239.914 8.16571V2.19621C239.914 1.61428 240.111 1.12621 240.505 0.713226C240.9 0.300242 241.366 0.09375 241.922 0.09375H247.695C248.233 0.09375 248.717 0.300242 249.112 0.713226C249.506 1.12621 249.704 1.61428 249.704 2.19621V8.18448C249.704 8.76641 249.506 9.25448 249.112 9.66747C248.717 10.0805 248.233 10.2869 247.695 10.2869H241.922V10.2682ZM242.46 8.07185H247.57V2.30885H242.011V8.07185H242.46Z" fill="white"/>
<path d="M247.691 10.3809H241.918C241.344 10.3809 240.842 10.1557 240.429 9.74267C240.017 9.31091 239.802 8.7853 239.802 8.18459V2.19632C239.802 1.59562 240.017 1.07 240.429 0.638248C240.842 0.206492 241.344 0 241.918 0H247.691C248.265 0 248.767 0.225264 249.179 0.638248C249.592 1.07 249.807 1.59562 249.807 2.19632V8.18459C249.807 8.7853 249.592 9.31091 249.179 9.74267C248.767 10.1744 248.265 10.3809 247.691 10.3809ZM241.918 0.206492C241.398 0.206492 240.931 0.394212 240.573 0.788424C240.196 1.18264 240.017 1.65194 240.017 2.19632V8.18459C240.017 8.72898 240.214 9.19828 240.573 9.59249C240.949 9.9867 241.398 10.1744 241.918 10.1744H247.691C248.211 10.1744 248.659 9.9867 249.036 9.59249C249.412 9.19828 249.61 8.72898 249.61 8.18459V2.19632C249.61 1.65194 249.412 1.18264 249.036 0.788424C248.659 0.394212 248.211 0.206492 247.691 0.206492H241.918ZM247.673 8.16582H241.918V2.19632H247.673V8.16582ZM242.115 7.95933H247.458V2.42159H242.115V7.9781V7.95933Z" fill="white"/>
<path d="M257.465 10.2682V0.112549H259.635L265.122 6.88924V0.112549H267.255V10.2682H265.086L259.581 3.45396V10.2682H257.465Z" fill="white"/>
<path d="M267.359 10.3809H265.028L259.667 3.7544V10.3809H257.354V0H259.684L265.028 6.58897V0H267.359V10.3809ZM265.135 10.1744H267.161V0.206492H265.225V7.1709L259.595 0.206492H257.569V10.1744H259.469V3.17247L265.135 10.1557V10.1744Z" fill="white"/>
<path d="M289.029 10.2682V2.30887H285.191V0.112549H294.981V2.30887H291.144V10.2682H289.029Z" fill="white"/>
<path d="M291.248 10.3809H288.917V2.42159H285.08V0H295.085V2.42159H291.248V10.3809ZM289.132 10.1744H291.05V2.19632H294.888V0.206492H285.295V2.19632H289.132V10.1744Z" fill="white"/>
<path d="M304.248 10.2682C303.692 10.2682 303.226 10.0617 302.831 9.64869C302.437 9.23571 302.24 8.74764 302.24 8.16571V2.19621C302.24 1.61428 302.437 1.12621 302.831 0.713226C303.226 0.300242 303.692 0.09375 304.248 0.09375H310.022C310.559 0.09375 311.044 0.300242 311.438 0.713226C311.833 1.12621 312.03 1.61428 312.03 2.19621V8.18448C312.03 8.76641 311.833 9.25448 311.438 9.66747C311.044 10.0805 310.559 10.2869 310.022 10.2869H304.248V10.2682ZM304.786 8.07185H309.896V2.30885H304.338V8.07185H304.786Z" fill="white"/>
<path d="M310.017 10.3809H304.244C303.67 10.3809 303.168 10.1557 302.756 9.74267C302.343 9.31091 302.128 8.7853 302.128 8.18459V2.19632C302.128 1.59562 302.343 1.07 302.756 0.638248C303.168 0.206492 303.67 0 304.244 0H310.017C310.591 0 311.093 0.225264 311.506 0.638248C311.918 1.07 312.133 1.59562 312.133 2.19632V8.18459C312.133 8.7853 311.918 9.31091 311.506 9.74267C311.093 10.1744 310.591 10.3809 310.017 10.3809ZM304.244 0.206492C303.724 0.206492 303.258 0.394212 302.899 0.788424C302.522 1.18264 302.343 1.65194 302.343 2.19632V8.18459C302.343 8.72898 302.54 9.19828 302.899 9.59249C303.275 9.9867 303.724 10.1744 304.244 10.1744H310.017C310.537 10.1744 310.986 9.9867 311.362 9.59249C311.739 9.19828 311.936 8.72898 311.936 8.18459V2.19632C311.936 1.65194 311.739 1.18264 311.362 0.788424C310.986 0.394212 310.537 0.206492 310.017 0.206492H304.244ZM309.999 8.16582H304.244V2.19632H309.999V8.16582ZM304.441 7.95933H309.784V2.42159H304.441V7.9781V7.95933Z" fill="white"/>
<path d="M321.802 10.2682C321.246 10.2682 320.78 10.0617 320.385 9.6487C319.991 9.23571 319.793 8.74764 319.793 8.16571V2.19621C319.793 1.61428 319.991 1.12621 320.385 0.713226C320.78 0.300242 321.246 0.09375 321.802 0.09375H327.557C328.113 0.09375 328.579 0.300242 328.992 0.713226C329.386 1.12621 329.583 1.61428 329.583 2.19621V3.15359H327.45V2.30885H321.891V8.07185H327.45V6.55132H325.334V4.35499H329.601V8.20325C329.601 8.78518 329.404 9.27326 329.01 9.68624C328.615 10.0992 328.131 10.3057 327.575 10.3057H321.82L321.802 10.2682Z" fill="white"/>
<path d="M327.553 10.3809H321.797C321.224 10.3809 320.722 10.1557 320.309 9.74267C319.897 9.31091 319.682 8.7853 319.682 8.18459V2.19632C319.682 1.59562 319.897 1.07 320.309 0.638248C320.722 0.206492 321.224 0 321.797 0H327.553C328.127 0 328.629 0.225264 329.059 0.638248C329.472 1.07 329.687 1.59562 329.687 2.19632V3.26633H327.356V2.42159H322.013V7.9781H327.356V6.66406H325.24V4.24247H329.705V8.18459C329.705 8.7853 329.49 9.31091 329.077 9.74267C328.665 10.1744 328.163 10.3809 327.571 10.3809H327.553ZM321.797 0.206492C321.277 0.206492 320.811 0.394212 320.453 0.788424C320.076 1.18264 319.897 1.65194 319.897 2.19632V8.18459C319.897 8.72898 320.094 9.19828 320.453 9.59249C320.829 9.9867 321.277 10.1744 321.797 10.1744H327.553C328.073 10.1744 328.539 9.9867 328.916 9.59249C329.292 9.19828 329.49 8.72898 329.49 8.18459V4.44896H325.437V6.4388H327.553V8.18459H321.797V2.19632H327.553V3.04106H329.49V2.17755C329.49 1.63316 329.292 1.16386 328.916 0.769652C328.539 0.37544 328.073 0.18772 327.553 0.18772H321.797V0.206492Z" fill="white"/>
<path d="M337.366 10.2682V0.112549H346.421V2.30887H339.517V4.09221H345.076V6.28854H339.517V8.07188H346.421V10.2682H337.366Z" fill="white"/>
<path d="M346.506 10.3809H337.254V0H346.506V2.42159H339.603V3.97966H345.161V6.40125H339.603V7.95933H346.506V10.3809ZM337.451 10.1744H346.291V8.18459H339.388V6.19476H344.946V4.20493H339.388V2.19632H346.291V0.206492H337.451V10.1744Z" fill="white"/>
<path d="M357.384 10.2682V2.30887H353.547V0.112549H363.337V2.30887H359.5V10.2682H357.384Z" fill="white"/>
<path d="M359.604 10.3809H357.273V2.42159H353.436V0H363.441V2.42159H359.604V10.3809ZM357.488 10.1744H359.406V2.19632H363.243V0.206492H353.651V2.19632H357.488V10.1744Z" fill="white"/>
<path d="M370.616 10.2682V0.112549H372.732V4.09221H378.505V0.112549H380.621V10.2682H378.505V6.28854H372.732V10.2682H370.616Z" fill="white"/>
<path d="M380.706 10.3809H378.393V6.40125H372.817V10.3809H370.504V0H372.817V3.97966H378.393V0H380.706V10.3809ZM378.591 10.1744H380.491V0.206492H378.591V4.18616H372.602V0.206492H370.701V10.1744H372.602V6.17599H378.591V10.1557V10.1744Z" fill="white"/>
<path d="M388.467 10.2682V0.112549H397.522V2.30887H390.619V4.09221H396.177V6.28854H390.619V8.07188H397.522V10.2682H388.467Z" fill="white"/>
<path d="M397.608 10.3809H388.355V0H397.608V2.42159H390.704V3.97966H396.263V6.40125H390.704V7.95933H397.608V10.3809ZM388.553 10.1744H397.392V8.18459H390.489V6.19476H396.048V4.20493H390.489V2.19632H397.392V0.206492H388.553V10.1744Z" fill="white"/>
<path d="M405.106 10.2682V0.112549H412.87C413.426 0.112549 413.892 0.319041 414.305 0.732025C414.699 1.14501 414.896 1.63308 414.896 2.19624V4.82432C414.896 5.38748 414.699 5.87555 414.305 6.28854C413.91 6.70152 413.426 6.90801 412.87 6.90801H412.781L414.896 9.49855V10.2494H412.727L410.019 6.90801H407.222V10.2494H405.106V10.2682ZM407.671 4.71169H412.781V2.30887H407.222V4.73046H407.671V4.71169Z" fill="white"/>
<path d="M415 10.3809H412.669L409.961 7.0395H407.308V10.3809H404.995V0H412.866C413.44 0 413.942 0.225264 414.372 0.65702C414.785 1.08878 415 1.61439 415 2.19632V4.8244C415 5.42511 414.785 5.93195 414.372 6.36371C413.978 6.75792 413.53 6.98318 412.992 7.02073L415 9.47986V10.3809ZM412.776 10.1744H414.803V9.57372L412.561 6.83301H412.884C413.404 6.83301 413.87 6.62652 414.247 6.25108C414.623 5.85686 414.821 5.38756 414.821 4.86195V2.2151C414.821 1.68948 414.623 1.22018 414.247 0.825968C413.87 0.431756 413.404 0.244036 412.884 0.244036H405.21V10.1744H407.11V6.85178H410.069L412.776 10.1744ZM412.866 4.84318H407.11V2.19632H412.866V4.8244V4.84318ZM407.308 4.63668H412.651V2.42159H407.308V4.61791V4.63668Z" fill="white"/>
</g>
<defs>
<clipPath id="clip0_37_768">
<rect width="415" height="144" fill="white"/>
</clipPath>
</defs>
</svg>
