<svg width="31" height="31" viewBox="0 0 31 31" fill="none" xmlns="http://www.w3.org/2000/svg">
<g id="github_logo">
<path id="Vector" d="M16.3606 23.1461H12.918V12.8182H16.3606V14.5395C17.0944 13.6059 18.2072 13.0494 19.3944 13.0222C21.5293 13.0341 23.252 14.7714 23.2458 16.9063V23.1461H19.8032V17.3367C19.6655 16.375 18.8408 15.6615 17.8693 15.6636C17.4444 15.677 17.0433 15.8631 16.7586 16.1787C16.4738 16.4945 16.3301 16.9126 16.3606 17.3367V23.1461ZM11.1967 23.1461H7.75403V12.8182H11.1967V23.1461ZM9.47534 11.0969C8.52469 11.0969 7.75403 10.3263 7.75403 9.37561C7.75403 8.42495 8.52469 7.6543 9.47534 7.6543C10.426 7.6543 11.1967 8.42495 11.1967 9.37561C11.1967 9.83213 11.0153 10.27 10.6925 10.5928C10.3697 10.9156 9.93186 11.0969 9.47534 11.0969Z" fill="white"/>
</g>
</svg>
