<svg width="56" height="56" viewBox="0 0 56 56" fill="none" xmlns="http://www.w3.org/2000/svg">
<g clip-path="url(#clip0_238_1710)">
<path d="M11.0028 27.9967C11.0028 24.4233 10.9935 20.8498 11.0054 17.2763C11.0147 14.555 12.7802 12.1394 15.3739 11.3271C15.9775 11.1383 16.6302 11.0187 17.2603 11.016C24.418 10.9948 31.5756 10.9908 38.7345 11.0081C42.1644 11.016 44.9748 13.8171 44.9841 17.2431C45.0027 24.4126 45.0027 31.5822 44.9841 38.7518C44.9748 42.1644 42.1737 44.9748 38.7664 44.9854C31.5862 45.0067 24.406 45.0067 17.2258 44.9854C13.8198 44.9748 11.0267 42.1591 11.0081 38.7504C10.9881 35.1663 11.0041 31.5809 11.0041 27.9967H11.0028ZM13.3452 21.7445V22.1234C13.3452 27.578 13.3452 33.0313 13.3452 38.4859C13.3452 40.9227 15.0668 42.6496 17.501 42.651C24.503 42.6536 31.5064 42.655 38.5085 42.651C40.9227 42.651 42.647 40.9201 42.6483 38.5032C42.651 33.0379 42.6483 27.5727 42.6483 22.1074C42.6483 21.9904 42.6377 21.8721 42.6324 21.7445H13.3452ZM42.6829 19.3688C42.6443 18.4116 42.7002 17.4837 42.5539 16.589C42.2428 14.7012 40.6329 13.3771 38.6933 13.3518C36.6367 13.3239 34.5787 13.3452 32.5208 13.3452C32.4583 13.3452 32.3971 13.3545 32.3014 13.3611C32.3426 13.4409 32.3613 13.4901 32.3905 13.5313C33.7877 15.4271 35.1849 17.3241 36.5901 19.2133C36.654 19.2997 36.8068 19.3608 36.9198 19.3635C37.5394 19.3781 38.1589 19.3701 38.7784 19.3701C40.0493 19.3701 41.3216 19.3701 42.6829 19.3701V19.3688ZM23.6735 19.3515C23.6589 19.3023 23.6575 19.2678 23.6416 19.2452C22.2257 17.3241 20.8112 15.4031 19.3874 13.4888C19.3289 13.409 19.1893 13.3518 19.0856 13.3505C18.4781 13.3385 17.8692 13.3292 17.263 13.3505C15.342 13.4143 13.7573 14.7211 13.4369 16.589C13.3133 17.3109 13.3691 18.0646 13.3465 18.8025C13.3412 18.9859 13.3465 19.1681 13.3465 19.3528H23.6735V19.3515ZM22.2537 13.3571C22.3002 13.4436 22.3241 13.5034 22.36 13.5526C23.7453 15.4297 25.1279 17.3082 26.5238 19.176C26.6035 19.2824 26.7923 19.3595 26.9319 19.3608C29.1108 19.3728 31.2897 19.3688 33.4673 19.3688C33.5498 19.3688 33.6322 19.3595 33.7439 19.3528C33.7026 19.2824 33.6854 19.2438 33.6614 19.2106C32.2642 17.3148 30.8683 15.4191 29.4605 13.5313C29.3807 13.425 29.1866 13.3532 29.0457 13.3518C26.8787 13.3412 24.7104 13.3439 22.5435 13.3452C22.4597 13.3452 22.3746 13.3518 22.255 13.3585L22.2537 13.3571Z" fill="#FCFCFC"/>
<path d="M23.2174 32.1757C23.2174 30.4395 23.216 28.7033 23.2174 26.9671C23.2174 25.8703 24.1373 25.3265 25.0812 25.8703C28.0963 27.6065 31.1101 29.3454 34.1213 31.0869C34.782 31.4685 35.0372 32.0893 34.7208 32.665C34.5813 32.9189 34.33 33.1475 34.0747 33.2964C31.6525 34.7123 29.2197 36.1082 26.7895 37.5107C26.2152 37.8417 25.6449 38.1781 25.0666 38.5038C24.1347 39.0289 23.2187 38.4905 23.216 37.4163C23.2134 35.6694 23.216 33.9213 23.216 32.1744L23.2174 32.1757ZM25.5797 28.8668V35.5019C27.5034 34.3905 29.3872 33.3017 31.3228 32.1837C29.3806 31.0617 27.5008 29.9769 25.5797 28.8668Z" fill="#FCFCFC"/>
</g>
<defs>
<clipPath id="clip0_238_1710">
<rect width="34.0013" height="34.0026" fill="white" transform="translate(10.998 10.9987)"/>
</clipPath>
</defs>
</svg>
