<svg width="240" height="160" viewBox="0 0 240 160" fill="none" xmlns="http://www.w3.org/2000/svg">
<path d="M0.650391 0H239.65V160H0.650391V0Z" fill="#2E2E35"/>
<path d="M88.8594 71.24L83.578 64.196C83.5377 64.1425 83.4856 64.099 83.4257 64.0691C83.3657 64.0392 83.2997 64.0235 83.2327 64.0234H66.4658C64.0352 64.0404 62.4102 65.5111 62.4102 67.6146V71.8759H88.8141C88.8626 71.8759 88.9102 71.8625 88.9515 71.837C88.9928 71.8115 89.0261 71.775 89.0479 71.7316C89.0696 71.6882 89.0788 71.6396 89.0744 71.5912C89.07 71.5429 89.0523 71.4967 89.0232 71.4579L88.8594 71.24Z" fill="#808087"/>
<path d="M179.388 64.0234H168.028V71.8759H173.826C174.31 71.8759 174.545 71.7534 174.817 71.372L179.547 64.5159L179.602 64.4348C179.63 64.3956 179.646 64.3496 179.65 64.3017C179.653 64.2539 179.643 64.2061 179.621 64.1636C179.598 64.121 179.565 64.0855 179.524 64.0608C179.483 64.036 179.436 64.0231 179.388 64.0234Z" fill="#808087"/>
<path d="M147.673 74.4474V67.474C147.673 67.474 147.661 66.1403 146.603 65.0986C145.924 64.4289 144.816 63.8828 143.006 63.8828H121.541C121.456 63.8829 121.372 63.9081 121.301 63.9554C121.229 64.0027 121.174 64.0699 121.14 64.1488C121.129 64.175 121.121 64.2023 121.115 64.2303C121.109 64.2592 121.106 64.2886 121.106 64.3182V64.5904V64.9387V70.6743V71.0289V71.738H138.577C138.606 71.7381 138.634 71.7428 138.661 71.7522C138.681 71.7589 138.7 71.768 138.718 71.7794L138.726 71.7849C138.774 71.818 138.809 71.8661 138.827 71.9216C138.832 71.9382 138.835 71.9552 138.837 71.9724C138.837 71.9815 138.837 71.9902 138.837 71.9992V72.97V77.3117V77.9752C138.837 78.0444 138.81 78.1109 138.761 78.1599C138.712 78.2088 138.645 78.2364 138.576 78.2364H129.863C129.793 78.2364 129.727 78.2088 129.678 78.1599C129.629 78.1109 129.601 78.0444 129.601 77.9752V77.5142V74.7855V73.7253C129.601 73.6106 129.555 73.5008 129.474 73.4197C129.393 73.3386 129.283 73.2927 129.168 73.2919H121.106V94.4444V95.4116V95.5448C121.106 95.5743 121.109 95.6037 121.115 95.6326C121.121 95.6606 121.129 95.688 121.14 95.7142C121.174 95.7929 121.229 95.8601 121.301 95.9074C121.372 95.9546 121.456 95.9799 121.541 95.9801H129.167C129.252 95.9799 129.336 95.9545 129.407 95.9073C129.478 95.86 129.534 95.7929 129.568 95.7142C129.579 95.6878 129.587 95.6605 129.593 95.6326C129.599 95.6037 129.602 95.5743 129.602 95.5448V95.4116V94.1781V85.9332H143.298C143.331 85.9332 143.364 85.9332 143.398 85.9332C144.231 85.9229 145.082 85.6019 145.803 85.0885C145.86 85.0491 145.917 85.0054 145.973 84.9616C146.029 84.9179 146.084 84.8738 146.138 84.8281C146.217 84.7595 146.298 84.6882 146.374 84.6149C147.162 83.8573 147.689 82.8558 147.671 81.8381L147.673 74.4474Z" fill="#808087"/>
<path d="M117.925 67.7191C117.879 67.1502 117.71 66.5982 117.429 66.1015C117.148 65.6048 116.762 65.1753 116.298 64.843L116.227 64.7926C116.192 64.7682 116.156 64.7442 116.12 64.7205L116.094 64.7044C116.011 64.6518 115.925 64.6014 115.838 64.5531C115.17 64.1953 114.423 64.0093 113.665 64.0117H95.3739C94.3329 64.0149 93.3843 64.3462 92.646 64.9144C92.6102 64.9415 92.5748 64.9695 92.5401 64.9983C92.4897 65.0377 92.4405 65.0826 92.3925 65.1263C92.3444 65.17 92.3055 65.2051 92.2633 65.2488L92.261 65.2508C91.5959 65.9101 91.1889 66.7858 91.1136 67.7195C91.1136 67.7443 91.1108 67.7691 91.1108 67.7944V67.7971V71.876H109.944C109.979 71.876 110.014 71.883 110.046 71.8965L110.069 71.9075C110.08 71.9139 110.091 71.9212 110.102 71.9292C110.134 71.9535 110.16 71.9849 110.178 72.021C110.196 72.0571 110.205 72.0969 110.205 72.1372V88.0907C110.205 88.1251 110.199 88.159 110.185 88.1908C110.172 88.2225 110.153 88.2513 110.129 88.2756C110.105 88.2998 110.076 88.3191 110.044 88.3322C110.012 88.3453 109.978 88.352 109.944 88.3519H99.0728C99.0293 88.352 98.9866 88.3411 98.9484 88.3204L98.9409 88.3157C98.9216 88.305 98.9039 88.2917 98.8881 88.2763C98.8394 88.2271 98.812 88.1608 98.8117 88.0915V73.8652C98.8119 73.8026 98.7985 73.7406 98.7724 73.6836C98.751 73.6368 98.7215 73.5941 98.6853 73.5575C98.6754 73.5477 98.6651 73.5384 98.6542 73.5296C98.5767 73.4653 98.4793 73.43 98.3786 73.4299H91.0943V91.689C91.0908 91.9906 91.1184 92.2917 91.1766 92.5876C91.1793 92.6026 91.1825 92.6176 91.1856 92.6326C91.1974 92.6893 91.2104 92.7456 91.225 92.8012C91.2297 92.8197 91.2345 92.8406 91.2396 92.8571C91.2534 92.9083 91.2675 92.9596 91.2833 93.01C91.29 93.0321 91.2971 93.0545 91.3042 93.0766C91.3301 93.1554 91.3581 93.2342 91.3888 93.313C91.4401 93.4453 91.4982 93.575 91.5628 93.7014C91.5782 93.7322 91.5943 93.7625 91.6105 93.7928C91.6266 93.8232 91.6499 93.8634 91.6695 93.8984L91.7144 93.9745C91.7957 94.1087 91.8841 94.2383 91.9794 94.3629C92.0101 94.4023 92.0412 94.4417 92.0735 94.4811C92.4986 94.9977 93.0342 95.4121 93.6407 95.694C94.2472 95.9759 94.9092 96.118 95.5779 96.1098H113.449C115.851 96.1414 117.958 94.2242 117.931 91.6874V78.188V70.6425V67.7971C117.929 67.7711 117.928 67.7467 117.925 67.7191Z" fill="#808087"/>
<path d="M166.475 64.0234H150.072C150 64.0245 149.93 64.0421 149.866 64.075V64.075C149.797 64.1122 149.739 64.1675 149.699 64.2349C149.659 64.3024 149.638 64.3795 149.638 64.458V71.4405C149.638 71.5557 149.684 71.6661 149.765 71.7477C149.846 71.8293 149.956 71.8754 150.071 71.8759H157.716C157.772 71.8761 157.826 71.894 157.87 71.927C157.915 71.96 157.948 72.0064 157.965 72.0595C157.97 72.0761 157.974 72.0931 157.976 72.1103C157.976 72.1194 157.976 72.128 157.976 72.1371V94.5716V95.4407V95.6822C157.976 95.7118 157.979 95.7412 157.985 95.7701C157.99 95.7981 157.999 95.8254 158.01 95.8517C158.043 95.9304 158.099 95.9975 158.171 96.0448C158.242 96.0921 158.325 96.1174 158.411 96.1176H166.038C166.153 96.1176 166.263 96.072 166.345 95.9908C166.426 95.9096 166.472 95.7993 166.473 95.6842V64.0234H166.475Z" fill="#808087"/>
<path d="M89.0519 90.118C89.0519 90.0266 89.0519 89.9363 89.0488 89.8473C89.0445 89.7114 89.0358 89.5782 89.024 89.4494C89.0177 89.3824 89.0098 89.3154 89.0015 89.2492C88.9996 89.2354 88.998 89.222 88.9964 89.2098C88.9878 89.1468 88.9787 89.0841 88.9681 89.0215C88.9657 89.0061 88.9626 88.9904 88.9602 88.9746C88.9504 88.9183 88.9397 88.8615 88.9283 88.8052C88.9256 88.7914 88.9224 88.7776 88.9196 88.7634C88.9082 88.7087 88.8956 88.6539 88.8826 88.5992C88.8775 88.5791 88.8728 88.5598 88.8677 88.5385C88.8551 88.4877 88.8421 88.4368 88.8283 88.3864C88.8283 88.3817 88.8255 88.3769 88.824 88.3718C88.8173 88.347 88.8098 88.3226 88.8027 88.2978C88.7909 88.2584 88.7791 88.219 88.7669 88.1796L88.7432 88.1047C88.7243 88.048 88.7039 87.9912 88.685 87.9349L88.6621 87.8734C88.6464 87.8317 88.6306 87.7903 88.6145 87.7493L88.5861 87.6784C88.5665 87.6307 88.5468 87.5835 88.5259 87.5366C88.518 87.5177 88.5098 87.4972 88.5015 87.4806C88.4787 87.4298 88.455 87.3794 88.431 87.329L88.4007 87.2667C88.379 87.223 88.357 87.1792 88.3341 87.1359C88.3263 87.1201 88.3184 87.1048 88.3101 87.0894C88.2802 87.0331 88.2491 86.9771 88.2176 86.9216L88.1892 86.8723C88.1637 86.8282 88.1377 86.7849 88.1105 86.7415L88.0818 86.6946C88.0471 86.6391 88.0121 86.5843 87.9758 86.5296L87.9546 86.4981C87.9235 86.452 87.892 86.4066 87.8597 86.3613L87.8278 86.3164C87.7887 86.2621 87.7493 86.2082 87.7097 86.1549C87.6679 86.1009 87.6258 86.0477 87.5841 85.9945L87.5029 85.8925C87.4287 85.8 87.3533 85.7081 87.2769 85.6167C87.2124 85.5379 87.147 85.4638 87.0801 85.3882C87.0231 85.3223 86.9656 85.2566 86.9076 85.1912C86.843 85.1185 86.7774 85.0462 86.7107 84.9745C86.6186 84.8737 86.5255 84.7733 86.4316 84.6735C86.3683 84.606 86.3045 84.5389 86.2402 84.4722C86.1134 84.3409 85.9857 84.2095 85.8571 84.0782C85.7905 84.0097 85.7232 83.9411 85.6559 83.8726L85.2621 83.4699C85.0637 83.2674 84.8646 83.0619 84.6648 82.8533C84.0348 82.193 83.1064 81.2514 82.07 80.2136C81.7826 79.926 81.4869 79.6309 81.1868 79.3327L80.8273 78.9754L80.6427 78.7918L80.2812 78.4332C78.0908 76.2628 75.9051 74.1251 75.2806 73.5132C75.248 73.4819 75.2121 73.4543 75.1735 73.4309C75.0778 73.3716 74.9675 73.3401 74.855 73.3398H63.452C63.4349 73.3398 63.4181 73.3449 63.4038 73.3543C63.3895 73.3638 63.3783 73.3773 63.3716 73.3932C63.365 73.409 63.3631 73.4265 63.3664 73.4433C63.3696 73.4602 63.3778 73.4757 63.3898 73.488L64.1887 74.3016L64.3856 74.5029L68.746 78.9411L77.4639 87.8175C77.5002 87.8541 77.5248 87.9005 77.5346 87.9511C77.5445 88.0016 77.5392 88.0539 77.5194 88.1014C77.4996 88.1489 77.4662 88.1895 77.4234 88.2181C77.3806 88.2466 77.3303 88.2619 77.2789 88.2619H60.0875C60.0182 88.2615 59.9499 88.2777 59.8883 88.3092C59.8266 88.3407 59.7734 88.3865 59.7331 88.4427C59.7053 88.4807 59.684 88.5231 59.6701 88.568C59.6657 88.5814 59.6622 88.5956 59.6591 88.6098C59.6534 88.6386 59.6505 88.6679 59.6504 88.6973V88.6973V94.9734V95.59C59.6504 95.6048 59.6512 95.6197 59.6528 95.6345C59.6621 95.7273 59.7013 95.8146 59.7646 95.8831C59.7737 95.8936 59.7836 95.9035 59.7941 95.9126C59.8739 95.9851 59.9777 96.0254 60.0855 96.0257H83.0016C84.6372 96.0257 86.2323 95.3997 87.3584 94.2134C88.6547 92.8483 89.037 91.3677 89.0484 90.116L89.0519 90.118Z" fill="#808087"/>
</svg>
