<svg width="30" height="30" viewBox="0 0 30 30" fill="none" xmlns="http://www.w3.org/2000/svg">
<path d="M15 21.5247C14.3938 21.5247 13.8 21.486 13.2236 21.4114C12.6472 21.7855 9.31282 23.9422 8.99795 23.9828C8.99795 23.9828 8.86974 24.0291 8.76 23.9696C8.65026 23.9101 8.66974 23.7533 8.66974 23.7533C8.70256 23.5455 9.53436 20.9022 9.68718 20.4157C6.8718 19.1309 5 16.8551 5 14.2628C5 10.2517 9.47692 7 15 7C20.5231 7 25 10.2517 25 14.2628C25 18.2731 20.5231 21.5247 15 21.5247Z" fill="#FCFCFC"/>
<path d="M11.2206 13.1766H10.3597V16.288C10.3597 16.5635 10.1126 16.7879 9.80772 16.7879C9.5028 16.7879 9.25671 16.5645 9.25671 16.288V13.1766H8.39587C8.25961 13.167 8.13219 13.1089 8.0392 13.0138C7.94621 12.9187 7.89453 12.7938 7.89453 12.6641C7.89453 12.5343 7.94621 12.4094 8.0392 12.3143C8.13219 12.2192 8.25961 12.1611 8.39587 12.1515H11.2196C11.3558 12.1611 11.4832 12.2192 11.5762 12.3143C11.6692 12.4094 11.7209 12.5343 11.7209 12.6641C11.7209 12.7938 11.6692 12.9187 11.5762 13.0138C11.4832 13.1089 11.3558 13.167 11.2196 13.1766H11.2206ZM21.9928 15.9295C22.0368 15.9843 22.0689 16.0468 22.0873 16.1134C22.1056 16.1801 22.1098 16.2495 22.0996 16.3178C22.0896 16.3858 22.0654 16.4513 22.0286 16.5104C21.9917 16.5695 21.9429 16.6211 21.8849 16.6622C21.7897 16.7311 21.6733 16.7684 21.5535 16.7684C21.4679 16.7688 21.3834 16.7502 21.3068 16.7139C21.2302 16.6777 21.1636 16.6249 21.1123 16.5598L19.8191 14.9334L19.6279 15.1149V16.2572C19.6277 16.396 19.5696 16.5291 19.4663 16.6273C19.3631 16.7255 19.2231 16.7809 19.0769 16.7814C18.9305 16.7814 18.7901 16.7262 18.6866 16.6279C18.5831 16.5296 18.5249 16.3963 18.5249 16.2572V12.6748C18.5309 12.5397 18.5916 12.412 18.6944 12.3185C18.7972 12.2249 18.934 12.1727 19.0764 12.1727C19.2188 12.1727 19.3557 12.2249 19.4584 12.3185C19.5612 12.412 19.6219 12.5397 19.6279 12.6748V13.8013L21.1672 12.3396C21.2074 12.3019 21.255 12.2722 21.3074 12.2521C21.3597 12.2319 21.4157 12.2218 21.4722 12.2223C21.6094 12.2223 21.7486 12.2791 21.8526 12.3778C21.9472 12.4659 22.0047 12.5837 22.0143 12.7092C22.0194 12.7676 22.0112 12.8264 21.9902 12.8815C21.9692 12.9366 21.936 12.9867 21.8928 13.0285L20.6358 14.2211L21.9938 15.9295H21.9928ZM13.806 12.6692C13.7129 12.4178 13.4305 12.159 13.0707 12.1515C12.7118 12.159 12.4294 12.4178 12.3363 12.6682L11.0176 15.9649C10.8499 16.4583 10.996 16.6427 11.148 16.7097C11.2579 16.7572 11.3773 16.7817 11.498 16.7814C11.7284 16.7814 11.9039 16.6929 11.9569 16.5505L12.2304 15.8709H13.9119L14.1854 16.5505C14.2384 16.6929 14.4139 16.7814 14.6443 16.7814C14.7651 16.7813 14.8845 16.7565 14.9943 16.7088C15.1463 16.6427 15.2924 16.4593 15.1247 15.964L13.806 12.6682V12.6692ZM12.5206 14.9436L13.0716 13.4577L13.6217 14.9436H12.5206ZM18.3102 16.2312C18.3071 16.3614 18.2497 16.4851 18.1506 16.5752C18.0516 16.6653 17.9189 16.7143 17.7817 16.7116H16.013C15.945 16.713 15.8774 16.7018 15.814 16.6785C15.7506 16.6551 15.6926 16.6201 15.6435 16.5755C15.5943 16.5309 15.5549 16.4775 15.5274 16.4185C15.5 16.3594 15.4851 16.2957 15.4836 16.2312V12.6748C15.4836 12.3862 15.7365 12.1515 16.0473 12.1515C16.3581 12.1515 16.6101 12.3862 16.6101 12.6748V15.7517H17.7817C18.0729 15.7517 18.3112 15.9668 18.3112 16.2312H18.3102Z" fill="#2A2A2A"/>
</svg>
