<svg width="56" height="56" viewBox="0 0 56 56" fill="none" xmlns="http://www.w3.org/2000/svg">
<g clip-path="url(#clip0_238_1668)">
<path d="M35.6539 14.4996C37.8004 14.5947 39.7816 15.6673 40.8594 18.0233C41.9476 20.4029 41.6326 22.6835 40.0016 24.7532C39.7946 25.0148 39.5447 25.2439 39.3078 25.4808C37.5036 27.2915 35.6968 29.0983 33.894 30.9102C31.5001 33.3145 27.5599 33.3614 25.1322 31.0105C24.6505 30.5432 24.6037 29.9235 25.0176 29.481C25.4303 29.0397 26.0603 29.0436 26.5497 29.4914C28.3031 31.0938 30.7334 31.0743 32.4191 29.4107C34.3925 27.4646 36.3724 25.5212 38.2911 23.5231C39.4601 22.306 39.6892 20.8025 39.1229 19.2339C38.5671 17.6953 37.4086 16.8193 35.7866 16.6123C34.429 16.4392 33.2444 16.8414 32.2681 17.8216C31.2294 18.8656 30.1815 19.9004 29.1414 20.9431C28.8017 21.2841 28.4086 21.4026 27.9582 21.2347C27.2383 20.9665 27.073 20.0761 27.6393 19.5034C28.6064 18.5258 29.5736 17.5469 30.559 16.5889C30.9599 16.1984 31.3817 15.8157 31.8438 15.5019C32.8682 14.8094 34.0202 14.5061 35.6539 14.4996Z" fill="#FCFCFC"/>
<path d="M20.7103 41.4686C18.1329 41.4725 15.8758 39.9664 14.9437 37.6207C13.987 35.2126 14.6079 32.4764 16.4485 30.6839C18.3256 28.8563 20.1844 27.0066 22.0029 25.1204C24.3746 22.6615 28.501 22.5847 30.8844 25.0046C31.2945 25.4198 31.3439 25.9861 31.0094 26.4169C30.6918 26.8257 30.1112 26.9415 29.6673 26.6747C29.558 26.6083 29.4617 26.5159 29.3666 26.4286C27.6757 24.8809 25.1947 24.9187 23.5662 26.5354C21.5981 28.4879 19.6195 30.4301 17.6929 32.423C16.5175 33.6388 16.2767 35.1371 16.8325 36.7056C17.387 38.2729 18.5638 39.1593 20.2143 39.3585C21.5486 39.5186 22.7149 39.1255 23.6756 38.1661C24.7248 37.117 25.7804 36.0743 26.8257 35.0225C27.1564 34.6893 27.5404 34.5734 27.979 34.7218C28.6911 34.9626 28.898 35.8582 28.3643 36.4205C27.8502 36.962 27.3126 37.4814 26.7841 38.0099C26.1553 38.6373 25.5461 39.2843 24.8914 39.8818C23.7133 40.957 22.2984 41.4503 20.7116 41.4699L20.7103 41.4686Z" fill="#FCFCFC"/>
</g>
<defs>
<clipPath id="clip0_238_1668">
<rect width="27" height="26.9675" fill="white" transform="translate(14.5 14.5)"/>
</clipPath>
</defs>
</svg>
