<svg viewBox="0 0 136 101" fill="none" xmlns="http://www.w3.org/2000/svg">
<path d="M78.7812 79.8945H69.0059V99.5137H49.3867V79.8945H0.373047L11.3105 1.48633H30.9297L22.3848 60.3438H49.3867V11.3301H69.0059V60.3438H78.7812V79.8945Z" fill="#3F4041"/>
<path fill-rule="evenodd" clip-rule="evenodd" d="M109.549 10.6785C117.639 1.55356 127.941 0 135.281 0V20C130.622 20 127.174 20.9465 124.514 23.9466C121.515 27.3288 117.781 35.2485 117.781 53.5C117.781 67.3589 121.34 73.8197 124.33 76.8445C127.34 79.8892 131.306 81 135.281 81V101C127.757 101 117.972 98.8608 110.107 90.9055C102.223 82.9303 97.7812 70.6411 97.7812 53.5C97.7812 33.2516 101.797 19.4212 109.549 10.6785Z" fill="#3F4041"/>
</svg>
