<svg width="140" height="140" viewBox="0 0 140 140" fill="none" xmlns="http://www.w3.org/2000/svg">
<g id="404_ghost_img">
<path id="Subtract" fill-rule="evenodd" clip-rule="evenodd" d="M30.5455 61.091C30.5455 39.5351 48.02 22.0607 69.5758 22.0607C91.1316 22.0607 108.606 39.5351 108.606 61.091V69.3946V116.728C96.0966 111.624 82.0853 111.624 69.5758 116.728C57.1732 122.351 42.9481 122.351 30.5455 116.728V61.091ZM65.3333 55.9999C65.3333 58.8115 63.054 61.0908 60.2423 61.0908C57.4307 61.0908 55.1514 58.8115 55.1514 55.9999C55.1514 53.1883 57.4307 50.909 60.2423 50.909C63.054 50.909 65.3333 53.1883 65.3333 55.9999ZM79.7575 61.0908C82.5691 61.0908 84.8484 58.8115 84.8484 55.9999C84.8484 53.1883 82.5691 50.909 79.7575 50.909C76.9459 50.909 74.6666 53.1883 74.6666 55.9999C74.6666 58.8115 76.9459 61.0908 79.7575 61.0908Z" fill="#3F4041"/>
</g>
</svg>
