<svg viewBox="0 0 165 165" fill="none" xmlns="http://www.w3.org/2000/svg">
<path fill-rule="evenodd" clip-rule="evenodd" d="M36 72C36 46.5949 56.5949 26 82 26C107.405 26 128 46.5949 128 72V81.7863V137.573C113.257 131.557 96.7433 131.557 82 137.573C67.3827 144.2 50.6173 144.2 36 137.573V72ZM77 66C77 69.3137 74.3137 72 71 72C67.6863 72 65 69.3137 65 66C65 62.6863 67.6863 60 71 60C74.3137 60 77 62.6863 77 66ZM94 72C97.3137 72 100 69.3137 100 66C100 62.6863 97.3137 60 94 60C90.6863 60 88 62.6863 88 66C88 69.3137 90.6863 72 94 72Z" fill="white"/>
</svg>
