<svg viewBox="0 0 129 101" fill="none" xmlns="http://www.w3.org/2000/svg">
<path fill-rule="evenodd" clip-rule="evenodd" d="M25.7326 10.6785C17.6425 1.55356 7.34043 0 2.28882e-05 0V20C4.6596 20 8.10752 20.9465 10.7674 23.9466C13.7661 27.3288 17.5 35.2485 17.5 53.5C17.5 67.3589 13.9415 73.8197 10.9511 76.8445C7.94101 79.8892 3.97544 81 2.28882e-05 81V101C7.52459 101 17.309 98.8608 25.1739 90.9055C33.0585 82.9303 37.5 70.6411 37.5 53.5C37.5 33.2516 33.4839 19.4212 25.7326 10.6785Z" fill="#3F4041"/>
<path d="M128.908 79.8945H119.133V99.5137H99.5137V79.8945H50.5L61.4375 1.48633H81.0566L72.5117 60.3438H99.5137V11.3301H119.133V60.3438H128.908V79.8945Z" fill="#3F4041"/>
</svg>
