<svg viewBox="0 0 125 101" fill="none" xmlns="http://www.w3.org/2000/svg">
<path d="M70.5938 68.6836C70.5938 73.4688 69.7506 77.7754 68.0645 81.6035C66.3783 85.4316 64.1224 88.6673 61.2969 91.3105C58.4714 93.9538 55.1901 95.9818 51.4531 97.3945C47.7617 98.8073 43.888 99.5137 39.832 99.5137H0.320312V79.8945H39.832C41.1536 79.8945 42.4753 79.6895 43.7969 79.2793C45.1641 78.8691 46.3717 78.2083 47.4199 77.2969C48.5137 76.3854 49.3796 75.2233 50.0176 73.8105C50.7012 72.3978 51.043 70.6888 51.043 68.6836C51.043 66.8607 50.7012 65.2656 50.0176 63.8984C49.3796 62.4857 48.5137 61.3236 47.4199 60.4121C46.3717 59.4551 45.1641 58.7487 43.7969 58.293C42.4753 57.7917 41.1536 57.541 39.832 57.541H0.320312L6.0625 1.48633H66.5605V21.1055H23.6992L21.9219 37.9219H39.832C43.888 37.9219 47.7617 38.6283 51.4531 40.041C55.1901 41.4538 58.4714 43.5046 61.2969 46.1934C64.1224 48.8366 66.3783 52.0723 68.0645 55.9004C69.7506 59.6829 70.5938 63.944 70.5938 68.6836Z" fill="#3F4041"/>
<path fill-rule="evenodd" clip-rule="evenodd" d="M98.3611 10.6785C106.451 1.55356 116.753 0 124.094 0V20C119.434 20 115.986 20.9465 113.326 23.9466C110.328 27.3288 106.594 35.2485 106.594 53.5C106.594 67.3589 110.152 73.8197 113.143 76.8445C116.153 79.8892 120.118 81 124.094 81V101C116.569 101 106.785 98.8608 98.9199 90.9055C91.0353 82.9303 86.5938 70.6411 86.5938 53.5C86.5938 33.2516 90.6098 19.4212 98.3611 10.6785Z" fill="#3F4041"/>
</svg>
