<svg viewBox="0 0 132 101" fill="none" xmlns="http://www.w3.org/2000/svg">
<path fill-rule="evenodd" clip-rule="evenodd" d="M25.7326 10.6785C17.6425 1.55356 7.34043 0 2.28882e-05 0V20C4.6596 20 8.10752 20.9465 10.7674 23.9466C13.7661 27.3288 17.5 35.2485 17.5 53.5C17.5 67.3589 13.9415 73.8197 10.9511 76.8445C7.94101 79.8892 3.97544 81 2.28882e-05 81V101C7.52459 101 17.309 98.8608 25.1739 90.9055C33.0585 82.9303 37.5 70.6411 37.5 53.5C37.5 33.2516 33.4839 19.4212 25.7326 10.6785Z" fill="#3F4041"/>
<path d="M113.246 50.3809C113.246 39.4889 111.423 31.3997 107.777 26.1133C104.177 20.8268 99.1413 18.1836 92.6699 18.1836C86.2441 18.1836 81.2539 20.804 77.6992 26.0449C74.1445 31.2858 72.3672 39.3978 72.3672 50.3809C72.3672 61.2728 74.1445 69.362 77.6992 74.6484C81.2539 79.9349 86.2441 82.5781 92.6699 82.5781C95.9056 82.5781 98.7995 81.9401 101.352 80.6641C103.904 79.3424 106.046 77.36 107.777 74.7168C109.555 72.0736 110.899 68.7467 111.811 64.7363C112.768 60.6803 113.246 55.8952 113.246 50.3809ZM131.908 50.3809C131.908 59.6777 130.883 67.5391 128.832 73.9648C126.781 80.3906 123.979 85.5859 120.424 89.5508C116.869 93.5156 112.699 96.3867 107.914 98.1641C103.174 99.8958 98.0931 100.762 92.6699 100.762C87.2467 100.762 82.1426 99.873 77.3574 98.0957C72.6178 96.2728 68.4707 93.3789 64.916 89.4141C61.4069 85.4036 58.627 80.2083 56.5762 73.8281C54.5254 67.4023 53.5 59.5866 53.5 50.3809C53.5 41.084 54.5254 33.2454 56.5762 26.8652C58.627 20.4395 61.4069 15.2441 64.916 11.2793C68.4707 7.31445 72.6178 4.44336 77.3574 2.66602C82.1426 0.888672 87.2467 0 92.6699 0C98.0931 0 103.174 0.911458 107.914 2.73438C112.699 4.51172 116.869 7.4056 120.424 11.416C123.979 15.4264 126.781 20.6217 128.832 27.002C130.883 33.3822 131.908 41.1751 131.908 50.3809Z" fill="#3F4041"/>
</svg>
