<svg width="20" height="20" viewBox="0 0 20 20" fill="none" xmlns="http://www.w3.org/2000/svg">
<g clip-path="url(#clip0_281_9568)">
<path d="M13.9254 5.29974H18.8382C17.362 2.47785 14.6104 0.451781 11.3669 0C12.5974 1.81176 13.4157 3.59571 13.9254 5.29974Z" fill="white"/>
<path d="M19.4168 13.4086C19.7875 12.3498 20 11.2157 20 10.0299C20 8.84407 19.7833 7.68758 19.4054 6.6203C19.3475 6.63266 19.2926 6.65119 19.2305 6.65119H14.2705C14.8126 9.18734 14.7147 11.5022 14.3753 13.4086H19.4168Z" fill="white"/>
<path d="M7.49683 5.29977H12.501C11.9844 3.75985 11.1825 2.14193 9.99892 0.495056C8.81606 2.14193 8.0134 3.75946 7.49683 5.29977Z" fill="white"/>
<path d="M7.30811 14.7601C8.11534 17.5585 9.45287 19.4552 9.99877 19.9193C10.5447 19.4552 11.8826 17.5577 12.6894 14.7601H7.30811Z" fill="white"/>
<path d="M12.8881 6.65125H7.11021C6.50831 9.15342 6.60698 11.3965 6.92507 13.1411C6.94183 13.2322 6.96241 13.3195 6.97955 13.4087H13.0184C13.0363 13.3187 13.0565 13.2314 13.0729 13.1411C13.3917 11.3965 13.4904 9.15342 12.8881 6.65125Z" fill="white"/>
<path d="M6.81784 17.411C6.5325 16.7514 6.19574 15.8498 5.9165 14.7601H1.1626C2.5786 17.4673 5.16869 19.4428 8.24069 19.9992C7.67803 19.1857 7.15688 18.1937 6.81822 17.4114L6.81784 17.411Z" fill="white"/>
<path d="M14.0816 14.7601C13.8024 15.8494 13.4656 16.7514 13.1803 17.4109C12.8416 18.1936 12.3205 19.1852 11.7578 19.9996C14.8313 19.4439 17.4218 17.4685 18.8378 14.7605H14.0816V14.7597V14.7601Z" fill="white"/>
<path d="M0.794667 13.4086H5.62248C5.28305 11.5022 5.18514 9.18734 5.72724 6.65119H0.769143C0.707048 6.65119 0.652571 6.63227 0.594286 6.6203C0.216762 7.68758 0 8.83248 0 10.0299C0 11.2273 0.217143 12.3749 0.59619 13.443C0.661333 13.4283 0.72419 13.4086 0.794667 13.4086Z" fill="white"/>
<path d="M6.07345 5.29974C6.58279 3.5961 7.40069 1.81137 8.63193 0C5.38926 0.453326 2.63803 2.47862 1.1626 5.29974H6.07345Z" fill="white"/>
</g>
<defs>
<clipPath id="clip0_281_9568">
<rect width="20" height="20" fill="white"/>
</clipPath>
</defs>
</svg>
