<svg width="98" height="36" viewBox="0 0 98 36" fill="none" xmlns="http://www.w3.org/2000/svg">
<path d="M28.7202 12.0904L25.3031 7.51838C25.277 7.48364 25.2433 7.45545 25.2045 7.43601C25.1657 7.41658 25.123 7.40643 25.0797 7.40637H14.2312C12.6586 7.41737 11.6072 8.37198 11.6072 9.73728V12.5032H28.6909C28.7223 12.5032 28.7531 12.4945 28.7798 12.4779C28.8065 12.4614 28.8281 12.4377 28.8421 12.4095C28.8562 12.3813 28.8621 12.3498 28.8593 12.3184C28.8565 12.287 28.845 12.257 28.8262 12.2318L28.7202 12.0904Z" fill="url(#paint0_linear_44_370)"/>
<path d="M88.0073 7.40638H80.6572V12.5032H84.4088C84.7219 12.5032 84.874 12.4236 85.0498 12.1761L88.11 7.72603L88.1462 7.67335C88.1641 7.64793 88.1746 7.61805 88.1767 7.58699C88.1788 7.55594 88.1723 7.52491 88.1579 7.49732C88.1436 7.46973 88.1219 7.44664 88.0954 7.4306C88.0688 7.41455 88.0383 7.40617 88.0073 7.40638Z" fill="url(#paint1_linear_44_370)"/>
<path d="M67.3144 14.2623V9.73606C67.3144 9.73606 67.3065 8.87044 66.622 8.19431C66.183 7.75958 65.4661 7.40515 64.2947 7.40515H50.4068C50.3514 7.40518 50.2973 7.42156 50.2512 7.45226C50.2051 7.48296 50.169 7.52661 50.1474 7.57776C50.1401 7.59479 50.1347 7.61253 50.1311 7.6307C50.1272 7.64945 50.1252 7.66856 50.1252 7.68772V7.86443V8.09049V11.8133V12.0434V12.5037H61.4295C61.4479 12.5038 61.4663 12.5069 61.4837 12.5129C61.4966 12.5173 61.509 12.5232 61.5204 12.5306L61.5258 12.5342C61.5567 12.5556 61.5795 12.5869 61.5907 12.6229C61.594 12.6337 61.5964 12.6447 61.5976 12.6559C61.5976 12.6618 61.5976 12.6674 61.5976 12.6733V13.3034V16.1214V16.5521C61.5976 16.597 61.5798 16.6402 61.5481 16.672C61.5165 16.7037 61.4735 16.7216 61.4287 16.7216H55.7909C55.7461 16.7216 55.7031 16.7037 55.6714 16.672C55.6397 16.6402 55.6219 16.597 55.6219 16.5521V16.2529V14.4817V13.7936C55.6214 13.7192 55.5917 13.6479 55.5393 13.5953C55.4868 13.5426 55.4159 13.5128 55.3417 13.5123H50.1252V27.2417V27.8695V27.956C50.1253 27.9751 50.1272 27.9942 50.1311 28.013C50.1347 28.0312 50.1401 28.0489 50.1474 28.0659C50.1691 28.117 50.2052 28.1606 50.2513 28.1913C50.2974 28.222 50.3514 28.2384 50.4068 28.2386H55.3407C55.396 28.2384 55.4501 28.2219 55.4962 28.1913C55.5424 28.1606 55.5785 28.117 55.6003 28.0659C55.6073 28.0488 55.6128 28.0311 55.6166 28.013C55.6204 27.9942 55.6223 27.9751 55.6222 27.956V27.8695V27.0689V21.7174H64.4838C64.5054 21.7174 64.5268 21.7174 64.5485 21.7174C65.0876 21.7107 65.6381 21.5023 66.1043 21.1691C66.1415 21.1436 66.1784 21.1152 66.2146 21.0868C66.2508 21.0584 66.2862 21.0298 66.3214 21.0001C66.3723 20.9556 66.4248 20.9093 66.4742 20.8617C66.9837 20.37 67.3251 19.7199 67.3131 19.0594L67.3144 14.2623Z" fill="url(#paint2_linear_44_370)"/>
<path d="M47.8762 9.80455C47.8463 9.43529 47.7367 9.07699 47.5548 8.7546C47.373 8.43221 47.1234 8.15347 46.8233 7.93778L46.7774 7.90505C46.7545 7.88919 46.7313 7.8736 46.7079 7.85825L46.6913 7.84777C46.6373 7.81367 46.582 7.78094 46.5255 7.74957C46.0932 7.51736 45.6102 7.39662 45.1199 7.39821H33.285C32.6115 7.40025 31.9977 7.61532 31.5201 7.98407C31.4969 8.00171 31.474 8.01987 31.4515 8.03854C31.4189 8.06411 31.3871 8.09326 31.356 8.12165C31.3249 8.15003 31.2997 8.17279 31.2724 8.20118L31.2709 8.20245C30.8406 8.63035 30.5773 9.1988 30.5285 9.80481C30.5285 9.82092 30.5268 9.83703 30.5268 9.85339C30.5268 9.85339 30.5268 9.85467 30.5268 9.85518V12.5027H42.7122C42.7348 12.5027 42.7571 12.5072 42.7779 12.516L42.7927 12.5231C42.8002 12.5273 42.8073 12.532 42.8141 12.5372C42.8349 12.5529 42.8518 12.5733 42.8635 12.5968C42.8751 12.6202 42.8811 12.646 42.8811 12.6722V23.0272C42.8811 23.0494 42.8768 23.0715 42.8683 23.0921C42.8598 23.1127 42.8474 23.1314 42.8317 23.1471C42.816 23.1629 42.7974 23.1754 42.7769 23.1839C42.7564 23.1924 42.7344 23.1967 42.7122 23.1967H35.6783C35.6501 23.1967 35.6225 23.1897 35.5978 23.1762L35.5929 23.1732C35.5805 23.1662 35.569 23.1576 35.5588 23.1476C35.5273 23.1157 35.5095 23.0726 35.5094 23.0277V13.7938C35.5095 13.7531 35.5008 13.7129 35.4839 13.6759C35.47 13.6455 35.451 13.6179 35.4276 13.5941C35.4212 13.5877 35.4145 13.5816 35.4075 13.5759C35.3573 13.5342 35.2942 13.5113 35.2291 13.5112H30.5161V25.3627C30.5138 25.5584 30.5317 25.7539 30.5693 25.946C30.5711 25.9557 30.5731 25.9654 30.5752 25.9751C30.5828 26.0119 30.5912 26.0485 30.6006 26.0846C30.6037 26.0966 30.6068 26.1101 30.6101 26.1209C30.619 26.1541 30.6282 26.1874 30.6383 26.2201C30.6427 26.2344 30.6473 26.249 30.6518 26.2633C30.6687 26.3145 30.6867 26.3656 30.7066 26.4167C30.7398 26.5027 30.7774 26.5868 30.8192 26.6689C30.8292 26.6888 30.8396 26.7085 30.85 26.7282C30.8605 26.7479 30.8755 26.774 30.8883 26.7968L30.9173 26.8461C30.9699 26.9332 31.0271 27.0174 31.0888 27.0982C31.1086 27.1238 31.1288 27.1494 31.1496 27.175C31.4247 27.5102 31.7712 27.7793 32.1636 27.9622C32.556 28.1452 32.9844 28.2374 33.417 28.2321H44.9798C46.5339 28.2526 47.8971 27.0082 47.8795 25.3616V16.5996V11.702V9.85518C47.8782 9.83831 47.8777 9.82245 47.8762 9.80455Z" fill="url(#paint3_linear_44_370)"/>
<path d="M79.6523 7.40637H69.0395C68.9931 7.40703 68.9475 7.4185 68.9063 7.43987C68.8616 7.46401 68.8242 7.49988 68.7983 7.54366C68.7723 7.58744 68.7586 7.63748 68.7588 7.68843V12.2206C68.7588 12.2953 68.7883 12.367 68.8408 12.4199C68.8933 12.4729 68.9646 12.5028 69.039 12.5032H73.9852C74.0212 12.5033 74.0562 12.5149 74.0852 12.5363C74.1142 12.5577 74.1356 12.5879 74.1465 12.6223C74.1498 12.6331 74.1521 12.6441 74.1533 12.6553C74.1533 12.6612 74.1533 12.6668 74.1533 12.6727V27.2343V27.7984V27.9552C74.1533 27.9743 74.1553 27.9934 74.1592 28.0122C74.1628 28.0303 74.1682 28.0481 74.1755 28.0651C74.1971 28.1162 74.2333 28.1598 74.2794 28.1905C74.3255 28.2212 74.3795 28.2376 74.4348 28.2377H79.3695C79.444 28.2377 79.5154 28.2081 79.5681 28.1554C79.6209 28.1027 79.6507 28.0312 79.651 27.9564V7.40637H79.6523Z" fill="url(#paint4_linear_44_370)"/>
<path d="M28.8457 24.4018C28.8457 24.3424 28.8457 24.2839 28.8437 24.2261C28.8409 24.1379 28.8353 24.0514 28.8277 23.9678C28.8236 23.9243 28.8185 23.8809 28.8131 23.8379C28.8119 23.8289 28.8108 23.8203 28.8098 23.8123C28.8042 23.7714 28.7984 23.7308 28.7915 23.6901C28.7899 23.6801 28.7879 23.6699 28.7864 23.6597C28.78 23.6231 28.7731 23.5863 28.7657 23.5497C28.764 23.5407 28.7619 23.5318 28.7601 23.5226C28.7528 23.487 28.7446 23.4515 28.7362 23.416C28.7329 23.4029 28.7298 23.3904 28.7265 23.3766C28.7184 23.3436 28.71 23.3106 28.701 23.2779C28.701 23.2748 28.6993 23.2717 28.6982 23.2684C28.6939 23.2523 28.6891 23.2364 28.6845 23.2203C28.6768 23.1948 28.6692 23.1692 28.6613 23.1436L28.646 23.095C28.6338 23.0582 28.6205 23.0214 28.6083 22.9848L28.5935 22.9449C28.5833 22.9178 28.5731 22.891 28.5627 22.8644L28.5444 22.8183C28.5316 22.7874 28.5189 22.7567 28.5054 22.7263C28.5003 22.714 28.4949 22.7007 28.4896 22.69C28.4748 22.657 28.4595 22.6242 28.444 22.5915L28.4244 22.5511C28.4104 22.5227 28.3961 22.4943 28.3813 22.4662C28.3762 22.456 28.3711 22.446 28.3658 22.436C28.3464 22.3995 28.3263 22.3632 28.3059 22.3271L28.2876 22.2951C28.271 22.2665 28.2542 22.2384 28.2366 22.2102L28.218 22.1798C28.1956 22.1437 28.1729 22.1082 28.1495 22.0727L28.1357 22.0522C28.1156 22.0223 28.0952 21.9929 28.0743 21.9635L28.0537 21.9343C28.0284 21.899 28.0029 21.8641 27.9773 21.8295C27.9503 21.7944 27.923 21.7599 27.896 21.7254L27.8435 21.6591C27.7954 21.5991 27.7467 21.5395 27.6973 21.4801C27.6555 21.429 27.6132 21.3809 27.5699 21.3318C27.533 21.289 27.4958 21.2464 27.4583 21.204C27.4165 21.1567 27.3741 21.1099 27.3309 21.0633C27.2713 20.9979 27.2111 20.9327 27.1503 20.8679C27.1094 20.8241 27.0681 20.7806 27.0265 20.7373C26.9445 20.652 26.8618 20.5668 26.7786 20.4816C26.7356 20.4371 26.692 20.3926 26.6484 20.3481L26.3937 20.0867C26.2653 19.9553 26.1364 19.8219 26.0072 19.6865C25.5996 19.2579 24.9989 18.6467 24.3283 17.9732C24.1424 17.7865 23.951 17.595 23.7569 17.4014L23.5243 17.1694L23.4048 17.0503L23.1709 16.8176C21.7537 15.4088 20.3395 14.0213 19.9355 13.6241C19.9144 13.6038 19.8912 13.5859 19.8662 13.5707C19.8043 13.5322 19.7329 13.5117 19.6601 13.5116H12.2822C12.2711 13.5116 12.2603 13.5148 12.251 13.521C12.2417 13.5272 12.2345 13.5359 12.2302 13.5462C12.2259 13.5565 12.2247 13.5678 12.2268 13.5788C12.2289 13.5897 12.2342 13.5998 12.242 13.6077L12.7589 14.1358L12.8863 14.2665L15.7075 17.1472L21.3481 22.9086C21.3716 22.9323 21.3875 22.9625 21.3939 22.9953C21.4003 23.0281 21.3968 23.062 21.384 23.0929C21.3712 23.1237 21.3496 23.1501 21.3219 23.1686C21.2942 23.1872 21.2617 23.1971 21.2284 23.1971H10.1053C10.0605 23.1968 10.0163 23.2073 9.97643 23.2278C9.93654 23.2482 9.9021 23.2779 9.87601 23.3144C9.85804 23.3391 9.84426 23.3666 9.83525 23.3958C9.83245 23.4045 9.83015 23.4137 9.82811 23.4229C9.82444 23.4416 9.82256 23.4606 9.82251 23.4796V27.5533V27.9535C9.8225 27.9631 9.82301 27.9728 9.82404 27.9824C9.83006 28.0426 9.85545 28.0993 9.89639 28.1437C9.90231 28.1506 9.90869 28.157 9.9155 28.1629C9.96713 28.21 10.0343 28.2361 10.104 28.2363H24.9311C25.9894 28.2363 27.0214 27.83 27.75 27.06C28.5887 26.1739 28.8361 25.2129 28.8434 24.4005L28.8457 24.4018Z" fill="url(#paint5_linear_44_370)"/>
<defs>
<linearGradient id="paint0_linear_44_370" x1="11.6072" y1="12.503" x2="28.8598" y2="12.503" gradientUnits="userSpaceOnUse">
<stop stop-color="#DE2E36"/>
<stop offset="1" stop-color="#C03A53"/>
</linearGradient>
<linearGradient id="paint1_linear_44_370" x1="80.6572" y1="12.503" x2="88.4951" y2="7.40637" gradientUnits="userSpaceOnUse">
<stop stop-color="#4F3B88"/>
<stop offset="1" stop-color="#6565A6"/>
</linearGradient>
<linearGradient id="paint2_linear_44_370" x1="50.1252" y1="23.5936" x2="67.3147" y2="11.9017" gradientUnits="userSpaceOnUse">
<stop stop-color="#903A68"/>
<stop offset="1" stop-color="#703B7A"/>
</linearGradient>
<linearGradient id="paint3_linear_44_370" x1="30.5159" y1="22.8956" x2="47.8799" y2="15.5663" gradientUnits="userSpaceOnUse">
<stop stop-color="#B93D56"/>
<stop offset="1" stop-color="#973964"/>
</linearGradient>
<linearGradient id="paint4_linear_44_370" x1="68.7588" y1="8.70247" x2="79.6521" y2="26.0949" gradientUnits="userSpaceOnUse">
<stop stop-color="#6C3C7D"/>
<stop offset="1" stop-color="#563B85"/>
</linearGradient>
<linearGradient id="paint5_linear_44_370" x1="9.82251" y1="20.8741" x2="28.846" y2="20.8741" gradientUnits="userSpaceOnUse">
<stop stop-color="#E02E34"/>
<stop offset="1" stop-color="#BE364F"/>
</linearGradient>
</defs>
</svg>
