<svg width="98" height="36" viewBox="0 0 98 36" fill="none" xmlns="http://www.w3.org/2000/svg">
<path d="M28.7202 12.0903L25.3031 7.51826C25.277 7.48352 25.2433 7.45532 25.2045 7.43589C25.1657 7.41646 25.123 7.40631 25.0797 7.40625H14.2312C12.6586 7.41725 11.6072 8.37186 11.6072 9.73715V12.503H28.6909C28.7223 12.5031 28.7531 12.4943 28.7798 12.4778C28.8065 12.4612 28.8281 12.4376 28.8421 12.4094C28.8562 12.3812 28.8621 12.3497 28.8593 12.3183C28.8565 12.2869 28.845 12.2569 28.8262 12.2317L28.7202 12.0903Z" fill="#3E2E7F"/>
<path d="M88.0073 7.40625H80.6572V12.503H84.4088C84.7219 12.503 84.874 12.4235 85.0498 12.176L88.11 7.72591L88.1462 7.67323C88.1641 7.64781 88.1746 7.61793 88.1767 7.58687C88.1788 7.55582 88.1723 7.52479 88.1579 7.4972C88.1436 7.46961 88.1219 7.44652 88.0954 7.43047C88.0688 7.41443 88.0383 7.40605 88.0073 7.40625Z" fill="#3E2E7F"/>
<path d="M67.3144 14.2622V9.73593C67.3144 9.73593 67.3065 8.87032 66.622 8.19419C66.183 7.75946 65.4661 7.40503 64.2947 7.40503H50.4068C50.3514 7.40506 50.2973 7.42144 50.2512 7.45214C50.2051 7.48284 50.169 7.52649 50.1474 7.57764C50.1401 7.59467 50.1347 7.61241 50.1311 7.63058C50.1272 7.64933 50.1252 7.66844 50.1252 7.6876V7.86431V8.09036V11.8132V12.0433V12.5036H61.4295C61.4479 12.5036 61.4663 12.5067 61.4837 12.5128C61.4966 12.5171 61.509 12.5231 61.5204 12.5305L61.5258 12.534C61.5567 12.5555 61.5795 12.5867 61.5907 12.6228C61.594 12.6335 61.5964 12.6446 61.5976 12.6558C61.5976 12.6616 61.5976 12.6673 61.5976 12.6732V13.3033V16.1213V16.5519C61.5976 16.5969 61.5798 16.64 61.5481 16.6718C61.5165 16.7036 61.4735 16.7215 61.4287 16.7215H55.7909C55.7461 16.7215 55.7031 16.7036 55.6714 16.6718C55.6397 16.64 55.6219 16.5969 55.6219 16.5519V16.2527V14.4816V13.7935C55.6214 13.719 55.5917 13.6478 55.5393 13.5952C55.4868 13.5425 55.4159 13.5127 55.3417 13.5122H50.1252V27.2416V27.8694V27.9559C50.1253 27.975 50.1272 27.9941 50.1311 28.0129C50.1347 28.0311 50.1401 28.0488 50.1474 28.0658C50.1691 28.1169 50.2052 28.1605 50.2513 28.1912C50.2974 28.2219 50.3514 28.2383 50.4068 28.2384H55.3407C55.396 28.2383 55.4501 28.2218 55.4962 28.1911C55.5424 28.1605 55.5785 28.1169 55.6003 28.0658C55.6073 28.0487 55.6128 28.031 55.6166 28.0129C55.6204 27.9941 55.6223 27.975 55.6222 27.9559V27.8694V27.0688V21.7173H64.4838C64.5054 21.7173 64.5268 21.7173 64.5485 21.7173C65.0876 21.7106 65.6381 21.5022 66.1043 21.169C66.1415 21.1434 66.1784 21.115 66.2146 21.0867C66.2508 21.0583 66.2862 21.0296 66.3214 21C66.3723 20.9555 66.4248 20.9092 66.4742 20.8616C66.9837 20.3699 67.3251 19.7198 67.3131 19.0593L67.3144 14.2622Z" fill="#3E2E7F"/>
<path d="M47.8762 9.80443C47.8463 9.43516 47.7367 9.07687 47.5548 8.75447C47.373 8.43208 47.1234 8.15334 46.8233 7.93766L46.7774 7.90493C46.7545 7.88907 46.7313 7.87347 46.7079 7.85813L46.6913 7.84765C46.6373 7.81355 46.582 7.78082 46.5254 7.74945C46.0932 7.51724 45.6102 7.3965 45.1199 7.39809H33.285C32.6115 7.40013 31.9977 7.61519 31.5201 7.98394C31.4969 8.00159 31.474 8.01975 31.4515 8.03841C31.4189 8.06399 31.3871 8.09314 31.356 8.12152C31.3249 8.14991 31.2997 8.17267 31.2724 8.20105L31.2709 8.20233C30.8406 8.63023 30.5773 9.19868 30.5285 9.80468C30.5285 9.82079 30.5268 9.8369 30.5268 9.85327C30.5268 9.85327 30.5268 9.85455 30.5268 9.85506V12.5025H42.7122C42.7348 12.5026 42.7571 12.5071 42.7779 12.5158L42.7927 12.523C42.8002 12.5272 42.8073 12.5319 42.8141 12.5371C42.8349 12.5528 42.8518 12.5732 42.8635 12.5967C42.8751 12.6201 42.8811 12.6459 42.8811 12.6721V23.027C42.8811 23.0493 42.8768 23.0714 42.8683 23.092C42.8598 23.1125 42.8474 23.1312 42.8317 23.147C42.816 23.1627 42.7974 23.1752 42.7769 23.1837C42.7564 23.1922 42.7344 23.1966 42.7122 23.1966H35.6783C35.6501 23.1966 35.6225 23.1896 35.5978 23.1761L35.5929 23.1731C35.5805 23.1661 35.569 23.1575 35.5588 23.1475C35.5273 23.1156 35.5095 23.0725 35.5094 23.0275V13.7937C35.5095 13.753 35.5008 13.7128 35.4839 13.6758C35.47 13.6454 35.451 13.6177 35.4276 13.594C35.4212 13.5876 35.4145 13.5815 35.4075 13.5758C35.3573 13.5341 35.2942 13.5112 35.2291 13.5111H30.5161V25.3625C30.5138 25.5583 30.5317 25.7538 30.5693 25.9458C30.5711 25.9556 30.5731 25.9653 30.5752 25.975C30.5828 26.0118 30.5912 26.0484 30.6006 26.0844C30.6037 26.0965 30.6068 26.11 30.6101 26.1208C30.619 26.154 30.6282 26.1872 30.6383 26.22C30.6427 26.2343 30.6473 26.2489 30.6518 26.2632C30.6687 26.3143 30.6867 26.3655 30.7066 26.4166C30.7398 26.5026 30.7774 26.5867 30.8192 26.6688C30.8292 26.6887 30.8396 26.7084 30.85 26.7281C30.8605 26.7478 30.8755 26.7739 30.8883 26.7966L30.9173 26.846C30.9699 26.9331 31.0271 27.0173 31.0888 27.0981C31.1086 27.1237 31.1288 27.1493 31.1496 27.1748C31.4247 27.5101 31.7712 27.7791 32.1636 27.9621C32.556 28.1451 32.9844 28.2373 33.417 28.232H44.9798C46.5339 28.2525 47.8971 27.0081 47.8795 25.3615V16.5995V11.7019V9.85506C47.8782 9.83818 47.8777 9.82233 47.8762 9.80443Z" fill="#3E2E7F"/>
<path d="M79.6523 7.40625H69.0395C68.9931 7.40691 68.9475 7.41838 68.9063 7.43975C68.8616 7.46388 68.8242 7.49976 68.7983 7.54354C68.7723 7.58731 68.7586 7.63735 68.7588 7.68831V12.2205C68.7588 12.2952 68.7883 12.3669 68.8408 12.4198C68.8933 12.4728 68.9646 12.5027 69.039 12.503H73.9852C74.0212 12.5032 74.0562 12.5148 74.0852 12.5362C74.1142 12.5576 74.1356 12.5877 74.1465 12.6222C74.1498 12.633 74.1521 12.644 74.1533 12.6552C74.1533 12.6611 74.1533 12.6667 74.1533 12.6726V27.2341V27.7983V27.955C74.1533 27.9742 74.1553 27.9933 74.1592 28.0121C74.1628 28.0302 74.1682 28.048 74.1755 28.065C74.1971 28.1161 74.2333 28.1597 74.2794 28.1904C74.3255 28.2211 74.3795 28.2375 74.4348 28.2376H79.3695C79.444 28.2376 79.5154 28.208 79.5681 28.1553C79.6209 28.1026 79.6507 28.031 79.651 27.9563V7.40625H79.6523Z" fill="#3E2E7F"/>
<path d="M28.8457 24.4016C28.8457 24.3423 28.8457 24.2838 28.8437 24.226C28.8409 24.1377 28.8353 24.0513 28.8277 23.9677C28.8236 23.9242 28.8185 23.8807 28.8131 23.8378C28.8119 23.8288 28.8108 23.8201 28.8098 23.8122C28.8042 23.7713 28.7984 23.7306 28.7915 23.69C28.7899 23.68 28.7879 23.6698 28.7864 23.6595C28.78 23.623 28.7731 23.5861 28.7657 23.5496C28.764 23.5406 28.7619 23.5317 28.7601 23.5225C28.7528 23.4869 28.7446 23.4514 28.7362 23.4158C28.7329 23.4028 28.7298 23.3903 28.7265 23.3765C28.7184 23.3435 28.71 23.3105 28.701 23.2777C28.701 23.2747 28.6993 23.2716 28.6982 23.2683C28.6939 23.2522 28.6891 23.2363 28.6845 23.2202C28.6768 23.1946 28.6692 23.1691 28.6613 23.1435L28.646 23.0949C28.6338 23.0581 28.6205 23.0213 28.6083 22.9847L28.5935 22.9448C28.5833 22.9177 28.5731 22.8908 28.5627 22.8642L28.5444 22.8182C28.5316 22.7873 28.5189 22.7566 28.5054 22.7262C28.5003 22.7139 28.4949 22.7006 28.4896 22.6898C28.4748 22.6569 28.4595 22.6241 28.444 22.5914L28.4244 22.551C28.4104 22.5226 28.3961 22.4942 28.3813 22.4661C28.3762 22.4559 28.3711 22.4459 28.3658 22.4359C28.3464 22.3993 28.3263 22.363 28.3059 22.327L28.2876 22.295C28.271 22.2664 28.2542 22.2382 28.2366 22.2101L28.218 22.1797C28.1956 22.1436 28.1729 22.1081 28.1495 22.0725L28.1357 22.0521C28.1156 22.0222 28.0952 21.9927 28.0743 21.9633L28.0537 21.9342C28.0284 21.8989 28.0029 21.8639 27.9773 21.8293C27.9503 21.7943 27.923 21.7598 27.896 21.7253L27.8435 21.659C27.7954 21.599 27.7467 21.5393 27.6973 21.48C27.6555 21.4289 27.6132 21.3808 27.5699 21.3317C27.533 21.2889 27.4958 21.2463 27.4583 21.2038C27.4165 21.1566 27.3741 21.1097 27.3309 21.0632C27.2713 20.9977 27.2111 20.9326 27.1503 20.8678C27.1094 20.824 27.0681 20.7805 27.0265 20.7371C26.9445 20.6519 26.8618 20.5667 26.7786 20.4814C26.7356 20.4369 26.692 20.3924 26.6484 20.3479L26.3937 20.0866C26.2653 19.9552 26.1364 19.8218 26.0072 19.6864C25.5996 19.2578 24.9989 18.6466 24.3283 17.9731C24.1424 17.7864 23.951 17.5948 23.7569 17.4013L23.5243 17.1693L23.4048 17.0502L23.1709 16.8174C21.7537 15.4087 20.3395 14.0211 19.9355 13.624C19.9144 13.6037 19.8912 13.5858 19.8662 13.5705C19.8043 13.5321 19.7329 13.5116 19.6601 13.5115H12.2822C12.2711 13.5115 12.2603 13.5147 12.251 13.5209C12.2417 13.527 12.2345 13.5358 12.2302 13.5461C12.2259 13.5564 12.2247 13.5677 12.2268 13.5786C12.2289 13.5896 12.2342 13.5997 12.242 13.6076L12.7589 14.1357L12.8863 14.2664L15.7075 17.1471L21.3481 22.9085C21.3716 22.9322 21.3875 22.9624 21.3939 22.9952C21.4003 23.028 21.3968 23.0619 21.384 23.0928C21.3712 23.1236 21.3496 23.15 21.3219 23.1685C21.2942 23.187 21.2617 23.1969 21.2284 23.1969H10.1053C10.0605 23.1967 10.0163 23.2072 9.97643 23.2276C9.93654 23.2481 9.9021 23.2778 9.87601 23.3143C9.85804 23.339 9.84426 23.3665 9.83525 23.3956C9.83245 23.4043 9.83015 23.4135 9.82811 23.4227C9.82444 23.4414 9.82256 23.4605 9.82251 23.4795V27.5532V27.9534C9.8225 27.963 9.82301 27.9727 9.82404 27.9823C9.83006 28.0425 9.85545 28.0991 9.89639 28.1436C9.90231 28.1505 9.90869 28.1569 9.9155 28.1628C9.96713 28.2098 10.0343 28.236 10.104 28.2362H24.9311C25.9894 28.2362 27.0214 27.8299 27.75 27.0599C28.5887 26.1738 28.8361 25.2128 28.8434 24.4004L28.8457 24.4016Z" fill="#3E2E7F"/>
</svg>
