<svg width="98" height="36" viewBox="0 0 98 36" fill="none" xmlns="http://www.w3.org/2000/svg">
<path d="M17.3186 25.2962C19.0239 27.656 23.3111 31.4299 26.8176 27.6476C30.3242 23.8652 26.0327 19.5157 23.4486 17.8137C21.0733 16.1921 17.013 12.2042 19.774 9.22594C22.5351 6.24768 26.1991 8.76964 27.686 10.4029" stroke="#D9D9D9" stroke-width="3.82034"/>
<path d="M76.5168 8.15381H82.3196M88.1223 8.15381H82.3196M82.3196 8.15381V29.7064" stroke="#D9D9D9" stroke-width="3.82034"/>
<path fill-rule="evenodd" clip-rule="evenodd" d="M43.6769 23.0181C47.9759 23.0181 51.4609 19.5331 51.4609 15.2342C51.4609 15.0446 51.4541 14.8566 51.4408 14.6704C50.182 13.7954 48.6525 13.2825 47.0032 13.2825C42.7042 13.2825 39.2192 16.7675 39.2192 21.0664C39.2192 21.256 39.226 21.444 39.2393 21.6302C40.4982 22.5052 42.0277 23.0181 43.6769 23.0181Z" fill="#A5949A"/>
<path fill-rule="evenodd" clip-rule="evenodd" d="M43.7149 23.0182C39.4786 23.0182 36.0444 19.584 36.0444 15.3477C36.0444 15.1609 36.051 14.9758 36.0642 14.7924C37.3047 13.93 38.812 13.4244 40.4374 13.4244C44.6737 13.4244 48.1079 16.8587 48.1079 21.095C48.1079 21.2817 48.1012 21.4669 48.0881 21.6503C46.8476 22.5127 45.3403 23.0182 43.7149 23.0182Z" fill="#A5949A"/>
<path fill-rule="evenodd" clip-rule="evenodd" d="M40.2764 24.929C38.1461 21.195 39.4462 16.441 43.1802 14.3107C43.345 14.2167 43.5117 14.1294 43.6801 14.0486C45.0639 14.7085 46.2672 15.7827 47.0844 17.2151C49.2147 20.9492 47.9146 25.7031 44.1806 27.8334C44.0158 27.9274 43.8491 28.0148 43.6806 28.0955C42.2969 27.4357 41.0936 26.3614 40.2764 24.929Z" fill="#A5949A"/>
<path fill-rule="evenodd" clip-rule="evenodd" d="M48.0858 21.6492C46.8322 22.5125 45.3131 23.0179 43.676 23.0179C42.0416 23.0179 40.5248 22.5142 39.2725 21.6535C39.057 18.7524 40.4842 15.848 43.1793 14.3104C43.3441 14.2164 43.5108 14.1291 43.6792 14.0483C45.063 14.7082 46.2663 15.7824 47.0835 17.2148C47.8815 18.6137 48.1982 20.1556 48.0858 21.6492Z" fill="#F91A50"/>
<path fill-rule="evenodd" clip-rule="evenodd" d="M43.6798 21.9583C44.9188 21.9583 46.0796 21.6232 47.0763 21.0386C47.066 18.5473 45.7008 16.3758 43.6795 15.2227C41.6582 16.3757 40.293 18.5471 40.2826 21.0382C41.2795 21.6231 42.4405 21.9583 43.6798 21.9583ZM39.2594 20.3011C39.4852 17.9884 40.7231 15.9724 42.5245 14.7018C41.8432 14.4694 41.1127 14.3434 40.3528 14.3434C39.1138 14.3434 37.953 14.6785 36.9563 15.2631C36.9646 17.2727 37.8545 19.0743 39.2594 20.3011ZM43.6795 14.0276C42.6708 13.5501 41.543 13.283 40.3528 13.283C39.179 13.283 38.0659 13.5428 37.0679 14.008C37.6444 10.8805 40.3854 8.5112 43.6798 8.5112C46.9743 8.5112 49.7153 10.8806 50.2918 14.0084C49.2935 13.5429 48.1802 13.283 47.0061 13.283C45.816 13.283 44.6882 13.5501 43.6795 14.0276ZM44.8345 14.7018C45.5157 14.4694 46.2462 14.3434 47.0061 14.3434C48.2454 14.3434 49.4064 14.6787 50.4033 15.2635C50.3949 17.2732 49.5047 19.0749 48.0996 20.3016C47.8739 17.9887 46.6359 15.9725 44.8345 14.7018ZM51.4266 16.0006C51.1988 18.3324 49.9422 20.3626 48.1166 21.6313C47.9449 24.0282 46.6879 26.1247 44.8345 27.4321C45.5157 27.6644 46.2462 27.7905 47.0061 27.7905C50.7194 27.7905 53.7297 24.7803 53.7297 21.0669C53.7297 19.0459 52.838 17.2332 51.4266 16.0006ZM43.6795 28.1063C42.6708 28.5838 41.543 28.8509 40.3528 28.8509C36.0538 28.8509 32.5688 25.3659 32.5688 21.0669C32.5688 18.4169 33.8931 16.0762 35.916 14.6704C36.2051 10.6349 39.5706 7.45081 43.6798 7.45081C47.7891 7.45081 51.1547 10.6352 51.4436 14.6709C53.4661 16.0767 54.7901 18.4172 54.7901 21.0669C54.7901 25.3659 51.3051 28.8509 47.0061 28.8509C45.816 28.8509 44.6882 28.5838 43.6795 28.1063ZM42.5245 27.4321C41.8432 27.6644 41.1127 27.7905 40.3528 27.7905C36.6395 27.7905 33.6292 24.7803 33.6292 21.0669C33.6292 19.0456 34.5212 17.2327 35.933 16.0001C36.1605 18.3318 37.4169 20.362 39.2423 21.6308C39.4139 24.0279 40.6709 26.1246 42.5245 27.4321ZM43.6795 26.9112C41.99 25.9474 40.7588 24.2721 40.3941 22.2934C41.3924 22.7588 42.5057 23.0187 43.6798 23.0187C44.8536 23.0187 45.9667 22.7589 46.9647 22.2937C46.6 24.2723 45.3689 25.9475 43.6795 26.9112Z" fill="black"/>
<path d="M60.7202 29.6687V18.4167M60.7202 18.4167V8.08093H67.7C69.2951 8.08093 72.4853 9.09779 72.4853 13.1652C72.4853 17.2326 69.2951 18.3609 67.7 18.4167H60.7202Z" stroke="#D9D9D9" stroke-width="3.82034"/>
</svg>
