<svg width="98" height="36" viewBox="0 0 98 36" fill="none" xmlns="http://www.w3.org/2000/svg">
<path d="M28.3227 11.8674L24.8288 7.20754C24.8022 7.17214 24.7677 7.1434 24.728 7.12359C24.6884 7.10378 24.6447 7.09344 24.6004 7.09338H13.5084C11.9004 7.10459 10.8254 8.07754 10.8254 9.46907V12.2881H28.2927C28.3248 12.2881 28.3563 12.2792 28.3836 12.2624C28.4109 12.2455 28.433 12.2214 28.4473 12.1926C28.4617 12.1639 28.4678 12.1318 28.4649 12.0998C28.462 12.0678 28.4503 12.0372 28.431 12.0116L28.3227 11.8674Z" fill="white"/>
<path d="M88.2109 7.09339H80.6958V12.2881H84.5316C84.8518 12.2881 85.0073 12.207 85.187 11.9547L88.3159 7.41918L88.3529 7.36549C88.3712 7.33958 88.382 7.30913 88.3841 7.27748C88.3862 7.24582 88.3796 7.2142 88.3649 7.18608C88.3502 7.15796 88.3281 7.13443 88.3009 7.11807C88.2738 7.10172 88.2426 7.09318 88.2109 7.09339Z" fill="white"/>
<path d="M67.2301 13.9892V9.37593C67.2301 9.37593 67.222 8.49368 66.5221 7.80456C66.0733 7.36148 65.3403 7.00024 64.1426 7.00024H49.9429C49.8863 7.00027 49.831 7.01697 49.7838 7.04826C49.7366 7.07955 49.6997 7.12403 49.6777 7.17617C49.6703 7.19352 49.6647 7.21161 49.661 7.23012C49.657 7.24924 49.655 7.26872 49.655 7.28825V7.46834V7.69875V11.4931V11.7276V12.1968H61.213C61.2319 12.1968 61.2507 12.2 61.2685 12.2062C61.2817 12.2106 61.2943 12.2166 61.306 12.2241L61.3115 12.2278C61.3431 12.2497 61.3665 12.2815 61.3779 12.3182C61.3813 12.3292 61.3837 12.3405 61.385 12.3519C61.385 12.3579 61.385 12.3636 61.385 12.3696V13.0118V15.884V16.3229C61.385 16.3687 61.3668 16.4127 61.3344 16.4451C61.302 16.4775 61.2581 16.4957 61.2123 16.4957H55.4478C55.402 16.4957 55.3581 16.4775 55.3257 16.4451C55.2933 16.4127 55.2751 16.3687 55.2751 16.3229V16.018V14.2128V13.5114C55.2746 13.4356 55.2442 13.363 55.1906 13.3093C55.137 13.2557 55.0644 13.2253 54.9886 13.2247H49.655V27.218V27.8578V27.9459C49.655 27.9654 49.657 27.9849 49.661 28.004C49.6647 28.0225 49.6703 28.0406 49.6777 28.058C49.6998 28.1101 49.7367 28.1545 49.7839 28.1858C49.831 28.217 49.8863 28.2338 49.9429 28.2339H54.9876C55.0441 28.2337 55.0994 28.217 55.1466 28.1857C55.1938 28.1544 55.2308 28.11 55.253 28.058C55.2602 28.0405 55.2658 28.0225 55.2697 28.004C55.2735 27.9849 55.2755 27.9654 55.2754 27.9459V27.8578V27.0418V21.5875H64.3359C64.3581 21.5875 64.3799 21.5875 64.4021 21.5875C64.9533 21.5807 65.5162 21.3683 65.9928 21.0287C66.0309 21.0026 66.0686 20.9737 66.1056 20.9447C66.1426 20.9158 66.1788 20.8866 66.2148 20.8564C66.2669 20.811 66.3205 20.7639 66.3711 20.7154C66.892 20.2142 67.2411 19.5516 67.2288 18.8784L67.2301 13.9892Z" fill="white"/>
<path d="M47.5511 9.53889C47.5206 9.16254 47.4085 8.79735 47.2225 8.46877C47.0366 8.14018 46.7814 7.85609 46.4745 7.63626L46.4276 7.6029C46.4042 7.58674 46.3805 7.57084 46.3565 7.5552L46.3396 7.54452C46.2844 7.50976 46.2279 7.4764 46.17 7.44443C45.7281 7.20776 45.2342 7.0847 44.733 7.08632H32.6324C31.9437 7.0884 31.3162 7.3076 30.8278 7.68343C30.8041 7.70142 30.7806 7.71992 30.7577 7.73895C30.7244 7.76501 30.6918 7.79472 30.66 7.82365C30.6282 7.85259 30.6025 7.87578 30.5746 7.90471L30.573 7.90602C30.1331 8.34214 29.8638 8.9215 29.814 9.53915C29.814 9.55557 29.8122 9.57199 29.8122 9.58867V9.5905V12.2889H42.2712C42.2942 12.2889 42.3171 12.2935 42.3384 12.3024L42.3535 12.3097C42.3611 12.3139 42.3684 12.3187 42.3754 12.324C42.3967 12.3401 42.4139 12.3609 42.4258 12.3848C42.4377 12.4086 42.4439 12.435 42.4439 12.4617V23.0155C42.4439 23.0382 42.4395 23.0607 42.4308 23.0817C42.4221 23.1027 42.4094 23.1218 42.3934 23.1378C42.3773 23.1539 42.3583 23.1666 42.3373 23.1753C42.3163 23.1839 42.2939 23.1884 42.2712 23.1883H35.0793C35.0506 23.1884 35.0223 23.1812 34.997 23.1675L34.9921 23.1644C34.9793 23.1573 34.9676 23.1485 34.9572 23.1383C34.9249 23.1058 34.9068 23.0619 34.9066 23.0161V13.6048C34.9067 13.5633 34.8978 13.5223 34.8806 13.4846C34.8664 13.4537 34.8469 13.4255 34.823 13.4012C34.8165 13.3947 34.8096 13.3886 34.8024 13.3827C34.7512 13.3402 34.6867 13.3169 34.6201 13.3168H29.8012V25.3959C29.7989 25.5954 29.8172 25.7947 29.8557 25.9904C29.8575 26.0003 29.8596 26.0102 29.8616 26.0201C29.8695 26.0577 29.8781 26.0949 29.8877 26.1317C29.8908 26.1439 29.8939 26.1578 29.8973 26.1687C29.9065 26.2026 29.9158 26.2365 29.9262 26.2698C29.9307 26.2844 29.9354 26.2993 29.9401 26.3139C29.9572 26.366 29.9757 26.4181 29.9961 26.4703C30.03 26.5578 30.0684 26.6436 30.1112 26.7272C30.1213 26.7476 30.132 26.7676 30.1427 26.7877C30.1534 26.8078 30.1688 26.8344 30.1818 26.8576L30.2115 26.9079C30.2652 26.9966 30.3237 27.0824 30.3868 27.1648C30.4071 27.1909 30.4277 27.217 30.449 27.243C30.7303 27.5847 31.0845 27.8589 31.4858 28.0454C31.887 28.2319 32.3249 28.3259 32.7673 28.3205H44.5897C46.1786 28.3414 47.5725 27.0731 47.5545 25.3949V16.4645V11.4728V9.5905C47.5532 9.5733 47.5527 9.55714 47.5511 9.53889Z" fill="white"/>
<path d="M79.6684 7.09338H68.8173C68.7699 7.09405 68.7232 7.10574 68.6811 7.12753C68.6354 7.15213 68.5972 7.18869 68.5706 7.23331C68.5441 7.27793 68.5301 7.32893 68.5303 7.38086V12.0001C68.5303 12.0763 68.5604 12.1493 68.6141 12.2033C68.6678 12.2573 68.7407 12.2878 68.8168 12.2881H73.874C73.9108 12.2882 73.9466 12.3001 73.9763 12.3219C74.0059 12.3437 74.0278 12.3744 74.0389 12.4096C74.0423 12.4205 74.0446 12.4318 74.0459 12.4432C74.0459 12.4492 74.0459 12.4549 74.0459 12.4609V27.3022V27.8772V28.037C74.0459 28.0565 74.0479 28.076 74.0519 28.0951C74.0556 28.1136 74.0612 28.1317 74.0686 28.149C74.0907 28.2011 74.1276 28.2455 74.1748 28.2768C74.2219 28.3081 74.2772 28.3248 74.3338 28.325H79.3792C79.4553 28.325 79.5284 28.2948 79.5823 28.2411C79.6362 28.1873 79.6667 28.1144 79.6671 28.0383V7.09338H79.6684Z" fill="white"/>
<path d="M28.4501 24.3559C28.4501 24.2954 28.4501 24.2357 28.448 24.1768C28.4451 24.0869 28.4394 23.9988 28.4316 23.9136C28.4274 23.8693 28.4222 23.825 28.4167 23.7812C28.4154 23.772 28.4144 23.7632 28.4133 23.7551C28.4076 23.7134 28.4016 23.672 28.3946 23.6305C28.393 23.6204 28.3909 23.6099 28.3894 23.5995C28.3829 23.5622 28.3758 23.5247 28.3683 23.4874C28.3665 23.4783 28.3644 23.4692 28.3625 23.4598C28.355 23.4236 28.3467 23.3873 28.3381 23.3511C28.3347 23.3378 28.3316 23.3251 28.3282 23.311C28.3198 23.2774 28.3112 23.2437 28.3021 23.2104C28.3021 23.2072 28.3003 23.2041 28.2993 23.2007C28.2948 23.1843 28.2899 23.1682 28.2852 23.1517C28.2774 23.1257 28.2696 23.0996 28.2615 23.0735L28.2459 23.024C28.2333 22.9865 28.2198 22.949 28.2073 22.9117L28.1922 22.871C28.1818 22.8434 28.1714 22.816 28.1607 22.7889L28.1419 22.742C28.1289 22.7105 28.1159 22.6792 28.1021 22.6482C28.0969 22.6357 28.0914 22.6221 28.0859 22.6112C28.0708 22.5776 28.0552 22.5442 28.0393 22.5108L28.0192 22.4697C28.0049 22.4407 27.9903 22.4118 27.9752 22.3831C27.97 22.3727 27.9648 22.3625 27.9593 22.3524C27.9395 22.3151 27.9189 22.2781 27.8981 22.2413L27.8794 22.2088C27.8624 22.1796 27.8452 22.1509 27.8273 22.1222L27.8082 22.0912C27.7853 22.0545 27.7621 22.0182 27.7382 21.982L27.7241 21.9612C27.7035 21.9307 27.6827 21.9007 27.6613 21.8707L27.6402 21.841C27.6144 21.805 27.5883 21.7694 27.5621 21.7341C27.5345 21.6984 27.5066 21.6632 27.479 21.6281L27.4253 21.5606C27.3762 21.4994 27.3264 21.4386 27.2758 21.3781C27.2331 21.326 27.1899 21.277 27.1456 21.2269C27.1079 21.1833 27.0699 21.1399 27.0315 21.0966C26.9888 21.0485 26.9454 21.0007 26.9013 20.9533C26.8403 20.8866 26.7787 20.8202 26.7166 20.7542C26.6747 20.7095 26.6325 20.6651 26.59 20.621C26.5061 20.5341 26.4216 20.4472 26.3365 20.3603C26.2925 20.315 26.248 20.2696 26.2034 20.2243L25.9429 19.9579C25.8117 19.8239 25.68 19.688 25.5478 19.55C25.131 19.1132 24.5168 18.4903 23.8312 17.8038C23.6411 17.6135 23.4455 17.4183 23.247 17.221L23.0092 16.9846L22.887 16.8631L22.6479 16.626C21.1988 15.1901 19.7529 13.7759 19.3398 13.3711C19.3182 13.3504 19.2945 13.3322 19.2689 13.3167C19.2056 13.2775 19.1327 13.2566 19.0582 13.2565H11.5147C11.5033 13.2564 11.4922 13.2598 11.4828 13.2661C11.4733 13.2723 11.4659 13.2813 11.4615 13.2918C11.4571 13.3022 11.4559 13.3138 11.458 13.3249C11.4602 13.3361 11.4656 13.3464 11.4735 13.3545L12.0021 13.8927L12.1323 14.0259L15.0168 16.9619L20.7841 22.834C20.8081 22.8582 20.8244 22.8889 20.8309 22.9224C20.8374 22.9558 20.8339 22.9904 20.8208 23.0218C20.8077 23.0533 20.7856 23.0801 20.7573 23.099C20.729 23.1179 20.6957 23.128 20.6617 23.128H9.28889C9.2431 23.1278 9.19792 23.1385 9.15713 23.1593C9.11635 23.1801 9.08114 23.2104 9.05446 23.2476C9.03608 23.2728 9.022 23.3008 9.01278 23.3305C9.00991 23.3394 9.00757 23.3488 9.00549 23.3582C9.00172 23.3772 8.99981 23.3966 8.99976 23.416V27.5679V27.9758C8.99974 27.9857 9.00027 27.9955 9.00132 28.0053C9.00747 28.0667 9.03344 28.1244 9.0753 28.1697C9.08134 28.1767 9.08787 28.1832 9.09483 28.1893C9.14762 28.2372 9.2163 28.2639 9.28759 28.2641H24.4475C25.5296 28.2641 26.5848 27.8499 27.3297 27.0652C28.1872 26.1621 28.4402 25.1826 28.4477 24.3546L28.4501 24.3559Z" fill="white"/>
</svg>
