<svg width="3914" height="1370" viewBox="0 0 3914 1370" fill="none" xmlns="http://www.w3.org/2000/svg">
<g clip-path="url(#clip0_4053_8184)">
<path d="M943.909 564.335L773.186 336.259C770.567 332.714 766.406 330.711 762.092 330.711H220.03C141.448 331.327 88.9062 378.946 88.9062 447.061V584.985H942.368C949.302 584.985 953.308 576.972 949.148 571.424L943.909 564.335Z" fill="#BDEC00"/>
<path d="M3905.68 330.557H3538.5V584.831H3726.02C3741.74 584.831 3749.29 580.825 3758.07 568.496L3910.92 346.43L3912.77 343.81C3916.62 338.262 3912.77 330.557 3905.83 330.557H3905.68Z" fill="#BDEC00"/>
<path d="M2871.94 672.672V446.907C2871.94 446.907 2871.48 403.757 2837.43 370.008C2815.55 348.433 2779.65 330.711 2721.25 330.711H2027.57C2021.72 330.711 2016.78 334.255 2014.63 339.341C2014.32 340.111 2014.01 341.036 2013.86 341.961C2013.7 342.885 2013.55 343.81 2013.55 344.735V584.985H2578.26C2579.19 584.985 2580.11 585.14 2581.03 585.448C2581.65 585.602 2582.27 585.91 2582.88 586.372C2582.88 586.372 2583.04 586.372 2583.19 586.527C2584.73 587.605 2585.81 589.146 2586.43 590.996C2586.58 591.458 2586.74 592.074 2586.74 592.691C2586.74 592.999 2586.74 593.307 2586.74 593.615V787.172C2586.74 791.795 2582.88 795.648 2578.26 795.648H2296.6C2291.98 795.648 2288.12 791.795 2288.12 787.172V649.556C2288.12 647.398 2287.66 645.395 2286.89 643.7C2284.73 638.922 2279.8 635.532 2274.1 635.532H2013.55V1356.13C2013.55 1357.06 2013.55 1358.13 2013.86 1358.9C2014.01 1359.83 2014.32 1360.75 2014.63 1361.52C2016.01 1364.76 2018.48 1367.38 2021.72 1368.77C2023.56 1369.54 2025.57 1370.15 2027.57 1370.15H2274.1C2276.26 1370.15 2278.26 1369.69 2279.96 1368.77C2283.04 1367.23 2285.66 1364.76 2287.04 1361.52C2287.35 1360.75 2287.66 1359.83 2287.82 1358.9C2287.97 1357.98 2288.12 1357.06 2288.12 1356.13V1044.99H2730.8C2731.88 1044.99 2732.96 1044.99 2734.04 1044.99C2761 1044.68 2788.43 1034.2 2811.7 1017.71C2813.54 1016.33 2815.39 1015.09 2817.24 1013.55C2819.09 1012.17 2820.79 1010.63 2822.64 1009.24C2825.25 1007.08 2827.87 1004.77 2830.34 1002.3C2855.92 977.801 2872.87 945.285 2872.25 912.306V672.98L2871.94 672.672Z" fill="#BDEC00"/>
<path d="M1900.91 450.297C1897.52 411.308 1877.8 378.638 1848.37 357.217C1847.6 356.601 1846.83 356.138 1846.06 355.522C1844.98 354.751 1843.75 353.981 1842.52 353.21C1842.21 353.056 1841.9 352.902 1841.75 352.748C1839.13 351.053 1836.35 349.358 1833.43 347.817C1812.93 336.721 1788.9 330.403 1763.16 330.249H1171.95C1138.36 330.249 1107.7 341.036 1083.82 359.529C1082.58 360.453 1081.5 361.378 1080.43 362.303C1078.73 363.689 1077.19 365.076 1075.65 366.463C1074.26 367.696 1072.88 369.083 1071.49 370.47C1050.69 391.12 1037.13 418.705 1034.35 450.451C1034.35 451.222 1034.35 452.146 1034.35 452.917V585.139H1643.13C1644.37 585.139 1645.45 585.448 1646.37 585.756C1646.68 585.756 1646.83 585.91 1647.14 586.064C1647.45 586.218 1647.91 586.526 1648.22 586.835C1650.22 588.376 1651.61 590.841 1651.61 593.615V1110.18C1651.61 1112.49 1650.68 1114.65 1649.14 1116.19C1647.6 1117.73 1645.45 1118.65 1643.13 1118.65H1291.83C1290.44 1118.65 1289.05 1118.35 1287.82 1117.57C1287.82 1117.57 1287.67 1117.57 1287.51 1117.57C1286.9 1117.27 1286.28 1116.8 1285.82 1116.34C1284.89 1115.42 1284.28 1114.34 1283.81 1113.11C1283.51 1112.18 1283.35 1111.26 1283.35 1110.33V649.71C1283.35 647.552 1282.89 645.549 1282.12 643.854C1281.35 642.313 1280.42 640.926 1279.35 639.847C1279.04 639.539 1278.73 639.231 1278.42 638.922C1275.96 636.919 1272.87 635.686 1269.48 635.686H1034.05V1226.99C1034.05 1237.01 1034.82 1246.72 1036.67 1256.12C1036.67 1256.58 1036.82 1257.04 1036.97 1257.5C1037.28 1259.35 1037.74 1261.2 1038.21 1262.9C1038.21 1263.51 1038.52 1264.13 1038.67 1264.75C1039.13 1266.44 1039.59 1268.14 1040.06 1269.68C1040.21 1270.45 1040.52 1271.06 1040.67 1271.83C1041.44 1274.45 1042.37 1277.07 1043.45 1279.54C1045.14 1283.85 1046.99 1288.02 1049.15 1292.18C1049.61 1293.1 1050.23 1294.18 1050.69 1295.1C1051.3 1296.18 1051.92 1297.42 1052.54 1298.49C1053 1299.27 1053.46 1300.19 1053.92 1300.96C1056.54 1305.28 1059.47 1309.59 1062.55 1313.6C1063.48 1314.83 1064.56 1316.22 1065.63 1317.45C1092.6 1350.43 1134.2 1370.77 1178.88 1370.15H1756.54C1834.2 1371.23 1902.3 1309.13 1901.38 1226.99V789.792V545.38V453.225C1901.38 452.454 1901.38 451.53 1901.38 450.759L1900.91 450.297Z" fill="#BDEC00"/>
<path d="M3488.27 330.557H2958.07C2956.38 330.557 2954.84 330.865 2953.3 331.482C2952.68 331.636 2952.06 331.944 2951.45 332.252C2946.98 334.718 2944.05 339.341 2944.05 344.735V570.808C2944.05 578.667 2950.37 584.831 2958.07 584.831H3205.22C3206.3 584.831 3207.22 584.985 3208.15 585.448C3210.61 586.372 3212.46 588.376 3213.23 590.841C3213.39 591.304 3213.54 591.92 3213.54 592.537C3213.54 592.845 3213.54 593.153 3213.54 593.461V1355.98C3213.54 1356.9 3213.54 1357.98 3213.85 1358.75C3214 1359.67 3214.31 1360.6 3214.62 1361.37C3216.01 1364.61 3218.47 1367.23 3221.71 1368.61C3223.56 1369.38 3225.56 1370 3227.56 1370H3474.09C3481.8 1370 3488.12 1363.68 3488.12 1355.98V330.557H3488.27Z" fill="#BDEC00"/>
<path d="M950.226 1178.6C950.226 1175.67 950.226 1172.74 950.226 1169.82C950.226 1165.35 949.764 1161.03 949.455 1156.87C949.301 1154.71 948.993 1152.56 948.685 1150.4C948.685 1149.94 948.685 1149.47 948.531 1149.01C948.223 1147.01 947.915 1145.01 947.607 1142.85C947.607 1142.39 947.452 1141.77 947.298 1141.31C946.99 1139.46 946.682 1137.61 946.22 1135.76C946.22 1135.3 946.066 1134.83 945.912 1134.37C945.603 1132.52 945.141 1130.83 944.679 1128.98C944.679 1128.36 944.371 1127.59 944.217 1126.98C943.754 1125.28 943.446 1123.74 942.984 1122.04C942.984 1122.04 942.984 1121.74 942.984 1121.58C942.83 1120.81 942.522 1120.04 942.214 1119.12C941.905 1117.88 941.443 1116.65 940.981 1115.26C940.673 1114.49 940.519 1113.72 940.211 1112.8C939.594 1110.95 938.978 1109.1 938.362 1107.25C938.053 1106.63 937.899 1105.86 937.591 1105.25C937.129 1103.86 936.513 1102.63 936.05 1101.24C935.742 1100.47 935.434 1099.7 935.126 1098.93C934.509 1097.39 933.893 1095.85 933.123 1094.3C932.815 1093.69 932.66 1093.07 932.352 1092.46C931.582 1090.76 930.812 1089.22 930.041 1087.52C929.733 1086.91 929.425 1086.14 929.117 1085.52C928.346 1084.13 927.73 1082.75 926.959 1081.36C926.651 1080.9 926.497 1080.28 926.189 1079.82C925.265 1077.97 924.186 1076.12 923.261 1074.43C922.953 1073.96 922.645 1073.35 922.337 1072.88C921.567 1071.5 920.642 1070.11 919.872 1068.72C919.564 1068.26 919.255 1067.64 918.947 1067.18C917.869 1065.33 916.636 1063.64 915.557 1061.79C915.403 1061.48 915.095 1061.17 914.941 1060.71C913.862 1059.17 912.938 1057.78 911.859 1056.24C911.551 1055.78 911.243 1055.32 910.781 1054.85C909.548 1053.16 908.161 1051.31 906.929 1049.61C905.542 1047.92 904.155 1046.07 902.923 1044.37C901.998 1043.3 901.228 1042.22 900.303 1041.14C897.838 1038.21 895.527 1035.13 893.061 1032.2C890.904 1029.73 888.901 1027.27 886.744 1024.8C884.895 1022.65 883.046 1020.64 881.197 1018.48C879.04 1016.17 877.037 1013.86 874.88 1011.55C871.952 1008.31 868.87 1005.08 865.789 1001.84C863.786 999.684 861.629 997.526 859.625 995.369C855.465 991.054 851.459 986.893 847.299 982.578C845.142 980.421 842.985 978.109 840.827 975.952C836.513 971.637 832.353 967.322 828.039 962.853C821.567 956.226 815.25 949.6 808.778 942.819C788.439 921.398 758.393 890.885 724.957 857.444C715.713 848.198 706.159 838.644 696.452 828.935C692.6 825.082 688.748 821.23 684.896 817.377C682.893 815.374 680.89 813.37 678.887 811.521C675.035 807.668 671.029 803.816 667.177 799.963C596.453 729.691 525.729 660.497 505.544 640.618C504.466 639.539 503.387 638.768 502.154 637.998C499.073 636.149 495.529 635.07 491.831 635.07H122.804C120.338 635.07 119.106 638.152 120.801 639.847L146.686 666.199L153.158 672.672L293.989 816.452L575.806 1103.86C580.274 1108.48 578.117 1115.88 572.57 1117.73C571.646 1118.04 570.721 1118.19 569.797 1118.19H14.0215C9.39902 1118.19 5.2388 1120.5 2.6194 1124.05C1.69491 1125.28 1.07858 1126.67 0.616329 1128.05C0.616329 1128.52 0.308165 1128.98 0.308165 1129.44C0.154082 1130.37 0 1131.29 0 1132.21V1355.51C0 1355.51 0 1356.44 0 1356.9C0.308165 1359.98 1.69491 1362.76 3.54389 1364.91C3.85206 1365.22 4.16022 1365.53 4.46839 1365.84C5.85513 1367.07 7.55004 1368.15 9.39902 1368.77C10.7858 1369.23 12.3266 1369.54 13.8674 1369.54H754.541C807.392 1369.54 859.009 1349.35 895.373 1310.82C937.283 1266.6 949.61 1218.67 949.918 1178.14L950.226 1178.6Z" fill="#BDEC00"/>
<path d="M52.5429 106.025C30.2009 106.025 10.9406 95.3914 4.77734 75.9741L23.7295 69.8099C28.506 84.1417 40.3704 88.4567 52.2347 88.4567C64.099 88.4567 74.8848 84.1417 74.8848 75.9741C74.8848 67.1901 62.8664 64.5703 52.851 61.9505L41.7571 59.1766C30.2009 56.2486 9.09165 49.4679 9.09165 30.0506C9.09165 11.5579 28.0438 0 50.5398 0C73.0358 0 88.1359 11.4038 92.4502 23.7323L73.9603 30.9753C70.1083 22.8076 61.7878 17.7222 49.9235 17.7222C38.0591 17.7222 30.2009 22.3453 30.2009 28.5096C30.2009 36.9854 44.3765 40.838 52.5429 42.8414L65.0235 46.2317C76.7338 49.1597 96.3023 54.2452 96.3023 73.6625C96.3023 93.0799 78.4287 106.179 52.3888 106.179L52.5429 106.025ZM155.624 103.867V2.15748H175.963V44.0742H234.668V2.15748H255.007V103.867H234.668V62.8751H175.963V103.867H155.624ZM376.578 106.025C342.834 106.025 314.945 84.4499 314.945 53.1665C314.945 21.883 342.526 0.154106 376.578 0.154106C410.63 0.154106 438.057 22.3453 438.057 53.1665C438.057 83.9876 410.784 106.025 376.578 106.025ZM336.208 53.1665C336.208 73.6625 354.544 87.8403 376.732 87.8403C398.92 87.8403 416.794 73.0461 416.794 53.1665C416.794 33.2868 399.382 18.3386 376.732 18.3386C354.082 18.3386 336.208 32.9786 336.208 53.1665ZM542.833 106.025C505.699 106.025 497.07 81.676 497.07 63.9539V2.15748H517.255V62.4128C517.255 77.207 524.651 87.8403 542.987 87.8403C561.323 87.8403 568.719 77.207 568.719 62.4128V2.15748H589.058V63.9539C589.058 81.0596 581.354 106.025 542.987 106.025H542.833ZM681.199 20.0337H643.295V2.15748H739.288V20.0337H701.384V103.867H681.353V19.8796L681.199 20.0337ZM1000.46 106.025C966.714 106.025 938.825 84.4499 938.825 53.1665C938.825 21.883 966.405 0.154106 1000.46 0.154106C1034.51 0.154106 1061.94 22.3453 1061.94 53.1665C1061.94 83.9876 1034.66 106.025 1000.46 106.025ZM960.088 53.1665C960.088 73.6625 978.424 87.8403 1000.61 87.8403C1022.8 87.8403 1040.67 73.0461 1040.67 53.1665C1040.67 33.2868 1023.26 18.3386 1000.61 18.3386C977.961 18.3386 960.088 32.9786 960.088 53.1665ZM1166.71 106.025C1129.58 106.025 1120.95 81.676 1120.95 63.9539V2.15748H1141.13V62.4128C1141.13 77.207 1148.53 87.8403 1166.87 87.8403C1185.2 87.8403 1192.6 77.207 1192.6 62.4128V2.15748H1212.94V63.9539C1212.94 81.0596 1205.23 106.025 1166.87 106.025H1166.71ZM1278.73 103.867V2.15748H1324.8C1336.36 2.15748 1366.71 5.08549 1366.71 34.8279C1366.71 53.937 1353.15 62.8751 1338.21 65.8032C1348.53 78.4398 1358.85 91.0765 1369.18 103.713H1346.37L1316.63 67.3442H1299.22V103.713H1278.88L1278.73 103.867ZM1299.07 50.2385H1321.41C1332.35 50.2385 1345.45 47.4646 1345.45 35.2902C1345.45 23.1159 1332.2 19.7255 1321.41 19.7255H1299.07V50.2385ZM1584.12 103.867V2.15748H1630.19C1643.14 2.15748 1672.1 5.08549 1672.1 34.5197C1672.1 63.9539 1642.52 67.9606 1631.27 67.9606H1604.61V103.867H1584.28H1584.12ZM1604.46 49.3138H1626.8C1637.74 49.3138 1650.84 47.1564 1650.84 34.5197C1650.84 21.883 1637.59 20.0337 1626.8 20.0337H1604.46V49.1597V49.3138ZM1707.39 103.867L1754.38 2.15748H1777.8L1824.8 103.867H1803.23C1798.91 94.9291 1794.6 86.1451 1790.13 77.207H1741.13C1736.82 86.1451 1732.5 94.9291 1728.03 103.867H1707.08H1707.39ZM1750.22 58.5602H1781.5C1776.26 47.7728 1770.87 36.5231 1766.09 25.5816H1765.63C1761.32 35.1361 1755.77 47.1564 1750.07 58.5602H1750.22ZM1914.63 106.179C1892.29 106.179 1873.03 95.5456 1866.86 76.1282L1885.81 69.964C1890.59 84.2958 1902.46 88.6108 1914.32 88.6108C1926.18 88.6108 1936.97 84.2958 1936.97 76.1282C1936.97 67.3442 1924.95 64.7244 1914.94 62.1046L1903.84 59.3307C1892.29 56.4027 1871.18 49.622 1871.18 30.2047C1871.18 11.8661 1890.13 0.154106 1912.62 0.154106C1935.12 0.154106 1950.22 11.5579 1954.54 23.8864L1936.05 31.1294C1932.19 22.9618 1923.87 17.8763 1912.01 17.8763C1900.14 17.8763 1892.29 22.4994 1892.29 28.6637C1892.29 37.1395 1906.46 40.9921 1914.63 42.9955L1927.11 46.3858C1938.82 49.3138 1958.39 54.3993 1958.39 73.8167C1958.39 93.234 1940.51 106.333 1914.47 106.333L1914.63 106.179ZM2056.54 106.179C2034.2 106.179 2014.94 95.5456 2008.77 76.1282L2027.72 69.964C2032.5 84.2958 2044.37 88.6108 2056.23 88.6108C2068.09 88.6108 2078.88 84.2958 2078.88 76.1282C2078.88 67.3442 2066.86 64.7244 2056.85 62.1046L2045.75 59.3307C2034.2 56.4027 2013.09 49.622 2013.09 30.2047C2013.09 11.8661 2032.04 0.154106 2054.53 0.154106C2077.03 0.154106 2092.13 11.5579 2096.45 23.8864L2077.96 31.1294C2074.1 22.9618 2065.78 17.8763 2053.92 17.8763C2042.05 17.8763 2034.2 22.4994 2034.2 28.6637C2034.2 37.1395 2048.37 40.9921 2056.54 42.9955L2069.02 46.3858C2080.73 49.3138 2100.3 54.3993 2100.3 73.8167C2100.3 93.234 2082.42 106.333 2056.38 106.333L2056.54 106.179ZM2159.62 104.021V2.15748H2179.96V103.867H2159.62V104.021ZM2301.68 106.179C2267.94 106.179 2240.05 84.604 2240.05 53.3206C2240.05 22.0371 2267.63 0.308211 2301.68 0.308211C2335.74 0.308211 2363.16 22.4994 2363.16 53.3206C2363.16 84.1417 2335.89 106.179 2301.68 106.179ZM2261.31 53.3206C2261.31 73.8167 2279.65 87.9944 2301.84 87.9944C2324.02 87.9944 2341.9 73.2002 2341.9 53.3206C2341.9 33.4409 2324.49 18.4927 2301.84 18.4927C2279.19 18.4927 2261.31 33.1327 2261.31 53.3206ZM2423.25 104.021V2.15748H2444.52C2463.01 23.4241 2483.81 46.5399 2503.22 69.8099H2503.69V2.15748H2523.72V103.867H2502.61C2483.19 81.8301 2463.62 60.7177 2444.05 37.6018H2443.59V103.867H2423.25V104.021ZM2768.4 20.1879H2730.49V2.15748H2826.49V20.0337H2788.58V103.867H2768.55V19.8796L2768.4 20.1879ZM2931.57 106.179C2897.83 106.179 2869.94 84.604 2869.94 53.3206C2869.94 22.0371 2897.52 0.308211 2931.57 0.308211C2965.62 0.308211 2993.05 22.4994 2993.05 53.3206C2993.05 84.1417 2965.78 106.179 2931.57 106.179ZM2891.2 53.3206C2891.2 73.8167 2909.54 87.9944 2931.73 87.9944C2953.91 87.9944 2971.79 73.2002 2971.79 53.3206C2971.79 33.4409 2954.38 18.4927 2931.73 18.4927C2909.08 18.4927 2891.2 33.1327 2891.2 53.3206ZM3106.3 106.179C3071.17 106.179 3046.21 84.1417 3046.21 53.3206C3046.21 19.8796 3074.56 0.308211 3107.84 0.308211C3133.73 0.308211 3155.45 13.4072 3163.31 32.2081L3144.67 39.4511C3138.2 27.4308 3125.56 18.6468 3107.84 18.6468C3085.65 18.6468 3067.47 31.7458 3067.47 53.937C3067.47 79.6727 3090.89 88.1485 3109.84 88.1485C3128.8 88.1485 3143.28 80.135 3145.9 67.3442H3111.23V51.6254H3166.24V104.33H3150.68C3150.37 99.2441 3150.06 94.0045 3149.6 88.919H3148.83C3140.2 100.323 3126.02 106.487 3106.3 106.487V106.179ZM3229.26 104.021V2.15748H3308.15V20.0337H3249.44V42.8414H3304.91V61.6423H3249.44V85.8369H3309.69V103.867H3229.1L3229.26 104.021ZM3397.21 20.1879H3359.3V2.15748H3455.14V20.0337H3417.24V103.867H3397.21V19.8796V20.1879ZM3510.61 104.021V2.15748H3530.95V44.0742H3589.66V2.15748H3610V103.867H3589.66V62.8751H3530.95V103.867H3510.61V104.021ZM3677.02 104.021V2.15748H3756.07V20.0337H3697.36V42.8414H3752.83V61.6423H3697.36V85.8369H3757.61V103.867H3677.02V104.021ZM3818.62 104.021V2.15748H3864.69C3876.25 2.15748 3906.45 5.08549 3906.45 34.8279C3906.45 53.937 3892.89 62.8751 3877.95 65.8032C3888.27 78.4398 3898.59 91.0765 3908.92 103.713H3886.11L3856.37 67.3442H3838.96V103.713H3818.62V104.021ZM3838.96 50.3926H3861.3C3872.24 50.3926 3885.34 47.6187 3885.34 35.4443C3885.34 23.27 3872.09 19.8796 3861.3 19.8796H3838.96V50.3926Z" fill="#BDEC00"/>
</g>
<defs>
<clipPath id="clip0_4053_8184">
<rect width="3914" height="1370" fill="white"/>
</clipPath>
</defs>
</svg>
