<svg width="98" height="36" viewBox="0 0 98 36" fill="none" xmlns="http://www.w3.org/2000/svg">
<path d="M70.5748 30.2113C70.5736 29.4887 70.5723 28.7661 70.5709 28.0435C70.5709 27.563 70.5738 27.0825 70.5684 26.6023C70.5684 26.5053 70.5956 26.4835 70.6896 26.4837C71.9728 26.4868 73.2562 26.4872 74.5397 26.4849C74.8137 26.4849 75.0855 26.4684 75.3539 26.3954C76.168 26.1737 76.5946 25.4997 76.5958 24.7447C76.6055 19.6292 76.6048 14.5137 76.5938 9.39834C76.5912 8.43812 75.9591 7.77185 74.9707 7.68066C74.7284 7.65834 74.4861 7.65908 74.2439 7.65908C57.3462 7.65908 40.4486 7.65908 23.551 7.65908C23.2678 7.65908 22.9875 7.67339 22.7116 7.74712C21.8978 7.96419 21.4879 8.61251 21.4132 9.3964C21.4057 9.47644 21.4096 9.55769 21.4096 9.63894C21.4096 13.1555 21.4105 16.6723 21.4123 20.1895C21.4123 20.305 21.3866 20.335 21.2684 20.335C20.1142 20.3299 18.9601 20.3321 17.8057 20.3319C17.7654 20.3319 17.7252 20.3285 17.6845 20.3268C17.6845 16.0718 17.6845 11.8169 17.6845 7.56206C17.6845 7.51792 17.6797 7.47378 17.6772 7.42963C17.6934 6.92338 17.826 6.42769 18.0649 5.98117C18.7999 4.62536 19.9441 3.91544 21.492 3.9152C39.8303 3.9118 58.1687 3.91133 76.5071 3.91375C76.7372 3.91025 76.9672 3.92599 77.1947 3.9608C79.0224 4.27004 80.3388 5.81673 80.3393 7.6632C80.3409 13.9369 80.3409 20.2112 80.3393 26.4859C80.3417 26.6797 80.3278 26.8734 80.2976 27.0648C80.0161 28.7246 78.7714 29.9448 77.1092 30.1975C77.0365 30.2084 76.9568 30.1883 76.8911 30.2363H76.7215C76.6874 30.1922 76.6394 30.2121 76.5977 30.2121C74.5901 30.2116 72.5825 30.2113 70.5748 30.2113Z" fill="#02BE8C"/>
<path d="M66.0253 13.717C66.0217 17.9242 66.0217 22.1313 66.0253 26.3384V30.1505H69.7199V10.4561C69.7221 10.3958 69.7177 10.3354 69.7068 10.2761C69.6545 10.0459 69.4638 9.80751 69.0621 9.80872C66.992 9.81527 64.9215 9.81212 62.8511 9.81212C62.8026 9.81121 62.7541 9.813 62.7058 9.81746C62.564 9.83163 62.4326 9.89839 62.3375 10.0046C62.2424 10.1109 62.1905 10.2489 62.1919 10.3916C62.1919 11.2599 62.1936 12.1279 62.1919 12.996C62.192 13.0972 62.2204 13.1963 62.274 13.2822C62.402 13.4949 62.5982 13.5696 62.8368 13.5696C63.8498 13.5681 64.8627 13.5715 65.8756 13.5657C65.9996 13.565 66.0253 13.597 66.0253 13.717Z" fill="#02BE8C"/>
<path d="M17.7665 21.1118C17.7311 21.1118 17.6938 21.1225 17.6601 21.1024L17.6592 21.1485C17.6994 21.1894 17.6805 21.2406 17.6805 21.2865C17.6816 23.0651 17.6822 24.8437 17.6822 26.6224C17.6822 26.6563 17.6984 26.6973 17.6592 26.7216V26.8186C17.6909 26.9782 17.7202 27.1383 17.7549 27.2971C18.0768 28.7757 19.2879 29.9277 20.7832 30.1807C20.8801 30.197 20.9811 30.1904 21.0727 30.2343H21.2665C21.2937 30.1858 21.3392 30.2101 21.3751 30.2101H29.7657H42.2421V26.4839H23.522C23.4087 26.4839 23.2955 26.4819 23.1829 26.4744C22.2177 26.4104 21.652 25.8885 21.4507 25.033C21.4138 24.8766 21.4172 24.8766 21.581 24.8766H31.9326C32.1189 24.8766 32.3042 24.8741 32.4898 24.863C33.3098 24.813 34.0466 24.1533 34.1767 23.343C34.2528 22.8698 34.1932 22.3917 34.2232 21.9168C34.2293 21.8193 34.2058 21.7245 34.1844 21.6299C34.1076 21.2867 33.916 21.0044 33.7144 20.7252C33.228 20.0514 32.7609 19.3624 32.1928 18.7521C30.8498 17.3166 29.4887 15.8985 28.1094 14.4977C28.0464 14.4298 27.9698 14.376 27.8846 14.3399C27.7993 14.3039 27.7074 14.2863 27.6149 14.2884C26.1094 14.2855 24.6042 14.2829 23.099 14.2806C22.9922 14.2804 22.8856 14.2925 22.7499 14.3008C24.8921 16.577 27.015 18.8334 29.1572 21.1101H29.0142C25.2651 21.1113 21.5158 21.1118 17.7665 21.1118Z" fill="#02BE8C"/>
<path d="M49.0957 19.5773C49.0957 17.8614 49.0949 16.1455 49.0933 14.4296C49.0933 14.3263 49.1143 14.2829 49.2236 14.2916C49.3115 14.2986 49.4009 14.2868 49.4901 14.2865C50.5031 14.2833 51.516 14.2805 52.5288 14.2783C52.8486 14.2783 52.8937 14.3214 52.8852 14.6421C52.8687 15.2434 52.8765 15.8451 52.8746 16.4466C52.8746 16.5315 52.8988 16.554 52.9824 16.554C54.4231 16.5515 55.8638 16.5515 57.3046 16.554C57.3841 16.554 57.4052 16.532 57.405 16.4534C57.4023 15.5126 57.4008 14.572 57.4062 13.6312C57.4062 13.5133 57.3463 13.5259 57.2715 13.5259C54.6001 13.5259 51.9285 13.5259 49.2568 13.5259C49.0962 13.5259 49.0962 13.5259 49.0962 13.3658C49.0962 12.2111 49.0979 11.0566 49.0935 9.90186C49.0935 9.78592 49.1214 9.75463 49.2389 9.75463C51.7331 9.75754 54.2271 9.75754 56.721 9.75463C57.512 9.75463 58.303 9.74906 59.0952 9.75124C59.3247 9.75124 59.5543 9.76313 59.7719 9.85529C59.9139 9.91291 60.045 9.99445 60.1595 10.0964C60.3868 10.303 60.6019 10.5206 60.8137 10.7432C61.0893 11.0343 61.1993 11.3785 61.1938 11.7694C61.1727 13.2351 61.1766 14.7005 61.1824 16.166C61.1853 16.9089 61.1933 17.6518 61.2022 18.3947C61.2076 18.6133 61.163 18.8302 61.0719 19.0289C60.7812 19.6508 60.3228 20.0905 59.6534 20.2902C59.4976 20.3333 59.336 20.3521 59.1745 20.3459C57.1205 20.31 55.0663 20.3362 53.0122 20.3309C52.9031 20.3309 52.8796 20.3607 52.8801 20.4653C52.8835 21.8904 52.8801 23.3159 52.8855 24.7408C52.8855 24.8621 52.8511 24.8844 52.7377 24.8839C51.5674 24.8795 50.3971 24.8795 49.2267 24.8839C49.1165 24.8839 49.0954 24.8536 49.0957 24.7495C49.0975 23.0255 49.0975 21.3015 49.0957 19.5773Z" fill="#02BE8C"/>
<path d="M36.7207 14.3035C36.5947 14.5571 36.4852 14.7995 36.4288 15.0597C36.2398 15.9265 36.3803 16.74 36.8268 17.5052C37.2883 18.2962 37.9318 18.9181 38.6339 19.4895C39.2112 19.9593 39.8549 20.3321 40.4608 20.7599C40.665 20.9042 40.8707 21.0464 41.0437 21.2302C41.286 21.4873 41.4401 21.7868 41.4871 22.1378C41.4941 22.1916 41.5077 22.2135 41.5658 22.2166C41.7582 22.2273 41.7565 22.2297 41.7991 22.0468C41.9038 21.5955 42.1654 21.2465 42.5131 20.9527C42.71 20.7921 42.919 20.6468 43.1381 20.5181C44.0783 19.9457 44.9718 19.3129 45.7168 18.4914C46.1204 18.0466 46.4678 17.5639 46.6968 17.0039C47.041 16.1642 47.0214 15.3304 46.6529 14.5033C46.6347 14.463 46.6154 14.423 46.5999 14.382C46.5793 14.3272 46.595 14.301 46.6592 14.3015C46.9538 14.3038 47.2484 14.3038 47.543 14.3015C47.6019 14.3015 47.6215 14.3238 47.6225 14.3782C47.6225 14.4385 47.6319 14.4994 47.6319 14.5591C47.6319 17.3852 47.6319 20.2113 47.6319 23.0374C47.6319 23.7468 47.1333 24.5739 46.3237 24.7999C46.0862 24.8661 45.8479 24.8812 45.6068 24.8814C43.1774 24.8835 40.7479 24.8841 38.3185 24.8831C37.9437 24.8831 37.5674 24.9197 37.1941 24.8664C36.3609 24.7475 35.6562 24.0444 35.5341 23.214C35.5169 23.0942 35.5088 22.9733 35.5099 22.8523C35.5181 20.0502 35.5341 17.2496 35.5123 14.4466C35.5123 14.327 35.545 14.2996 35.6598 14.3022C36.0036 14.3085 36.3508 14.3035 36.7207 14.3035Z" fill="#02BE8C"/>
<path d="M34.1843 13.4969H34.0428C30.1132 13.4969 26.1837 13.4978 22.2541 13.4998C22.1351 13.4998 22.1099 13.4692 22.1114 13.3542C22.1179 12.7721 22.1138 12.1917 22.1155 11.6106C22.1182 10.6831 22.7471 9.93077 23.6561 9.77336C23.7957 9.7518 23.9369 9.74224 24.0781 9.74474C26.511 9.74329 28.9437 9.74255 31.3764 9.74255C31.5797 9.74255 31.7226 9.81022 31.8394 9.9851C32.5809 11.0996 33.331 12.2085 34.0779 13.3193C34.1116 13.3698 34.1402 13.4226 34.1843 13.4969Z" fill="#02BE8C"/>
<path d="M41.5788 9.74377C42.8709 9.74377 44.1623 9.74377 45.4531 9.74377C45.7073 9.74377 45.96 9.75105 46.2097 9.81144C46.9794 9.99699 47.5456 10.6337 47.6103 11.4265C47.665 12.095 47.6217 12.7663 47.6323 13.4362C47.6323 13.4847 47.6222 13.5153 47.5662 13.5114C47.1267 13.4801 46.687 13.5357 46.2478 13.5053C45.9391 13.4838 45.6731 13.3528 45.4289 13.1745C44.5526 12.5347 43.6291 12.4112 42.6465 12.9131C42.4004 13.0347 42.1715 13.1885 41.9659 13.3705C41.7435 13.5718 41.5299 13.5645 41.2968 13.3644C40.9055 13.0273 40.4653 12.7811 39.9585 12.6688C39.471 12.5562 38.9602 12.6021 38.5006 12.8C38.1699 12.941 37.8552 13.1136 37.5867 13.3603C37.4586 13.4782 37.2982 13.5151 37.1276 13.5148C36.6274 13.5148 36.1268 13.5107 35.6256 13.5148C35.5413 13.5148 35.5287 13.4835 35.5255 13.4103C35.4981 12.7724 35.5095 12.1345 35.5362 11.4973C35.5708 10.6635 36.1755 9.9754 37.0179 9.79422C37.1919 9.75944 37.3691 9.74318 37.5465 9.74572C38.8903 9.74475 40.2341 9.74475 41.5781 9.74572L41.5788 9.74377Z" fill="#02BE8C"/>
<path d="M39.9843 17.4502C39.4658 17.6791 38.9416 17.6933 38.4117 17.4926C38.3168 17.4565 38.3168 17.4941 38.3172 17.5671C38.3189 17.7854 38.3155 18.0022 38.3143 18.22H38.1709L38.1692 17.3752C38.1692 17.3471 38.1714 17.319 38.1709 17.2908C38.1709 17.2435 38.1721 17.2038 38.2378 17.2021C38.3034 17.2004 38.3177 17.2355 38.3168 17.292C38.3168 17.3267 38.3051 17.3648 38.3286 17.3978C38.3543 17.228 38.3473 17.1931 38.2853 17.1795C38.1665 17.1536 38.1469 17.1778 38.1457 17.3512C38.0229 17.3066 37.9311 17.213 37.8131 17.1376C37.8131 17.2469 37.7937 17.3425 37.7072 17.4073C37.6522 17.4501 37.5826 17.4696 37.5134 17.4613C37.479 17.4588 37.4455 17.4495 37.4147 17.434C37.3839 17.4184 37.3565 17.397 37.334 17.3708C37.3115 17.3447 37.2943 17.3143 37.2836 17.2815C37.2728 17.2488 37.2686 17.2142 37.2711 17.1797C37.2791 17.0211 37.3901 16.9343 37.604 16.9282C37.5439 16.8414 37.487 16.7601 37.431 16.6787C36.8816 15.8802 37.0589 14.8453 37.6132 14.238C37.7237 14.1167 37.7193 14.1179 37.6147 13.9826C37.5849 13.9442 37.4935 13.9016 37.5485 13.8543C37.6035 13.807 37.6263 13.9057 37.6646 13.9377C37.6913 13.9623 37.7144 13.9906 37.7334 14.0216C37.7702 14.0757 37.8017 14.0536 37.8414 14.0231C37.8812 13.9925 37.8843 13.9651 37.8492 13.9261C37.7847 13.8533 37.7244 13.7781 37.6626 13.7034C37.6445 13.6813 37.6227 13.6571 37.6595 13.6338C37.6888 13.6149 37.7014 13.6437 37.7155 13.6602C37.7709 13.724 37.8264 13.7881 37.8795 13.8543C37.9192 13.9028 37.9521 13.9498 38.0207 13.8856C38.0893 13.8213 38.0091 13.8041 37.9894 13.7728C37.9544 13.7235 37.9162 13.6764 37.8753 13.6319C37.8577 13.6103 37.8322 13.587 37.8661 13.561C37.9001 13.5351 37.9146 13.5732 37.9313 13.5909C38.0018 13.6622 38.0461 13.7898 38.1348 13.8026C38.2143 13.8142 38.3044 13.7262 38.395 13.6908C39.4852 13.2612 40.6747 13.8024 41.0711 14.9071L41.1067 15.0042C41.2213 14.8715 41.3773 14.8004 41.4515 14.6379C41.5038 14.5237 41.6937 14.5263 41.7356 14.6437C41.7894 14.7965 41.9251 14.8666 42.0108 14.9809C42.0566 14.9704 42.0527 14.9358 42.061 14.9134C42.3956 14.0017 43.2178 13.4696 44.1832 13.5482C44.4512 13.5698 44.7031 13.6568 44.9396 13.7842C44.9919 13.8123 45.0213 13.8125 45.0571 13.7621C45.1031 13.7009 45.1522 13.642 45.2041 13.5858C45.2206 13.5669 45.2352 13.5305 45.2703 13.5627C45.3054 13.595 45.2703 13.6139 45.2548 13.6333C45.2126 13.6874 45.1673 13.7391 45.1242 13.7922C45.1 13.8222 45.062 13.8489 45.1177 13.8892C45.1639 13.9224 45.1971 13.9311 45.2357 13.8788C45.2838 13.814 45.3355 13.752 45.3905 13.693C45.4147 13.6687 45.4297 13.5991 45.4762 13.6369C45.5293 13.6806 45.4597 13.7097 45.4382 13.74C45.391 13.8055 45.3395 13.8676 45.2839 13.9261C45.2371 13.9746 45.2664 13.9988 45.3023 14.0323C45.3432 14.0701 45.3689 14.0595 45.3992 14.0202C45.4409 13.9658 45.4862 13.9142 45.5307 13.862C45.546 13.8438 45.5622 13.8218 45.5896 13.8453C45.617 13.8688 45.6027 13.8873 45.5862 13.9071C45.5838 13.9103 45.5806 13.913 45.5785 13.9164C45.53 13.9891 45.4205 14.0447 45.4331 14.1232C45.4457 14.2018 45.5395 14.2591 45.5949 14.3282C45.855 14.6504 46.0078 15.0461 46.0317 15.4597C46.0556 15.8733 45.9494 16.2839 45.7282 16.634C45.6684 16.7294 45.602 16.8203 45.538 16.9142C45.5574 16.9491 45.5886 16.9265 45.6124 16.929C45.6792 16.9343 45.7418 16.9639 45.7883 17.0122C45.8348 17.0605 45.8621 17.1241 45.8651 17.1912C45.8682 17.3246 45.7597 17.4441 45.6204 17.4609C45.5536 17.4681 45.4866 17.4499 45.4327 17.4098C45.3788 17.3698 45.342 17.3108 45.3297 17.2448C45.3231 17.214 45.3175 17.1831 45.3115 17.1526C45.32 17.1611 45.326 17.1596 45.328 17.1482C45.328 17.1448 45.326 17.1409 45.3248 17.1371L45.3125 17.1538C45.1753 17.2164 45.1026 17.3049 45.114 17.474C45.131 17.7211 45.1165 17.9707 45.1155 18.219H44.9701C44.9682 17.969 44.9655 17.7192 44.9651 17.4691C44.9651 17.4087 44.9631 17.3769 44.8866 17.4138C44.3293 17.6806 43.7636 17.7049 43.1895 17.4701C43.1806 17.468 43.1715 17.467 43.1623 17.4672C43.1588 17.4901 43.1538 17.5128 43.1473 17.5351C43.14 17.5585 43.1255 17.5789 43.1058 17.5934C43.0861 17.608 43.0623 17.6158 43.0378 17.6158C43.0156 17.6189 42.9929 17.615 42.9729 17.6049C42.9529 17.5947 42.9365 17.5786 42.9259 17.5588C42.8997 17.5077 42.9002 17.4519 42.9479 17.4157C42.9957 17.3796 42.9886 17.3621 42.9416 17.3345C42.7979 17.2522 42.6649 17.1526 42.5455 17.0379C42.5266 17.0192 42.5051 16.986 42.4767 17.0177C42.4283 17.0726 42.3384 17.0927 42.3338 17.1839C42.3304 17.2201 42.3313 17.2565 42.3364 17.2925C42.3587 17.4138 42.3161 17.4725 42.1889 17.4589C41.825 17.4444 41.4612 17.4444 41.0975 17.4589C40.9487 17.4759 40.9335 17.3908 40.9449 17.2719C40.9492 17.2249 40.9776 17.1671 40.9291 17.1242C40.8564 17.0604 40.7862 16.9947 40.7091 16.9375C40.673 16.9108 40.6568 16.9617 40.6365 16.9809C40.4911 17.1264 40.3375 17.2578 40.1502 17.3461C40.096 17.3813 40.0107 17.3667 39.9843 17.4502ZM41.559 14.8921C41.4459 14.9947 41.3339 15.0985 41.2198 15.1992C41.1837 15.2307 41.1639 15.261 41.1714 15.3119C41.1859 15.4017 41.1934 15.4926 41.207 15.6086C41.2879 15.5031 41.404 15.4613 41.4442 15.3403C41.4669 15.2714 41.5302 15.2467 41.599 15.2484C41.6738 15.2498 41.7351 15.2833 41.7526 15.3595C41.7756 15.4594 41.8553 15.5031 41.9333 15.5741C41.9554 15.4696 41.9382 15.375 41.9723 15.2889C41.9843 15.2901 41.996 15.2926 42.0074 15.2964C42.0372 15.3093 42.0641 15.3578 42.0993 15.3119C42.1344 15.2661 42.0855 15.2472 42.0627 15.2239C41.9561 15.1147 41.8466 15.0083 41.74 14.8991C41.6806 14.838 41.6222 14.8407 41.5593 14.8921H41.559ZM43.9705 16.8892C44.5709 16.9018 45.1399 16.4526 45.2545 15.8632C45.2754 15.7553 45.3166 15.7361 45.4091 15.742C45.4491 15.7449 45.5143 15.7686 45.5278 15.7189C45.5457 15.6528 45.5457 15.583 45.5278 15.5169C45.5121 15.4638 45.4433 15.4955 45.3982 15.4907C45.3418 15.4844 45.2771 15.5103 45.2686 15.4119C45.2533 15.2055 45.1673 15.0238 45.0506 14.8557C45.0108 14.7982 45.0045 14.7563 45.0644 14.7153C45.1569 14.6522 45.1005 14.6066 45.0481 14.5584C44.9997 14.514 44.9592 14.4388 44.8911 14.536C44.8555 14.587 44.8214 14.595 44.764 14.5521C44.5905 14.4225 44.3991 14.3301 44.1794 14.3095C44.114 14.3037 44.0616 14.2877 44.0788 14.2023C44.0989 14.1031 44.0352 14.1009 43.9645 14.1053C43.9013 14.1101 43.8143 14.0798 43.8334 14.1982C43.847 14.2821 43.8065 14.3098 43.7285 14.3195C43.5749 14.3401 43.4359 14.4012 43.3014 14.479C43.2171 14.5276 43.1473 14.6488 43.0591 14.626C42.9709 14.6032 42.9118 14.496 42.8411 14.4252C42.7173 14.3027 42.72 14.3039 42.5988 14.4395C42.5639 14.4788 42.5618 14.5026 42.5988 14.5385C42.6715 14.6078 42.7381 14.684 42.8142 14.7507C42.8903 14.8174 42.9111 14.87 42.8491 14.9622C42.7752 15.0691 42.73 15.1932 42.7178 15.3226C42.7078 15.456 42.6577 15.5166 42.5191 15.4892C42.4915 15.4837 42.4552 15.4769 42.4365 15.5179C42.382 15.636 42.4486 15.7454 42.5794 15.74C42.6582 15.7369 42.6969 15.7512 42.7149 15.8414C42.7723 16.1338 42.9285 16.3975 43.1572 16.5883C43.3859 16.7791 43.6731 16.8853 43.9708 16.8892H43.9705ZM39.1494 16.8892C39.7406 16.8853 40.2735 16.4769 40.4029 15.9042C40.4344 15.764 40.4838 15.7231 40.6132 15.7439C40.6457 15.7492 40.6842 15.7558 40.6995 15.7036C40.7406 15.5639 40.6929 15.4854 40.5541 15.4934C40.4662 15.498 40.433 15.4691 40.4254 15.383C40.4061 15.1902 40.3252 15.0192 40.2154 14.8618C40.1711 14.7987 40.1694 14.7558 40.2314 14.7114C40.3188 14.6493 40.2607 14.6057 40.2113 14.5627C40.1657 14.5232 40.1272 14.4342 40.0555 14.5341C40.0148 14.5909 39.9799 14.5928 39.9191 14.5479C39.7495 14.4225 39.5606 14.3296 39.3447 14.3127C39.2696 14.3066 39.226 14.2816 39.2386 14.1945C39.2563 14.0711 39.1601 14.1155 39.1017 14.1089C39.037 14.1017 38.9762 14.1038 38.9932 14.1984C39.0075 14.2782 38.9745 14.3117 38.8926 14.3224C38.6661 14.352 38.4708 14.4567 38.3 14.6032C38.24 14.6546 38.2109 14.6416 38.1658 14.5926C38.1007 14.5213 38.0205 14.4616 37.9623 14.3859C37.8933 14.2971 37.8555 14.3503 37.8049 14.4002C37.7508 14.4538 37.6944 14.4972 37.7881 14.57C37.8608 14.6268 37.9165 14.7044 37.9875 14.764C38.0585 14.8237 38.073 14.872 38.0188 14.9547C37.941 15.0685 37.8929 15.2 37.8787 15.3372C37.8681 15.4611 37.8235 15.5179 37.6941 15.4929C37.6362 15.4817 37.5972 15.4951 37.5943 15.5724C37.5885 15.7434 37.5841 15.7471 37.7583 15.7441C37.831 15.7429 37.863 15.7623 37.8768 15.839C37.9865 16.4395 38.5389 16.8933 39.1511 16.8892H39.1494ZM42.0397 16.2052C41.9495 16.2731 41.8902 16.3282 41.887 16.4451C41.8829 16.5998 41.7218 16.7182 41.5668 16.7143C41.4047 16.7104 41.2518 16.5804 41.2518 16.4233C41.2518 16.3355 41.2092 16.2945 41.1566 16.2455C41.113 16.205 41.0907 16.197 41.0694 16.2668C41.0418 16.3509 41.0079 16.4327 40.9679 16.5116C40.8579 16.7374 40.8572 16.7361 41.0527 16.8863C41.0798 16.9069 41.0956 16.9207 41.1343 16.8982C41.4725 16.7022 41.8117 16.7022 42.1518 16.8982C42.2308 16.9435 42.2463 16.8497 42.2948 16.8273C42.3275 16.8123 42.3362 16.7859 42.3103 16.7495C42.194 16.5848 42.1111 16.4019 42.0409 16.2055L42.0397 16.2052ZM41.8582 16.2377C42.0162 16.1041 42.0416 16.01 41.9428 15.9025C41.8502 15.8021 41.7504 15.7085 41.6537 15.6115C41.6135 15.5712 41.5719 15.5659 41.5278 15.6059C41.4117 15.7109 41.2884 15.8094 41.1828 15.9244C41.1343 15.9765 41.0883 16.0575 41.1675 16.1356C41.2339 16.2011 41.2925 16.2739 41.3722 16.1475C41.3945 16.1121 41.441 16.0975 41.4859 16.0856C41.6503 16.0432 41.7676 16.1133 41.8594 16.2377H41.8582ZM45.0978 17.1955C44.9386 17.1737 44.9282 17.1875 44.9701 17.3488C44.9704 17.2629 44.9655 17.1732 45.099 17.1955H45.0978ZM41.5946 14.8026L41.6135 14.7931C41.6077 14.7895 41.6019 14.7834 41.5956 14.7832C41.5893 14.783 41.583 14.7885 41.5767 14.7914L41.5946 14.8026Z" fill="#02BE8C"/>
<path d="M73.2001 9.81303C73.9466 9.81303 74.693 9.81303 75.4394 9.81303C75.4879 9.81076 75.5366 9.81279 75.5848 9.8191C75.6855 9.83729 75.7257 9.91369 75.686 10.0076C75.6706 10.0404 75.6524 10.0718 75.6315 10.1014C74.9449 11.1557 74.2585 12.2101 73.5722 13.2649C73.4366 13.4744 73.2508 13.57 73.0056 13.5695C72.3156 13.5683 71.6247 13.5695 70.9359 13.5695C70.6706 13.5695 70.5708 13.4684 70.5708 13.204V10.1645C70.5708 9.91636 70.6735 9.81376 70.9245 9.81352C71.6831 9.81271 72.4417 9.81255 73.2001 9.81303Z" fill="#02BE8C"/>
<path d="M44.2432 18.5334C44.2405 18.6547 44.2371 18.7759 44.2357 18.896C44.2357 18.9392 44.2357 18.9789 44.1748 18.9746C44.156 18.9733 44.1247 18.9717 44.1264 18.9957C44.1291 19.1342 44.0271 19.09 43.9568 19.0912C43.747 19.0946 43.5372 19.0912 43.3269 19.0929C43.2736 19.0929 43.2172 19.1026 43.23 19.0177C43.2332 18.9971 43.2247 18.9726 43.199 18.9763C43.09 18.992 43.1115 18.9154 43.1106 18.855C43.1106 18.8266 43.1106 18.7985 43.1106 18.7701C43.1106 18.4769 43.0864 18.4492 42.7956 18.5089C42.7334 18.5215 42.6333 18.587 42.6323 18.6864C42.6287 19.1587 42.6306 19.6311 42.6323 20.1034C42.6323 20.1293 42.6183 20.164 42.6517 20.179C42.6851 20.1941 42.7358 20.1766 42.7326 20.2418C42.7273 20.3503 42.7297 20.4589 42.722 20.5671C42.7203 20.5926 42.6815 20.5843 42.6585 20.586C42.3307 20.6103 42.3307 20.6103 42.3358 20.2862C42.3358 20.2355 42.3218 20.1788 42.4085 20.1812C42.4453 20.1812 42.4327 20.1378 42.4327 20.1126C42.4327 19.632 42.4327 19.1515 42.4327 18.6711C42.4327 18.6488 42.4422 18.6183 42.4143 18.6076C42.3797 18.5945 42.3314 18.6076 42.3344 18.5433C42.3394 18.4347 42.336 18.325 42.3436 18.2174C42.3453 18.1931 42.385 18.2011 42.4082 18.2006C42.4688 18.2006 42.5294 18.2055 42.5899 18.2006C42.6905 18.1904 42.7542 18.2103 42.7326 18.3321C42.7232 18.3852 42.7554 18.4036 42.8053 18.4C42.8254 18.3985 42.8458 18.4 42.8659 18.4C43.1006 18.4 43.1018 18.4 43.1103 18.1705C43.1123 18.1203 43.1149 18.082 43.1799 18.0883C43.2448 18.0946 43.2259 18.0384 43.2356 18.0044L44.1111 18.0059C44.1172 18.0284 44.1191 18.0684 44.13 18.0711C44.3238 18.116 44.2078 18.2651 44.2303 18.3658H44.0547C44.1732 18.3604 44.2342 18.4145 44.2432 18.5334ZM43.8846 18.4822C43.8846 18.4542 43.879 18.4264 43.8681 18.4006C43.8571 18.3748 43.8412 18.3514 43.8211 18.3319C43.801 18.3124 43.7772 18.2971 43.7512 18.2869C43.7251 18.2767 43.6972 18.2719 43.6692 18.2726C43.6148 18.276 43.5639 18.3005 43.5272 18.3409C43.4906 18.3813 43.4711 18.4344 43.473 18.489C43.4723 18.517 43.4771 18.5448 43.4873 18.5709C43.4974 18.597 43.5126 18.6208 43.5321 18.6409C43.5515 18.661 43.5748 18.677 43.6005 18.688C43.6262 18.699 43.6539 18.7047 43.6818 18.7049C43.7098 18.7035 43.7373 18.6967 43.7626 18.6848C43.7879 18.6729 43.8107 18.656 43.8295 18.6353C43.8483 18.6145 43.8629 18.5903 43.8724 18.5639C43.8818 18.5375 43.886 18.5095 43.8846 18.4815V18.4822Z" fill="#02BE8C"/>
<path d="M40.1805 18.5352C40.1792 18.6438 40.1779 18.7524 40.1766 18.8609C40.1766 18.881 40.1836 18.915 40.1754 18.9191C40.094 18.9608 40.0722 19.0853 39.9748 19.0889C39.7325 19.0981 39.4922 19.0918 39.2509 19.0923C39.2051 19.0923 39.1584 19.0974 39.1664 19.0273C39.1688 19.0074 39.1649 18.9761 39.1446 18.9776C38.9992 18.987 39.0547 18.8781 39.0491 18.8117C39.0413 18.7198 39.0447 18.6269 39.0433 18.5344L39.0687 18.5102H39.2841C39.2875 18.5122 39.2913 18.5136 39.2952 18.5141C39.2982 18.5141 39.3032 18.5109 39.3037 18.5085C39.326 18.3846 39.3098 18.3649 39.1826 18.3644C39.1392 18.3644 39.0959 18.3644 39.0525 18.3661C39.0525 18.2853 39.0525 18.2044 39.0525 18.1236C39.0917 18.1132 39.1477 18.1454 39.1647 18.0792L39.1714 18.0021H40.0523L40.0574 18.0775C40.0734 18.1478 40.1318 18.1127 40.1718 18.1233C40.1718 18.2041 40.1718 18.2849 40.1718 18.3659C40.0695 18.3761 39.9632 18.3348 39.8646 18.3901C39.8646 18.3972 39.8646 18.4044 39.8646 18.4115L39.805 18.442C39.7519 18.2856 39.5981 18.2737 39.5026 18.3276C39.4072 18.3814 39.389 18.5216 39.458 18.6133C39.5518 18.7377 39.7245 18.6977 39.8098 18.532C39.8202 18.5341 39.831 18.533 39.8408 18.5289C39.8505 18.5249 39.8589 18.518 39.8648 18.5092H40.1529L40.1805 18.5352Z" fill="#02BE8C"/>
<path d="M41.6522 19.0392C41.8538 19.0392 42.0551 19.0414 42.2564 19.038C42.3194 19.0368 42.3335 19.0572 42.34 19.1193C42.3783 19.4952 42.1842 19.6211 41.9097 19.7014C41.7186 19.7563 41.5153 19.7517 41.3268 19.6883C41.0267 19.5913 40.9181 19.4161 40.9482 19.1042C40.9547 19.0363 40.9903 19.04 41.0361 19.04C41.2416 19.0398 41.4469 19.0396 41.6522 19.0392Z" fill="#02BE8C"/>
<path d="M41.6366 18.6901C41.4837 18.6901 41.3311 18.6877 41.1785 18.6916C41.1145 18.693 41.0976 18.6722 41.0963 18.6089C41.093 18.4228 41.0898 18.4231 41.281 18.4231C41.5462 18.4231 41.8118 18.4296 42.0766 18.4199C42.1912 18.4158 42.1977 18.467 42.1936 18.5545C42.1902 18.6326 42.2057 18.7032 42.0824 18.693C41.9346 18.6811 41.7851 18.6903 41.6366 18.6901Z" fill="#02BE8C"/>
<path d="M41.6442 17.8006C41.7976 17.8006 41.9509 17.804 42.1045 17.7992C42.1736 17.7972 42.1995 17.8196 42.1915 17.888C42.188 17.9242 42.188 17.9606 42.1915 17.9969C42.1954 18.0483 42.176 18.0679 42.1229 18.0677C41.8041 18.0661 41.4853 18.0661 41.1664 18.0677C41.1141 18.0677 41.0996 18.0478 41.0959 17.9969C41.0814 17.8006 41.0795 17.8006 41.2694 17.8006H41.6442Z" fill="#02BE8C"/>
<path d="M41.6432 18.9941C41.4904 18.9941 41.3377 18.9915 41.1851 18.9956C41.1197 18.9973 41.0955 18.9811 41.0955 18.9102C41.0955 18.73 41.0911 18.73 41.2716 18.73C41.5449 18.73 41.8182 18.7329 42.0912 18.7283C42.1692 18.7271 42.1944 18.7475 42.1924 18.828C42.1886 18.9941 42.1924 18.9941 42.0289 18.9941H41.6432Z" fill="#02BE8C"/>
<path d="M42.1899 17.4947C42.1943 17.7547 42.1943 17.7547 41.9394 17.7547C41.702 17.7547 41.4646 17.7489 41.2274 17.7574C41.1213 17.7613 41.0789 17.7332 41.0963 17.6255C41.1008 17.5814 41.1023 17.5371 41.1007 17.4928L42.1899 17.4947Z" fill="#02BE8C"/>
<path d="M41.6569 18.1155C41.8064 18.1155 41.9556 18.1189 42.1048 18.1141C42.1753 18.1116 42.1918 18.1383 42.192 18.2038C42.192 18.3763 42.1962 18.3763 42.0198 18.3763C41.7453 18.3763 41.4706 18.3702 41.1961 18.3792C41.0718 18.383 41.0992 18.3081 41.0972 18.24C41.0953 18.1718 41.0851 18.1056 41.1966 18.1129C41.3497 18.123 41.5035 18.1155 41.6569 18.1155Z" fill="#02BE8C"/>
<path d="M43.4961 19.5126C43.494 19.6044 43.4559 19.6916 43.3901 19.7555C43.3243 19.8194 43.236 19.8548 43.1443 19.8541C43.0546 19.8521 42.9691 19.8157 42.9052 19.7526C42.8413 19.6895 42.804 19.6043 42.8008 19.5145C42.7984 19.3297 42.9607 19.1663 43.1472 19.1655C43.2391 19.1664 43.327 19.2032 43.3922 19.268C43.4574 19.3329 43.4947 19.4206 43.4961 19.5126ZM43.3466 19.5126C43.345 19.4599 43.323 19.4099 43.2853 19.3731C43.2475 19.3363 43.197 19.3156 43.1443 19.3154C43.0935 19.3173 43.0453 19.3383 43.0094 19.3743C42.9734 19.4103 42.9524 19.4586 42.9505 19.5095C42.9505 19.5356 42.9558 19.5615 42.966 19.5856C42.9762 19.6097 42.9912 19.6314 43.0101 19.6496C43.0289 19.6677 43.0513 19.6818 43.0757 19.6911C43.1002 19.7003 43.1262 19.7046 43.1523 19.7035C43.2033 19.7036 43.2522 19.6837 43.2886 19.6479C43.325 19.6122 43.3458 19.5636 43.3466 19.5126Z" fill="#02BE8C"/>
<path d="M40.4851 19.5102C40.484 19.6018 40.4469 19.6894 40.3817 19.7537C40.3165 19.8181 40.2286 19.8541 40.137 19.8539C40.0475 19.8532 39.9618 19.8177 39.898 19.755C39.8341 19.6922 39.7972 19.607 39.7949 19.5175C39.7948 19.426 39.8304 19.3381 39.8941 19.2725C39.9579 19.207 40.0447 19.169 40.136 19.1667C40.2275 19.167 40.3153 19.203 40.3805 19.2672C40.4457 19.3314 40.4833 19.4186 40.4851 19.5102ZM40.1397 19.3161C40.0872 19.3171 40.0372 19.3385 40.0001 19.3758C39.9631 19.413 39.942 19.4632 39.9413 19.5158C39.9431 19.5662 39.9646 19.614 40.0011 19.6489C40.0376 19.6838 40.0863 19.703 40.1368 19.7025C40.1618 19.7037 40.1869 19.6999 40.2104 19.6912C40.2339 19.6825 40.2555 19.6691 40.2737 19.6519C40.292 19.6346 40.3066 19.6139 40.3166 19.5909C40.3267 19.5679 40.332 19.5431 40.3323 19.5179C40.3337 19.4918 40.3298 19.4656 40.3208 19.4411C40.3117 19.4165 40.2978 19.394 40.2797 19.3751C40.2617 19.3561 40.2399 19.3411 40.2158 19.3308C40.1918 19.3206 40.1658 19.3155 40.1397 19.3157V19.3161Z" fill="#02BE8C"/>
<path d="M40.6613 20.206C40.6604 19.6741 40.6593 19.142 40.6582 18.6099H40.8137L40.8094 20.2075H40.6882L40.6613 20.206Z" fill="#02BE8C"/>
<path d="M39.0538 18.3665C39.0971 18.3665 39.1405 18.3645 39.1839 18.3648C39.3106 18.3648 39.3268 18.3849 39.305 18.5088C39.305 18.5113 39.2994 18.5142 39.2965 18.5144C39.2926 18.5139 39.2888 18.5126 39.2854 18.5105C39.2982 18.4218 39.2692 18.3861 39.1708 18.3866C39.0724 18.3871 39.0593 18.4334 39.07 18.5105L39.0446 18.5348C38.8965 18.5348 38.7485 18.5348 38.6005 18.5365C38.5232 18.5365 38.4396 18.5185 38.3887 18.6034C38.3914 18.56 38.4433 18.5004 38.3791 18.4778C38.3052 18.4519 38.2187 18.4329 38.1467 18.5195V18.2493C38.1492 18.2465 38.1523 18.2442 38.1557 18.2426C38.1591 18.2409 38.1628 18.24 38.1666 18.2399L38.1753 18.2486C38.1753 18.3012 38.1492 18.3657 38.2441 18.3657C38.3391 18.3657 38.3144 18.3017 38.3127 18.2486L38.3209 18.2408C38.3829 18.2408 38.4457 18.2389 38.4324 18.3337C38.4275 18.3691 38.4566 18.3822 38.4881 18.3801C38.6756 18.3728 38.865 18.3963 39.0538 18.3665Z" fill="#02BE8C"/>
<path d="M44.2449 18.5336C44.2359 18.4155 44.1749 18.3614 44.0552 18.3638H44.2308C44.422 18.3995 44.615 18.3718 44.8069 18.3796C44.8425 18.381 44.8612 18.3611 44.8554 18.3281C44.8394 18.2263 44.914 18.2464 44.9697 18.2399C44.9939 18.3216 44.9213 18.4565 45.0824 18.447C45.0208 18.5074 44.9169 18.4601 44.8542 18.535L44.2449 18.5336Z" fill="#02BE8C"/>
<path d="M40.6619 20.2049H40.6886C40.7209 20.239 40.7532 20.239 40.7855 20.2049H40.8097C40.8885 20.1979 40.9185 20.2255 40.9178 20.3123C40.9158 20.5951 40.8935 20.6175 40.6079 20.5755C40.5963 20.5738 40.5774 20.5755 40.5737 20.5694C40.5168 20.4693 40.5546 20.3606 40.5507 20.2558C40.5483 20.178 40.6241 20.2224 40.6619 20.2049ZM40.6641 20.4246C40.7019 20.4598 40.7419 20.4513 40.7826 20.4229H40.6656V20.2794C40.651 20.3293 40.6198 20.3807 40.6641 20.4249V20.4246ZM40.8322 20.2915C40.8291 20.2849 40.8259 20.2789 40.8228 20.2728C40.8192 20.2786 40.8131 20.2845 40.8129 20.2903C40.8126 20.2961 40.8182 20.3024 40.8213 20.3087L40.8322 20.2915Z" fill="#02BE8C"/>
<path d="M44.8541 18.535C44.9169 18.4601 45.0208 18.5074 45.0823 18.447C44.9215 18.4565 44.9929 18.3216 44.9697 18.2399L45.1242 18.2421L45.1933 18.2484C45.202 18.2549 45.2107 18.2615 45.2197 18.2678C45.2302 18.3726 45.2302 18.4782 45.2197 18.5831L45.193 18.6025C45.1058 18.6037 45.0186 18.6025 44.9316 18.6071C44.8737 18.6117 44.8522 18.5891 44.8541 18.535Z" fill="#02BE8C"/>
<path d="M40.8149 18.6086H40.6594C40.6073 18.6047 40.5383 18.627 40.5443 18.5334C40.5557 18.4444 40.5264 18.3975 40.4273 18.4121C40.3839 18.4182 40.3399 18.4182 40.2965 18.4121C40.1962 18.3978 40.1695 18.447 40.1812 18.5351L40.1545 18.5108C40.1693 18.422 40.1409 18.3772 40.0423 18.3895C39.9836 18.3936 39.9246 18.3944 39.8657 18.392C39.9643 18.3357 40.0707 18.3769 40.1729 18.3677C40.2991 18.3899 40.4283 18.3899 40.5545 18.3677C40.8869 18.3597 40.8275 18.3505 40.835 18.6039C40.8322 18.6062 40.829 18.6077 40.8255 18.6085C40.822 18.6093 40.8184 18.6093 40.8149 18.6086ZM40.7267 18.4145C40.6754 18.4077 40.6667 18.4422 40.6657 18.4873C40.6657 18.5389 40.6885 18.5564 40.7384 18.5574C40.7985 18.5586 40.8127 18.5283 40.811 18.4756C40.8094 18.423 40.7776 18.4121 40.7263 18.4155L40.7267 18.4145Z" fill="#02BE8C"/>
<path d="M38.146 18.249V18.5192C38.2187 18.4327 38.3044 18.4516 38.3783 18.4775C38.4425 18.5001 38.3907 18.5597 38.388 18.6032C38.3078 18.6044 38.2274 18.6032 38.1474 18.6075C38.0823 18.6119 38.0505 18.5947 38.0563 18.5222C38.0613 18.454 38.0613 18.3856 38.0563 18.3174C38.052 18.2449 38.0895 18.2372 38.146 18.249Z" fill="#02BE8C"/>
<path d="M40.8346 18.6025C40.8271 18.3491 40.8864 18.3583 40.5541 18.3663C40.532 18.278 40.5528 18.2307 40.6573 18.2428C40.7322 18.2483 40.8074 18.25 40.8826 18.2479L40.9085 18.2676C40.9187 18.3724 40.9187 18.478 40.9085 18.5829L40.8823 18.6025H40.8346Z" fill="#02BE8C"/>
<path d="M39.9854 17.4493C40.0118 17.3658 40.0978 17.3804 40.1549 17.3467C40.1348 17.3746 40.1549 17.386 40.1743 17.4025C40.2264 17.4454 40.247 17.4983 40.208 17.5613C40.1958 17.5825 40.1771 17.5991 40.1547 17.6088C40.1323 17.6184 40.1074 17.6205 40.0837 17.6147C40.0127 17.6021 39.982 17.5565 39.9868 17.4857C39.9863 17.4735 39.9856 17.4614 39.9854 17.4493Z" fill="#02BE8C"/>
<path d="M37.2376 16.7225C37.3117 16.7359 37.357 16.7742 37.3507 16.8535C37.3449 16.9263 37.2977 16.9612 37.2296 16.9588C37.1615 16.9563 37.1145 16.9129 37.1148 16.8433C37.1138 16.7672 37.1649 16.7305 37.2376 16.7225Z" fill="#02BE8C"/>
<path d="M46.021 16.8422C46.0176 16.9205 45.9725 16.9591 45.9054 16.9591C45.8308 16.9591 45.7814 16.913 45.7843 16.8378C45.7872 16.7626 45.8405 16.7202 45.9141 16.7253C45.929 16.7252 45.9438 16.7283 45.9575 16.7342C45.9711 16.7402 45.9834 16.749 45.9934 16.76C46.0035 16.771 46.0112 16.784 46.0159 16.7982C46.0206 16.8123 46.0224 16.8273 46.021 16.8422Z" fill="#02BE8C"/>
<path d="M40.181 18.5358C40.1694 18.4478 40.196 18.3986 40.2963 18.4129C40.3397 18.4189 40.3838 18.4189 40.4272 18.4129C40.5262 18.3988 40.5556 18.4456 40.5442 18.5341L40.181 18.5358Z" fill="#02BE8C"/>
<path d="M40.053 18.0031H39.1722C39.1707 17.9573 39.2061 17.9655 39.2315 17.9655C39.4857 17.9655 39.7397 17.9655 39.9934 17.9655C40.0191 17.9658 40.0543 17.9573 40.053 18.0031Z" fill="#02BE8C"/>
<path d="M44.1107 18.0041L43.2352 18.0026C43.2335 17.9565 43.2684 17.9657 43.2943 17.9657C43.5477 17.9657 43.8011 17.9657 44.0545 17.9657C44.0792 17.966 44.1175 17.9556 44.1107 18.0041Z" fill="#02BE8C"/>
<path d="M38.1455 17.3508C38.1467 17.1774 38.1663 17.1531 38.285 17.1791C38.3471 17.1927 38.3541 17.2276 38.3284 17.3974C38.3042 17.3637 38.3161 17.3263 38.3165 17.2916C38.3165 17.2351 38.3061 17.1994 38.2376 17.2016C38.169 17.2038 38.17 17.2431 38.1707 17.2904C38.1707 17.3185 38.1707 17.3467 38.169 17.3748L38.1455 17.3508Z" fill="#02BE8C"/>
<path d="M39.1657 18.0798C39.1487 18.1462 39.0928 18.1139 39.0532 18.1243C39.0673 18.0497 39.1312 18.102 39.1657 18.0798Z" fill="#02BE8C"/>
<path d="M40.173 18.1246C40.1329 18.1139 40.0744 18.1489 40.0583 18.0786C40.0926 18.1039 40.1584 18.0504 40.173 18.1246Z" fill="#02BE8C"/>
<path d="M45.1249 18.2422L44.9699 18.24C44.9679 18.2369 44.9672 18.2332 44.9677 18.2295C44.9682 18.2259 44.97 18.2225 44.9728 18.2201H45.1186C45.1222 18.2269 45.1244 18.2345 45.1249 18.2422Z" fill="#02BE8C"/>
<path d="M38.1715 18.2201H38.3153C38.3199 18.226 38.322 18.2334 38.3212 18.2408L38.3129 18.2485H38.1752L38.1664 18.2398C38.1655 18.2363 38.1656 18.2327 38.1664 18.2293C38.1673 18.2258 38.1691 18.2227 38.1715 18.2201Z" fill="#02BE8C"/>
<path d="M40.909 18.2691L40.8826 18.249C40.8989 18.2458 40.9105 18.2488 40.909 18.2691Z" fill="#02BE8C"/>
<path d="M40.8826 18.6033L40.9093 18.5833C40.9105 18.6038 40.8986 18.6068 40.8826 18.6033Z" fill="#02BE8C"/>
<path d="M45.1934 18.6033L45.2209 18.5833C45.2222 18.6041 45.2099 18.6068 45.1934 18.6033Z" fill="#02BE8C"/>
<path d="M45.2207 18.2692C45.2114 18.2626 45.2024 18.2559 45.1934 18.2491C45.2099 18.2458 45.2217 18.2486 45.2207 18.2692Z" fill="#02BE8C"/>
<path d="M41.9719 15.2893C41.9331 15.1595 41.8105 15.1006 41.7296 15.0062C41.6848 14.9538 41.6414 14.8912 41.5583 14.8925C41.6209 14.841 41.6795 14.8384 41.7393 14.8995C41.8459 15.0086 41.9554 15.1151 42.062 15.2243C42.0848 15.2485 42.1315 15.2691 42.0986 15.3123C42.0657 15.3555 42.0366 15.3096 42.0068 15.2968C41.9955 15.293 41.9838 15.2905 41.9719 15.2893Z" fill="#02BE8C"/>
<path d="M45.0995 17.1958C44.9649 17.1734 44.9705 17.2634 44.9715 17.3495C44.929 17.1878 44.9399 17.1739 45.0995 17.1958Z" fill="#02BE8C"/>
<path d="M39.8657 18.3916C39.9246 18.3941 39.9835 18.3932 40.0423 18.3892C40.1409 18.377 40.1693 18.4219 40.1545 18.5104H39.8664C39.8664 18.4779 39.8664 18.4454 39.8664 18.4134C39.866 18.4059 39.866 18.3986 39.8657 18.3916Z" fill="#02BE8C"/>
<path d="M39.0687 18.5099C39.0581 18.4328 39.0687 18.3865 39.1695 18.386C39.2703 18.3855 39.2969 18.4212 39.2841 18.5099H39.0687Z" fill="#02BE8C"/>
<path d="M39.8666 18.4127C39.8666 18.4456 39.8666 18.4781 39.8666 18.51C39.8607 18.5188 39.8523 18.5257 39.8425 18.5298C39.8327 18.5338 39.8219 18.5349 39.8115 18.5329C39.81 18.5027 39.8083 18.4728 39.8066 18.4426L39.8666 18.4127Z" fill="#02BE8C"/>
<path d="M40.7856 20.2073C40.7533 20.2414 40.721 20.2414 40.6887 20.2073H40.7856Z" fill="#02BE8C"/>
<path d="M38.1745 18.2491H38.3122C38.3139 18.3024 38.3384 18.3664 38.2435 18.3666C38.1485 18.3669 38.1737 18.3019 38.1745 18.2491Z" fill="#02BE8C"/>
<path d="M40.6648 20.4251C40.6203 20.3811 40.6517 20.3295 40.6662 20.2804V20.4234L40.6648 20.4251Z" fill="#02BE8C"/>
<path d="M40.666 20.4231H40.7833C40.7425 20.4515 40.7024 20.4601 40.6646 20.4248L40.666 20.4231Z" fill="#02BE8C"/>
<path d="M40.8322 20.2927L40.821 20.3104C40.8178 20.3039 40.812 20.2977 40.8123 20.2914C40.8125 20.2852 40.8187 20.2794 40.8225 20.2734C40.8257 20.2802 40.829 20.2859 40.8322 20.2927Z" fill="#02BE8C"/>
<path d="M40.7258 18.4159C40.7768 18.412 40.8088 18.4225 40.8103 18.4782C40.8118 18.5338 40.7972 18.5613 40.7374 18.5601C40.6888 18.5601 40.6646 18.5416 40.6646 18.4898C40.666 18.4436 40.6748 18.4091 40.7258 18.4159Z" fill="#02BE8C"/>
<path d="M44.7619 15.5889C44.7622 15.6909 44.7422 15.792 44.7031 15.8863C44.6641 15.9806 44.6067 16.0661 44.5344 16.138C44.462 16.2099 44.3762 16.2667 44.2817 16.3052C44.1873 16.3436 44.0862 16.3629 43.9842 16.3619C43.7786 16.3619 43.5814 16.2801 43.4361 16.1346C43.2907 15.989 43.209 15.7916 43.209 15.5857C43.209 15.1613 43.5673 14.8052 43.9886 14.8096C44.1943 14.8106 44.3911 14.8932 44.5361 15.0393C44.681 15.1854 44.7622 15.383 44.7619 15.5889ZM44.4189 15.5937C44.4198 15.5363 44.4093 15.4792 44.3879 15.4258C44.3666 15.3725 44.3347 15.3239 44.2944 15.2831C44.254 15.2422 44.2059 15.2098 44.1528 15.1878C44.0998 15.1658 44.0429 15.1547 43.9854 15.155C43.8716 15.1562 43.7627 15.2019 43.6821 15.2824C43.6015 15.3629 43.5555 15.4718 43.554 15.5857C43.5545 15.6998 43.5999 15.8089 43.6803 15.8897C43.7607 15.9705 43.8696 16.0163 43.9835 16.0172C44.0399 16.0181 44.0959 16.0078 44.1483 15.987C44.2007 15.9662 44.2485 15.9352 44.2889 15.8959C44.3293 15.8565 44.3616 15.8096 44.3839 15.7578C44.4062 15.7059 44.4181 15.6502 44.4189 15.5937Z" fill="#02BE8C"/>
<path d="M43.9871 16.7417C43.456 16.7438 42.9652 16.3536 42.8646 15.8493C42.8576 15.8149 42.8109 15.7562 42.8911 15.7472C42.9453 15.7414 43.0071 15.723 43.0301 15.8139C43.1086 16.1251 43.2937 16.3565 43.5893 16.4848C44.1397 16.7242 44.7546 16.447 44.9418 15.8387C44.9523 15.805 44.9348 15.7572 44.9951 15.7443C45.1061 15.7201 45.142 15.7499 45.1112 15.8617C44.9867 16.3157 44.5874 16.7358 43.9871 16.7417Z" fill="#02BE8C"/>
<path d="M43.832 14.5374C43.8417 14.5917 43.823 14.6225 43.7675 14.632C43.6123 14.6594 43.4678 14.7301 43.3508 14.8359C43.2796 14.899 43.2554 14.836 43.2178 14.8035C43.1611 14.7528 43.2145 14.727 43.2455 14.7021C43.3917 14.5818 43.5651 14.4992 43.7506 14.4615C43.8315 14.4452 43.8422 14.4743 43.832 14.5374Z" fill="#02BE8C"/>
<path d="M44.0815 14.5295C44.0687 14.4601 44.0883 14.439 44.1646 14.4509C44.3399 14.4784 44.5066 14.5459 44.6518 14.6481C44.6787 14.667 44.7422 14.6844 44.6932 14.7359C44.6579 14.773 44.6329 14.8465 44.551 14.7844C44.4355 14.6953 44.2979 14.6395 44.153 14.6228C44.0907 14.6168 44.0697 14.5882 44.0815 14.5295Z" fill="#02BE8C"/>
<path d="M45.0505 15.4893C44.989 15.4971 44.9587 15.4808 44.9524 15.4219C44.9376 15.2932 44.8905 15.1704 44.8155 15.0649C44.7605 14.9848 44.8272 14.9543 44.8674 14.9193C44.9294 14.8665 44.9384 14.9436 44.9565 14.971C45.0424 15.0982 45.0995 15.2425 45.1242 15.394C45.1351 15.4636 45.129 15.5102 45.0505 15.4893Z" fill="#02BE8C"/>
<path d="M42.9147 15.493C42.842 15.5073 42.8374 15.4595 42.8505 15.3933C42.8729 15.2713 42.9142 15.1536 42.9731 15.0445C42.9866 15.0202 42.9973 14.9545 43.0389 14.9863C43.0806 15.0181 43.1601 15.0435 43.1216 15.1233C43.0703 15.2229 43.0351 15.33 43.0171 15.4406C43.0082 15.5036 42.9665 15.4886 42.9147 15.493Z" fill="#02BE8C"/>
<path d="M39.9252 15.5858C39.9255 15.6878 39.9057 15.7889 39.8669 15.8832C39.828 15.9775 39.7709 16.0632 39.6989 16.1353C39.6268 16.2075 39.5412 16.2646 39.447 16.3035C39.3528 16.3424 39.2519 16.3623 39.15 16.3619C38.9441 16.3623 38.7464 16.2811 38.6001 16.1361C38.4539 15.991 38.3709 15.7939 38.3694 15.5878C38.3718 15.3818 38.4546 15.185 38.6001 15.0394C38.7455 14.8938 38.9421 14.8109 39.1478 14.8085C39.3535 14.8096 39.5504 14.8918 39.696 15.0373C39.8415 15.1828 39.9239 15.3799 39.9252 15.5858ZM39.5797 15.587C39.5801 15.5306 39.5693 15.4747 39.5481 15.4224C39.5269 15.3702 39.4956 15.3227 39.456 15.2825C39.4164 15.2424 39.3693 15.2104 39.3173 15.1885C39.2654 15.1666 39.2097 15.1552 39.1534 15.1548C39.0961 15.1542 39.0392 15.1651 38.9862 15.1868C38.9331 15.2086 38.885 15.2408 38.8446 15.2815C38.8042 15.3222 38.7724 15.3706 38.751 15.4238C38.7297 15.477 38.7192 15.534 38.7202 15.5914C38.7204 15.6478 38.7318 15.7035 38.7537 15.7555C38.7755 15.8074 38.8075 15.8545 38.8476 15.894C38.8878 15.9336 38.9354 15.9647 38.9877 15.9857C39.0399 16.0067 39.0958 16.0171 39.1521 16.0163C39.2084 16.0163 39.2641 16.0052 39.3161 15.9836C39.368 15.962 39.4152 15.9304 39.4549 15.8905C39.4947 15.8506 39.5261 15.8033 39.5475 15.7512C39.569 15.6991 39.5799 15.6434 39.5797 15.587Z" fill="#02BE8C"/>
<path d="M39.1665 16.741C38.5253 16.7359 38.1342 16.2833 38.0259 15.8545C37.9998 15.7509 38.0325 15.7243 38.134 15.7434C38.1841 15.7526 38.1825 15.788 38.1921 15.8222C38.3106 16.2661 38.7009 16.5719 39.1469 16.571C39.6007 16.571 39.9888 16.2675 40.1048 15.8128C40.1291 15.7158 40.1913 15.7422 40.2434 15.7473C40.3197 15.7548 40.279 15.8179 40.2735 15.8518C40.2051 16.2532 39.7647 16.6648 39.3492 16.7211C39.2814 16.7303 39.2128 16.7359 39.1665 16.741Z" fill="#02BE8C"/>
<path d="M38.9811 14.4524C39.0232 14.5688 38.9869 14.6285 38.8599 14.6496C38.7267 14.6719 38.6111 14.7444 38.5127 14.8342C38.4418 14.8987 38.4185 14.8366 38.3797 14.8036C38.3211 14.7536 38.3727 14.7274 38.404 14.702C38.5745 14.5659 38.763 14.4742 38.9811 14.4524Z" fill="#02BE8C"/>
<path d="M39.2416 14.5314C39.2278 14.4531 39.2571 14.4395 39.3346 14.4516C39.5091 14.4801 39.6748 14.548 39.8191 14.6503C39.8492 14.6709 39.9015 14.6932 39.8501 14.74C39.817 14.7703 39.7959 14.8412 39.7261 14.7917C39.6031 14.7003 39.4592 14.6413 39.3075 14.6202C39.252 14.6141 39.2307 14.587 39.2416 14.5314Z" fill="#02BE8C"/>
<path d="M40.213 15.4893C40.1534 15.4997 40.1221 15.4813 40.1161 15.4245C40.0998 15.2959 40.0528 15.173 39.9792 15.0663C39.9244 14.9858 39.9884 14.955 40.0293 14.9208C40.0923 14.8674 40.102 14.945 40.1192 14.9731C40.2038 15.1013 40.2615 15.2453 40.2888 15.3964C40.3007 15.4713 40.2907 15.508 40.213 15.4893Z" fill="#02BE8C"/>
<path d="M38.087 15.4908C38.0112 15.5039 37.9956 15.4706 38.0109 15.3957C38.0331 15.2738 38.074 15.1561 38.132 15.0467C38.1468 15.0202 38.1505 14.9497 38.2067 14.9899C38.2459 15.0188 38.3174 15.0493 38.283 15.1204C38.2322 15.2201 38.1967 15.3269 38.1776 15.4372C38.1691 15.4956 38.1325 15.4932 38.087 15.4908Z" fill="#02BE8C"/>
<path d="M43.6817 15.5831C43.6819 15.5428 43.6903 15.503 43.7062 15.4659C43.722 15.4289 43.7452 15.3954 43.7742 15.3674C43.8032 15.3395 43.8375 15.3176 43.8751 15.3031C43.9126 15.2886 43.9527 15.2818 43.993 15.2831C44.0332 15.2837 44.073 15.2922 44.1099 15.3082C44.1469 15.3242 44.1803 15.3473 44.2083 15.3763C44.2363 15.4052 44.2584 15.4394 44.2731 15.4769C44.2879 15.5144 44.2951 15.5545 44.2944 15.5948C44.2908 15.6741 44.257 15.7491 44.1998 15.8041C44.1426 15.8592 44.0665 15.8902 43.9872 15.8907C43.9468 15.891 43.9068 15.8832 43.8695 15.8678C43.8322 15.8525 43.7983 15.8298 43.7699 15.8011C43.7414 15.7725 43.719 15.7385 43.7038 15.701C43.6887 15.6636 43.6811 15.6235 43.6817 15.5831Z" fill="#02BE8C"/>
<path d="M38.8445 15.5844C38.8441 15.544 38.8519 15.504 38.8674 15.4667C38.8829 15.4295 38.9058 15.3957 38.9347 15.3676C38.9636 15.3394 38.9979 15.3174 39.0355 15.3029C39.0732 15.2884 39.1133 15.2817 39.1536 15.2832C39.1939 15.2832 39.2338 15.2914 39.2709 15.3071C39.308 15.3229 39.3415 15.346 39.3695 15.375C39.3975 15.404 39.4194 15.4383 39.4339 15.476C39.4484 15.5136 39.4551 15.5538 39.4538 15.5941C39.452 15.6736 39.4191 15.7492 39.3623 15.8047C39.3055 15.8603 39.2292 15.8913 39.1498 15.8912C39.1095 15.8917 39.0695 15.884 39.0321 15.8688C38.9948 15.8535 38.9609 15.8309 38.9325 15.8023C38.904 15.7737 38.8816 15.7397 38.8665 15.7023C38.8514 15.6648 38.8439 15.6248 38.8445 15.5844Z" fill="#02BE8C"/>
<path d="M48.1741 26.8788H45.7171V27.4773H46.6441V30.2538H47.2606V27.4773H48.1741V26.8788ZM50.0196 29.0343V30.2718H50.6046V28.9443C50.6046 28.3998 50.2626 27.8823 49.5336 27.8823C49.4256 27.8823 49.1241 27.9453 48.9486 28.1568V26.7798H48.3411V30.2718H48.9486V29.0523C48.9486 28.7733 49.1916 28.4943 49.5246 28.4943C49.9071 28.4943 50.0196 28.7553 50.0196 29.0343ZM52.4907 28.8363H51.3117C51.3612 28.5168 51.6222 28.3728 51.9237 28.3728C52.2297 28.3728 52.4502 28.5438 52.4907 28.8363ZM50.7492 29.0568C50.7492 29.7093 51.1722 30.2673 51.9192 30.2673C52.7202 30.2673 52.9407 29.7273 52.9407 29.7273L52.4052 29.4978C52.4052 29.4978 52.3242 29.7273 51.9237 29.7273C51.5907 29.7273 51.3927 29.5653 51.3117 29.3133H53.0532C53.0532 29.3133 53.0802 28.8543 52.9362 28.4898C52.9227 28.4628 52.6842 27.8373 51.9192 27.8373C51.1722 27.8373 50.7492 28.3953 50.7492 29.0568ZM55.1631 29.6958C54.7896 29.6958 54.5376 29.4213 54.5376 29.0568C54.5376 28.6878 54.7896 28.4133 55.1631 28.4133C55.5366 28.4133 55.7886 28.6878 55.7886 29.0568C55.7886 29.4213 55.5366 29.6958 55.1631 29.6958ZM53.9841 29.0568C53.9841 29.7093 54.4656 30.2718 55.1631 30.2718C55.8966 30.2718 56.3421 29.7093 56.3421 29.0568C56.3421 28.3953 55.8966 27.8373 55.1631 27.8373C54.4656 27.8373 53.9841 28.3953 53.9841 29.0568ZM57.0608 28.2468V27.8373H56.4533V30.2538H57.0608V29.0478C57.0608 28.7553 57.3218 28.4088 57.7538 28.4088V27.8328C57.5783 27.8328 57.2273 27.9498 57.0608 28.2468ZM57.965 27.8283V30.2718H58.5635V27.8283H57.965ZM57.938 26.9688C57.938 27.1488 58.0505 27.2928 58.262 27.2928C58.4735 27.2928 58.586 27.1488 58.586 26.9688C58.586 26.7843 58.4735 26.6403 58.262 26.6403C58.0505 26.6403 57.938 26.7843 57.938 26.9688ZM60.0091 29.6733C59.6176 29.6733 59.4376 29.4033 59.4376 29.0433C59.4376 28.6968 59.6176 28.4268 60.0091 28.4268C60.3196 28.4268 60.5896 28.6968 60.5896 29.0433C60.5896 29.4033 60.3196 29.6733 60.0091 29.6733ZM58.8166 29.0478C58.8166 29.7543 59.2306 30.2628 59.9596 30.2628C60.1441 30.2628 60.4186 30.1998 60.6436 29.9208V30.1998C60.6436 30.5643 60.1711 30.6723 59.9461 30.6723C59.8201 30.6723 59.5321 30.6228 59.3746 30.3798L58.8571 30.7263C59.0821 31.0593 59.5231 31.2618 59.9461 31.2618C60.6256 31.2618 61.2556 30.8703 61.2601 30.1098V27.8283H60.6436V28.1703C60.4456 27.9003 60.1396 27.8373 59.9596 27.8373C59.2306 27.8373 58.8166 28.3503 58.8166 29.0478ZM61.5866 27.8283V30.2718H62.1851V27.8283H61.5866ZM61.5596 26.9688C61.5596 27.1488 61.6721 27.2928 61.8836 27.2928C62.0951 27.2928 62.2076 27.1488 62.2076 26.9688C62.2076 26.7843 62.0951 26.6403 61.8836 26.6403C61.6721 26.6403 61.5596 26.7843 61.5596 26.9688ZM64.2248 28.9938V30.2538H64.8323V28.9848C64.8323 28.1433 64.3598 27.8508 63.7298 27.8508C63.5228 27.8508 63.2528 27.9408 63.1313 28.1658V27.8508H62.5238V30.2538H63.1313V29.0028C63.1178 28.6788 63.3608 28.4403 63.6623 28.4403C64.0583 28.4403 64.2248 28.6653 64.2248 28.9938Z" fill="#02BE8C"/>
</svg>
