<svg width="98" height="36" viewBox="0 0 98 36" fill="none" xmlns="http://www.w3.org/2000/svg">
<path fill-rule="evenodd" clip-rule="evenodd" d="M83.5283 14.0886V25.515C83.5283 31.0379 79.0511 35.515 73.5283 35.515H24.4717C18.9488 35.515 14.4717 31.0379 14.4717 25.515V14.0886C14.4717 8.56573 18.9488 4.08856 24.4717 4.08856H47.9413C48.5944 4.08856 49.0051 3.94161 49.424 3.44058C49.7639 3.03395 50.2568 2.5907 50.7528 2.14454C51.2843 1.66656 51.8194 1.18523 52.1743 0.741996C52.39 0.472676 52.6674 0.268685 53.0154 0.18711C53.4431 0.086822 54.1292 0.0546167 54.78 0.433518C55.3909 0.789209 55.9867 1.12494 56.6895 1.04916C57.422 0.970186 58.6718 0.72888 59.3515 0.444548C59.6988 0.299236 60.1134 0.230101 60.5658 0.321489C60.9799 0.405155 61.3153 0.659845 61.573 0.970525C61.5986 1.00143 61.6241 1.03223 61.6496 1.06293C62.1888 1.7136 62.6878 2.3158 63.3675 2.82822C63.4689 2.90467 63.5747 2.988 63.6842 3.0742C64.275 3.53962 64.9719 4.08856 65.6576 4.08856H73.5283C79.0511 4.08856 83.5283 8.56572 83.5283 14.0886ZM24.8098 9.67137C22.0023 9.67137 19.7264 11.9473 19.7264 14.7547V24.8488C19.7264 27.6562 22.0023 29.9321 24.8098 29.9321H73.191C75.9985 29.9321 78.2744 27.6562 78.2744 24.8488V14.7548C78.2744 11.9473 75.9985 9.67137 73.191 9.67137H24.8098Z" fill="#29ABE2"/>
<path d="M35.7707 14.7099L33.2892 11.3897C33.2703 11.3645 33.2458 11.344 33.2176 11.3299C33.1895 11.3158 33.1584 11.3084 33.127 11.3083H25.2488C24.1068 11.3163 23.3433 12.0096 23.3433 13.001V15.0096H35.7494C35.7722 15.0097 35.7946 15.0033 35.814 14.9913C35.8334 14.9793 35.8491 14.9621 35.8593 14.9416C35.8695 14.9211 35.8738 14.8982 35.8717 14.8755C35.8697 14.8527 35.8614 14.8309 35.8477 14.8126L35.7707 14.7099Z" fill="#29ABE2"/>
<path d="M77.0996 11.3084H71.762V15.0096H74.4864C74.7137 15.0096 74.8242 14.9519 74.9518 14.7721L77.1741 11.5405L77.2004 11.5022C77.2134 11.4838 77.2211 11.4621 77.2226 11.4395C77.2241 11.417 77.2194 11.3944 77.209 11.3744C77.1985 11.3544 77.1828 11.3376 77.1635 11.3259C77.1442 11.3143 77.1221 11.3082 77.0996 11.3084Z" fill="#29ABE2"/>
<path d="M62.5037 16.2873V13.0003C62.5037 13.0003 62.498 12.3717 62.0009 11.8807C61.6821 11.565 61.1615 11.3076 60.3109 11.3076H50.2254C50.1852 11.3076 50.1459 11.3195 50.1125 11.3418C50.079 11.3641 50.0528 11.3958 50.0371 11.433C50.0318 11.4453 50.0278 11.4582 50.0253 11.4714C50.0224 11.485 50.021 11.4989 50.021 11.5128V11.6411V11.8053V14.5088V14.6759V15.0102H58.2301C58.2435 15.0102 58.2568 15.0125 58.2695 15.0169C58.2789 15.02 58.2878 15.0243 58.2961 15.0297L58.3 15.0323C58.3225 15.0479 58.3391 15.0706 58.3472 15.0967C58.3496 15.1045 58.3513 15.1126 58.3522 15.1207C58.3522 15.125 58.3522 15.129 58.3522 15.1333V15.5909V17.6374V17.9501C58.3522 17.9827 58.3393 18.0141 58.3163 18.0371C58.2933 18.0602 58.2621 18.0732 58.2295 18.0732H54.1354C54.1028 18.0732 54.0716 18.0602 54.0486 18.0371C54.0256 18.0141 54.0127 17.9827 54.0127 17.9501V17.7328V16.4466V15.9469C54.0123 15.8928 53.9907 15.8411 53.9527 15.8029C53.9146 15.7647 53.863 15.743 53.8092 15.7426H50.021V25.7129V26.1688V26.2316C50.021 26.2455 50.0224 26.2594 50.0253 26.273C50.0278 26.2862 50.0318 26.2991 50.0371 26.3114C50.0528 26.3485 50.079 26.3802 50.1125 26.4025C50.146 26.4248 50.1853 26.4367 50.2254 26.4368H53.8084C53.8486 26.4367 53.8879 26.4247 53.9214 26.4024C53.9549 26.3802 53.9812 26.3485 53.997 26.3114C54.0021 26.299 54.006 26.2862 54.0088 26.273C54.0116 26.2594 54.0129 26.2455 54.0129 26.2316V26.1688V25.5874V21.7011H60.4481C60.4639 21.7011 60.4794 21.7011 60.4951 21.7011C60.8866 21.6963 61.2864 21.545 61.625 21.303C61.652 21.2844 61.6788 21.2638 61.7051 21.2432C61.7313 21.2226 61.7571 21.2018 61.7826 21.1802C61.8196 21.1479 61.8577 21.1143 61.8936 21.0798C62.2636 20.7227 62.5115 20.2506 62.5028 19.7709L62.5037 16.2873Z" fill="#29ABE2"/>
<path d="M48.8187 13.0501C48.797 12.7819 48.7174 12.5218 48.5853 12.2876C48.4533 12.0535 48.272 11.8511 48.0541 11.6945L48.0208 11.6707C48.0041 11.6592 47.9873 11.6478 47.9703 11.6367L47.9582 11.6291C47.919 11.6043 47.8789 11.5806 47.8378 11.5578C47.5239 11.3892 47.1732 11.3015 46.8171 11.3026H38.2226C37.7335 11.3041 37.2878 11.4603 36.9409 11.7281C36.9241 11.7409 36.9074 11.7541 36.8911 11.7676C36.8675 11.7862 36.8443 11.8074 36.8218 11.828C36.7992 11.8486 36.7809 11.8651 36.7611 11.8857L36.76 11.8867C36.4475 12.1974 36.2563 12.6102 36.2209 13.0503C36.2209 13.062 36.2196 13.0737 36.2196 13.0856C36.2196 13.0856 36.2196 13.0865 36.2196 13.0869V15.0095H45.0686C45.085 15.0095 45.1012 15.0128 45.1164 15.0191L45.1271 15.0243C45.1325 15.0273 45.1377 15.0308 45.1426 15.0345C45.1578 15.046 45.17 15.0608 45.1785 15.0778C45.1869 15.0948 45.1913 15.1136 45.1913 15.1326V22.6523C45.1913 22.6685 45.1881 22.6845 45.182 22.6995C45.1758 22.7144 45.1668 22.728 45.1554 22.7394C45.144 22.7509 45.1305 22.76 45.1156 22.7661C45.1007 22.7723 45.0847 22.7755 45.0686 22.7755H39.9606C39.9402 22.7755 39.9201 22.7704 39.9021 22.7606L39.8986 22.7584C39.8896 22.7533 39.8812 22.7471 39.8738 22.7398C39.8509 22.7166 39.8381 22.6853 39.8379 22.6527V15.9471C39.838 15.9176 39.8317 15.8883 39.8194 15.8615C39.8094 15.8394 39.7955 15.8193 39.7785 15.8021C39.7739 15.7974 39.769 15.793 39.7639 15.7889C39.7275 15.7586 39.6817 15.742 39.6344 15.7419H36.2118V24.3484C36.2102 24.4905 36.2231 24.6325 36.2505 24.772C36.2518 24.779 36.2532 24.7861 36.2547 24.7931C36.2603 24.8199 36.2664 24.8464 36.2732 24.8726C36.2754 24.8813 36.2777 24.8912 36.2801 24.899C36.2865 24.9231 36.2932 24.9473 36.3006 24.971C36.3038 24.9814 36.3071 24.992 36.3104 25.0024C36.3226 25.0396 36.3358 25.0767 36.3502 25.1138C36.3743 25.1762 36.4016 25.2374 36.432 25.297C36.4392 25.3114 36.4468 25.3257 36.4543 25.34C36.4619 25.3543 36.4729 25.3733 36.4821 25.3898L36.5032 25.4256C36.5414 25.4889 36.5829 25.55 36.6277 25.6088C36.6421 25.6273 36.6567 25.6459 36.6719 25.6645C36.8717 25.9079 37.1233 26.1033 37.4083 26.2362C37.6932 26.369 38.0043 26.436 38.3185 26.4322H46.7154C47.8439 26.447 48.8339 25.5434 48.8211 24.3476V17.9846V14.428V13.0869C48.8202 13.0746 48.8198 13.0631 48.8187 13.0501Z" fill="#29ABE2"/>
<path d="M71.032 11.3083H63.325C63.2913 11.3088 63.2582 11.3172 63.2282 11.3327C63.1957 11.3502 63.1686 11.3763 63.1498 11.408C63.1309 11.4398 63.121 11.4762 63.1211 11.5132V14.8044C63.1211 14.8587 63.1425 14.9107 63.1806 14.9492C63.2188 14.9877 63.2705 15.0094 63.3246 15.0096H66.9165C66.9426 15.0097 66.9681 15.0182 66.9891 15.0337C67.0102 15.0493 67.0258 15.0711 67.0336 15.0962C67.036 15.104 67.0377 15.112 67.0386 15.1201C67.0386 15.1244 67.0386 15.1285 67.0386 15.1328V25.7073V26.117V26.2308C67.0386 26.2448 67.04 26.2586 67.0429 26.2722C67.0455 26.2854 67.0494 26.2983 67.0547 26.3107C67.0704 26.3478 67.0966 26.3795 67.1301 26.4017C67.1636 26.424 67.2029 26.4359 67.243 26.436H70.8266C70.8807 26.436 70.9325 26.4145 70.9708 26.3763C71.0091 26.338 71.0308 26.286 71.031 26.2318V11.3083H71.032Z" fill="#29ABE2"/>
<path d="M35.8615 23.651C35.8615 23.6079 35.8615 23.5654 35.86 23.5234C35.858 23.4593 35.8539 23.3966 35.8484 23.3358C35.8454 23.3043 35.8417 23.2727 35.8378 23.2415C35.8369 23.235 35.8362 23.2287 35.8354 23.2229C35.8314 23.1932 35.8271 23.1637 35.8221 23.1342C35.821 23.1269 35.8195 23.1195 35.8184 23.1121C35.8138 23.0855 35.8088 23.0588 35.8034 23.0322C35.8021 23.0257 35.8006 23.0192 35.7993 23.0125C35.794 22.9867 35.7881 22.9609 35.782 22.9351C35.7796 22.9256 35.7773 22.9165 35.7749 22.9065C35.769 22.8825 35.7629 22.8586 35.7564 22.8348C35.7564 22.8326 35.7551 22.8303 35.7544 22.8279C35.7512 22.8162 35.7477 22.8047 35.7444 22.793C35.7389 22.7744 35.7333 22.7559 35.7276 22.7373L35.7165 22.702C35.7076 22.6753 35.698 22.6485 35.6891 22.622L35.6784 22.593C35.671 22.5733 35.6636 22.5538 35.656 22.5345L35.6426 22.5011C35.6334 22.4786 35.6241 22.4563 35.6143 22.4342C35.6106 22.4253 35.6068 22.4157 35.6029 22.4079C35.5921 22.3839 35.581 22.3601 35.5698 22.3364L35.5555 22.307C35.5453 22.2864 35.535 22.2658 35.5242 22.2454C35.5205 22.2379 35.5168 22.2307 35.513 22.2235C35.4989 22.1969 35.4843 22.1705 35.4695 22.1444L35.4562 22.1211C35.4441 22.1003 35.4319 22.0799 35.4192 22.0595L35.4057 22.0374C35.3894 22.0112 35.3729 21.9854 35.3559 21.9596L35.3459 21.9447C35.3313 21.923 35.3165 21.9016 35.3013 21.8803L35.2863 21.8591C35.2679 21.8335 35.2494 21.8081 35.2308 21.783C35.2112 21.7575 35.1914 21.7325 35.1718 21.7074L35.1337 21.6593C35.0988 21.6157 35.0634 21.5724 35.0275 21.5293C34.9972 21.4922 34.9664 21.4572 34.935 21.4216C34.9082 21.3905 34.8812 21.3596 34.854 21.3287C34.8236 21.2944 34.7928 21.2604 34.7615 21.2266C34.7182 21.1791 34.6744 21.1318 34.6303 21.0847C34.6006 21.0529 34.5706 21.0213 34.5404 20.9898C34.4808 20.9279 34.4208 20.866 34.3604 20.8041C34.3291 20.7718 34.2975 20.7395 34.2658 20.7072L34.0808 20.5174C33.9876 20.4219 33.894 20.3251 33.8002 20.2268C33.5042 19.9155 33.0679 19.4717 32.581 18.9825C32.4459 18.847 32.307 18.7079 32.166 18.5673L31.9971 18.3989L31.9103 18.3123L31.7405 18.1433C30.7113 17.1203 29.6843 16.1127 29.3909 15.8243C29.3756 15.8095 29.3587 15.7965 29.3406 15.7855C29.2956 15.7575 29.2438 15.7427 29.1909 15.7426H23.8331C23.825 15.7425 23.8172 15.7449 23.8104 15.7494C23.8037 15.7539 23.7985 15.7602 23.7953 15.7677C23.7922 15.7752 23.7914 15.7834 23.7929 15.7913C23.7944 15.7993 23.7982 15.8066 23.8039 15.8124L24.1793 16.1959L24.2718 16.2908L26.3205 18.3827L30.4168 22.5666C30.4338 22.5839 30.4453 22.6058 30.45 22.6296C30.4546 22.6534 30.4521 22.6781 30.4428 22.7005C30.4335 22.7229 30.4178 22.742 30.3977 22.7555C30.3776 22.7689 30.354 22.7761 30.3298 22.7761H22.2522C22.2197 22.7759 22.1876 22.7836 22.1587 22.7984C22.1297 22.8132 22.1047 22.8348 22.0857 22.8614C22.0727 22.8793 22.0627 22.8992 22.0561 22.9204C22.0541 22.9267 22.0524 22.9334 22.0509 22.9401C22.0483 22.9537 22.0469 22.9675 22.0469 22.9813V25.9396V26.2302C22.0469 26.2372 22.0472 26.2442 22.048 26.2512C22.0524 26.295 22.0708 26.3361 22.1005 26.3684C22.1048 26.3734 22.1095 26.378 22.1144 26.3823C22.1519 26.4165 22.2007 26.4355 22.2513 26.4356H33.0187C33.7872 26.4356 34.5367 26.1405 35.0658 25.5814C35.6748 24.9379 35.8545 24.24 35.8598 23.65L35.8615 23.651Z" fill="#29ABE2"/>
</svg>
