<svg width="40" height="40" viewBox="0 0 40 40" fill="none" xmlns="http://www.w3.org/2000/svg">
<rect width="40" height="40" rx="5" fill="#242424"/>
<path d="M24.9217 19.5245C24.9316 18.7579 25.1352 18.0062 25.5136 17.3395C25.8921 16.6727 26.433 16.1125 27.0862 15.7109C26.6712 15.1183 26.1239 14.6307 25.4875 14.2867C24.8512 13.9426 24.1434 13.7517 23.4203 13.7291C21.878 13.5672 20.3827 14.652 19.5968 14.652C18.7956 14.652 17.5855 13.7452 16.2824 13.772C15.4395 13.7992 14.6181 14.0443 13.8981 14.4834C13.1781 14.9225 12.5842 15.5406 12.1741 16.2775C10.3977 19.353 11.7227 23.8729 13.4243 26.3589C14.2757 27.5762 15.2707 28.936 16.5726 28.8878C17.8466 28.8349 18.3224 28.0754 19.8602 28.0754C21.3837 28.0754 21.8302 28.8878 23.1585 28.8571C24.5255 28.8349 25.3869 27.6344 26.2083 26.4055C26.82 25.5381 27.2907 24.5795 27.6029 23.5651C26.8087 23.2292 26.131 22.6669 25.6542 21.9484C25.1774 21.2298 24.9226 20.3869 24.9217 19.5245Z" fill="white"/>
<path d="M22.4121 12.095C23.1575 11.2002 23.5247 10.0501 23.4358 8.88892C22.297 9.00852 21.2451 9.55278 20.4896 10.4132C20.1203 10.8336 19.8374 11.3226 19.6571 11.8524C19.4769 12.3821 19.4028 12.9422 19.4392 13.5006C20.0088 13.5065 20.5722 13.383 21.0872 13.1396C21.6022 12.8961 22.0552 12.5389 22.4121 12.095Z" fill="white"/>
</svg>
