<svg width="40" height="40" viewBox="0 0 40 40" fill="none" xmlns="http://www.w3.org/2000/svg">
<rect width="40" height="40" rx="5" fill="#242424"/>
<g clip-path="url(#clip0_281_9063)">
<path d="M23.9252 15.2997H28.8379C27.3617 12.4778 24.6101 10.4518 21.3667 10C22.5972 11.8118 23.4155 13.5957 23.9252 15.2997Z" fill="white"/>
<path d="M29.4168 23.4087C29.7875 22.3499 30 21.2158 30 20.03C30 18.8441 29.7833 17.6876 29.4054 16.6204C29.3475 16.6327 29.2926 16.6513 29.2305 16.6513H24.2705C24.8126 19.1874 24.7147 21.5023 24.3753 23.4087H29.4168Z" fill="white"/>
<path d="M17.4966 15.2998H22.5008C21.9842 13.7599 21.1823 12.142 19.9987 10.4951C18.8158 12.142 18.0132 13.7595 17.4966 15.2998Z" fill="white"/>
<path d="M17.3081 24.76C18.1153 27.5583 19.4529 29.4551 19.9988 29.9192C20.5447 29.4551 21.8826 27.5576 22.6894 24.76H17.3081Z" fill="white"/>
<path d="M22.8881 16.6511H17.1102C16.5083 19.1533 16.607 21.3964 16.9251 23.1409C16.9418 23.2321 16.9624 23.3193 16.9795 23.4085H23.0184C23.0363 23.3186 23.0565 23.2313 23.0729 23.1409C23.3917 21.3964 23.4904 19.1533 22.8881 16.6511Z" fill="white"/>
<path d="M16.8178 27.4108C16.5325 26.7513 16.1957 25.8497 15.9165 24.76H11.1626C12.5786 27.4672 15.1687 29.4427 18.2407 29.9991C17.678 29.1855 17.1569 28.1935 16.8182 27.4112L16.8178 27.4108Z" fill="white"/>
<path d="M24.0816 24.7602C23.8024 25.8494 23.4656 26.7515 23.1803 27.411C22.8416 28.1937 22.3205 29.1853 21.7578 29.9997C24.8313 29.444 27.4218 27.4685 28.8378 24.7605H24.0816V24.7598V24.7602Z" fill="white"/>
<path d="M10.7947 23.4087H15.6225C15.283 21.5023 15.1851 19.1874 15.7272 16.6513H10.7691C10.707 16.6513 10.6526 16.6323 10.5943 16.6204C10.2168 17.6876 10 18.8325 10 20.03C10 21.2274 10.2171 22.375 10.5962 23.443C10.6613 23.4284 10.7242 23.4087 10.7947 23.4087Z" fill="white"/>
<path d="M16.0735 15.2997C16.5828 13.5961 17.4007 11.8114 18.6319 10C15.3893 10.4533 12.638 12.4786 11.1626 15.2997H16.0735Z" fill="white"/>
</g>
<defs>
<clipPath id="clip0_281_9063">
<rect width="20" height="20" fill="white" transform="translate(10 10)"/>
</clipPath>
</defs>
</svg>
